<?xml version="1.0" standalone="no"?>
<!DOCTYPE svg PUBLIC "-//W3C//DTD SVG 1.1//EN" "http://www.w3.org/Graphics/SVG/1.1/DTD/svg11.dtd" >
<svg xmlns="http://www.w3.org/2000/svg" xmlns:xlink="http://www.w3.org/1999/xlink" version="1.1">
<metadata>
Created by FontForge 20170731 at Wed Jun 13 20:13:26 2007
 By Aleksey,,,
(c) 1990, 1991, 1998, 2002 Adobe Systems Incorporated. All rights reserved. (c) 1989, 1990, 1998, 2002 The Monotype Corporation PLC. All rights reserved.
</metadata>
<defs>
<font id="GillSansStd-Italic" horiz-adv-x="469" >
  <font-face 
    font-family="Gill Sans Std"
    font-weight="400"
    font-style="italic"
    font-stretch="normal"
    units-per-em="1000"
    panose-1="2 11 5 2 2 1 4 9 2 3"
    ascent="682"
    descent="-318"
    x-height="449"
    cap-height="682"
    bbox="-201 -250 1009 909"
    underline-thickness="50"
    underline-position="-200"
    slope="-8"
    unicode-range="U+0020-FB02"
  />
<missing-glyph horiz-adv-x="565" 
d="M65 0v700h500v-700h-500zM315 395l170 255h-340zM345 350l170 -255v510zM145 50h340l-170 255zM115 605v-510l170 255z" />
    <glyph glyph-name="f_i" unicode="fi" horiz-adv-x="479" 
d="M299 449l-11 -75h-95l-84 -563h-83l83 563h-66l11 75h65q16 121 62.5 181.5t141.5 60.5q66 0 106 -36t39 -91h-81q-5 25 -23 39.5t-44 14.5q-59 0 -80.5 -38t-36.5 -131h96zM454 449l-66 -449h-85l66 449h85z" />
    <glyph glyph-name="f_l" unicode="fl" horiz-adv-x="479" 
d="M302 449l-14 -75h-94l-85 -563h-83l83 563h-65l11 75h64q17 127 64 184.5t134 57.5q27 0 49 -9l-10 -69q-17 5 -38 5q-98 0 -114 -169h98zM488 682l-101 -682h-85l101 682h85z" />
    <glyph glyph-name=".notdef" horiz-adv-x="565" 
d="M65 0v700h500v-700h-500zM315 395l170 255h-340zM345 350l170 -255v510zM145 50h340l-170 255zM115 605v-510l170 255z" />
    <glyph glyph-name=".null" horiz-adv-x="0" 
 />
    <glyph glyph-name="nonmarkingreturn" horiz-adv-x="333" 
 />
    <glyph glyph-name="space" unicode=" " horiz-adv-x="278" 
 />
    <glyph glyph-name="exclam" unicode="!" horiz-adv-x="250" 
d="M131 166h-37q8 70 28 414q4 61 18.5 86t47.5 25q40 0 40 -59q0 -23 -13 -86t-40.5 -182.5t-43.5 -197.5zM100 102q24 0 41 -17t17 -41t-17 -41t-41 -17t-41 17t-17 41t17 41t41 17z" />
    <glyph glyph-name="quotedbl" unicode="&#x22;" horiz-adv-x="354" 
d="M248 716h96v-117l-23 -137h-50l-23 137v117zM86 716h96v-117l-23 -137h-50l-23 137v117z" />
    <glyph glyph-name="numbersign" unicode="#" horiz-adv-x="584" 
d="M195 617h72l-41 -195h194l41 195h72l-41 -195h91v-69h-105l-36 -170h141v-69h-155l-41 -195h-72l41 195h-194l-41 -195h-72l41 195h-90v69h104l36 170h-140v69h154zM212 353l-36 -170h194l36 170h-194z" />
    <glyph glyph-name="dollar" unicode="$" horiz-adv-x="500" 
d="M483 604l-13 -90q-61 39 -130 53l-30 -214q75 -40 113.5 -83t38.5 -103q0 -69 -56 -120t-147 -56l-14 -101h-74l14 101q-87 12 -145 54l14 98q64 -42 144 -64l29 214q-78 44 -114 86.5t-36 98.5q0 70 57 119t144 54l5 40h74l-5 -40q68 -9 131 -47zM242 395l24 175
q-45 -7 -72 -28.5t-27 -52.5q0 -28 16 -48.5t59 -45.5zM296 254l-26 -181q44 4 73.5 28.5t29.5 57.5q0 53 -77 95z" />
    <glyph glyph-name="percent" unicode="%" horiz-adv-x="708" 
d="M289 539q0 33 -23 56t-56 23t-56 -22.5t-23 -56.5q0 -31 24 -55t55 -24q33 0 56 23.5t23 55.5zM362 539q0 -61 -45 -106.5t-107 -45.5q-64 0 -108 45t-44 107q0 65 44 108.5t108 43.5q63 0 107.5 -44t44.5 -108zM631 691l-448 -700h-76l449 700h75zM607 144q0 33 -23 56
t-56 23t-56 -22.5t-23 -56.5q0 -31 24 -55t55 -24q33 0 56 23.5t23 55.5zM680 144q0 -62 -45 -107t-107 -45q-64 0 -108 45t-44 107q0 64 44 108t108 44q63 0 107.5 -44t44.5 -108z" />
    <glyph glyph-name="ampersand" unicode="&#x26;" horiz-adv-x="688" 
d="M565 343h88q-21 -53 -58 -118t-81 -106q59 -56 123 -56q14 0 22 3l-33 -71q-8 -4 -24 -4q-34 0 -76 21.5t-70 53.5q-102 -75 -211 -75q-93 0 -143.5 55t-50.5 136q0 60 43.5 115t115.5 87q-38 74 -38 144q0 69 46 116t113 47q56 0 94.5 -40.5t38.5 -98.5
q0 -115 -145 -196q38 -71 137 -184q70 70 109 171zM377 547q0 30 -16.5 49t-42.5 19q-27 0 -46 -26t-19 -64q0 -42 28 -102q44 22 70 56t26 68zM143 181q0 -51 34.5 -83.5t88.5 -32.5q59 0 132 53q-34 38 -80 98t-69 98q-106 -59 -106 -133z" />
    <glyph glyph-name="quotesingle" unicode="'" horiz-adv-x="188" 
d="M86 716h96v-117l-23 -137h-50l-23 137v117z" />
    <glyph glyph-name="parenleft" unicode="(" horiz-adv-x="292" 
d="M286 691h48q-64 -79 -133 -239q-26 -60 -46.5 -176t-20.5 -196q0 -175 62 -310h-42q-42 78 -71.5 183t-29.5 199q0 148 60 273.5t173 265.5z" />
    <glyph glyph-name="parenright" unicode=")" horiz-adv-x="292" 
d="M-7 -230h-48q64 79 133 239q26 60 46.5 176t20.5 196q0 175 -62 310h42q42 -78 71.5 -183t29.5 -199q0 -148 -60 -273.5t-173 -265.5z" />
    <glyph glyph-name="asterisk" unicode="*" horiz-adv-x="448" 
d="M291 665l-25 -127q14 -2 20 -10l84 80q25 25 46 25q14 0 23 -10t9 -26q0 -28 -32 -39l-124 -45q4 -13 0 -23l101 -37q55 -20 55 -50q0 -11 -10 -22t-22 -11q-23 0 -58 35l-72 71q-10 -10 -20 -10l23 -123q5 -28 -3 -46.5t-28 -18.5q-22 0 -30 21t-1 54l24 113
q-9 1 -19 10l-78 -72q-36 -33 -58 -33q-11 0 -20.5 10t-9.5 23q0 31 54 50l105 36q-3 13 0 23l-113 42q-44 16 -44 40q0 16 10.5 27.5t24.5 11.5q15 0 47 -29l82 -77q4 8 19 10l-23 119q-13 69 30 69q21 0 29.5 -17.5t3.5 -43.5z" />
    <glyph glyph-name="plus" unicode="+" horiz-adv-x="584" 
d="M266 589h82v-195h195v-82h-195v-195h-82v195h-195v82h195v195z" />
    <glyph glyph-name="comma" unicode="," horiz-adv-x="198" 
d="M-24 -144l6 44q66 22 66 86q-39 17 -39 51q0 26 17.5 42.5t45.5 16.5q27 0 45 -22.5t18 -56.5q0 -57 -44 -101t-115 -60z" />
    <glyph glyph-name="hyphen" unicode="-" horiz-adv-x="250" 
d="M250 265l-12 -85h-238l12 85h238z" />
    <glyph glyph-name="period" unicode="." horiz-adv-x="198" 
d="M74 102q24 0 41 -17t17 -41t-17 -41t-41 -17t-41 17t-17 41t17 41t41 17z" />
    <glyph glyph-name="slash" unicode="/" horiz-adv-x="281" 
d="M28 -9l196 700h70l-196 -700h-70z" />
    <glyph glyph-name="zero" unicode="0" horiz-adv-x="521" 
d="M501 444q0 -78 -17 -156t-49 -145.5t-85.5 -109.5t-118.5 -42q-180 0 -180 243q0 49 8 105.5t29 120t51 114t78.5 84t108.5 33.5q82 0 128.5 -61t46.5 -186zM409 455q0 155 -87 155q-43 0 -84.5 -54.5t-67 -142t-25.5 -177.5q0 -164 85 -164q45 0 86.5 54.5t67 143.5
t25.5 185z" />
    <glyph glyph-name="one" unicode="1" horiz-adv-x="521" 
d="M374 691l-108 -691h-90l109 691h89z" />
    <glyph glyph-name="two" unicode="2" horiz-adv-x="521" 
d="M119 547l13 97q80 47 154 47t119.5 -45t45.5 -118q0 -70 -59.5 -167.5t-208.5 -276.5h260l-12 -84h-414q199 244 273 356.5t74 164.5q0 40 -25.5 62.5t-70.5 22.5q-69 0 -149 -59z" />
    <glyph glyph-name="three" unicode="3" horiz-adv-x="521" 
d="M129 567l13 94q69 30 141 30q83 0 133 -48.5t50 -128.5q0 -114 -133 -163q92 -39 92 -154q0 -32 -12.5 -65.5t-38.5 -66t-74.5 -53.5t-111.5 -21q-80 0 -164 38l12 81q78 -38 148 -38q66 0 106.5 34.5t40.5 90.5q0 58 -39 88t-85 26l11 81q74 5 114 41t40 80t-29 70.5
t-78 26.5q-71 0 -136 -43z" />
    <glyph glyph-name="four" unicode="4" horiz-adv-x="521" 
d="M455 691l-63 -408h98l-10 -73h-101l-33 -210h-87l36 210h-256v39l362 442h54zM343 515l-189 -232h152l39 230z" />
    <glyph glyph-name="five" unicode="5" horiz-adv-x="521" 
d="M477 682l-15 -84h-196l-27 -170q90 -5 142.5 -58t52.5 -140q0 -106 -71.5 -172.5t-184.5 -66.5q-96 0 -163 51l31 79q65 -49 137 -49q69 0 113 44t44 113q0 54 -38.5 86t-103.5 32q-23 0 -60 -8l61 343h278z" />
    <glyph glyph-name="six" unicode="6" horiz-adv-x="521" 
d="M414 682l-196 -286l2 -2q30 23 88 23q73 0 117 -46.5t44 -124.5q0 -100 -71.5 -177.5t-163.5 -77.5q-84 0 -132 55.5t-48 152.5q0 49 26.5 114t67.5 126l166 243h100zM380 239q0 43 -25.5 70t-66.5 27q-59 0 -102 -44t-43 -103q0 -50 26 -81.5t67 -31.5q56 0 100 49
t44 114z" />
    <glyph glyph-name="seven" unicode="7" horiz-adv-x="521" 
d="M528 682l-319 -691h-93l280 607h-275l12 84h395z" />
    <glyph glyph-name="eight" unicode="8" horiz-adv-x="521" 
d="M376 356q90 -39 90 -145q0 -93 -67.5 -156.5t-166.5 -63.5q-86 0 -139 52t-53 137q0 69 38 118t108 69q-41 26 -59 57t-18 77q0 78 58.5 134t139.5 56q84 0 134.5 -48t50.5 -127q0 -55 -31 -98t-85 -62zM403 515q0 42 -26 68.5t-67 26.5q-46 0 -79 -34t-33 -81
q0 -43 25.5 -69.5t67.5 -26.5q46 0 79 34.5t33 81.5zM377 209q0 51 -30 80t-83 29q-55 0 -95 -41.5t-40 -97.5q0 -46 31 -76.5t78 -30.5q57 0 98 40.5t41 96.5z" />
    <glyph glyph-name="nine" unicode="9" horiz-adv-x="521" 
d="M129 -9l202 294l-2 2q-42 -24 -87 -24q-72 0 -118 45.5t-46 116.5q0 108 71 187t168 79q77 0 127 -56t50 -143q0 -58 -20.5 -116.5t-76.5 -139.5l-168 -245h-100zM402 488q0 53 -25 84t-68 31q-55 0 -97 -48.5t-42 -113.5q0 -47 24 -72t70 -25q53 0 95.5 44.5t42.5 99.5z
" />
    <glyph glyph-name="colon" unicode=":" horiz-adv-x="198" 
d="M130 463q24 0 41 -17t17 -41t-17 -41t-41 -17t-41 17t-17 41t17 41t41 17zM74 102q24 0 41 -17t17 -41t-17 -41t-41 -17t-41 17t-17 41t17 41t41 17z" />
    <glyph glyph-name="semicolon" unicode=";" horiz-adv-x="198" 
d="M-10 -144l6 44q66 22 66 86q-39 17 -39 51q0 26 17.5 42.5t45.5 16.5q27 0 45 -22.5t18 -56.5q0 -57 -44 -101t-115 -60zM130 463q24 0 41 -17t17 -41t-17 -41t-41 -17t-41 17t-17 41t17 41t41 17z" />
    <glyph glyph-name="less" unicode="&#x3c;" horiz-adv-x="584" 
d="M70 313v82l474 202v-87l-376 -156l376 -156v-87z" />
    <glyph glyph-name="equal" unicode="=" horiz-adv-x="584" 
d="M71 503h472v-82h-472v82zM71 285h472v-82h-472v82z" />
    <glyph glyph-name="greater" unicode="&#x3e;" horiz-adv-x="584" 
d="M544 313l-474 -202v87l376 156l-376 156v87l474 -202v-82z" />
    <glyph glyph-name="question" unicode="?" horiz-adv-x="354" 
d="M88 554l14 99q61 38 112 38q66 0 106 -42t40 -112q0 -40 -18.5 -75.5t-46 -65t-56 -60.5t-52 -75t-30.5 -95h-55q0 59 17.5 110t43 85.5t50.5 64t42.5 57t17.5 52.5q0 33 -20 54t-54 21q-50 0 -111 -56zM118 102q24 0 41 -17t17 -41t-17 -41t-41 -17t-41 17t-17 41t17 41
t41 17z" />
    <glyph glyph-name="at" unicode="@" horiz-adv-x="1010" 
d="M891 9h90q-133 -219 -433 -219q-230 0 -362 117t-132 322q0 66 16 133t53 134t91.5 118t138 83t184.5 32q182 0 300.5 -107.5t118.5 -273.5q0 -87 -41.5 -168.5t-109.5 -131.5t-141 -50q-97 0 -97 82q-70 -81 -148 -81q-77 0 -128 62.5t-51 158.5q0 117 79 213t175 96
q93 0 147 -90l17 76h88l-82 -377q-13 -60 32 -60q17 0 46.5 17.5t61.5 49t55.5 86.5t23.5 118q0 133 -99.5 221t-250.5 88q-175 0 -290.5 -119.5t-115.5 -301.5q0 -178 111 -276.5t311 -98.5q120 0 207.5 40t134.5 107zM332 213q0 -64 29.5 -103.5t77.5 -39.5q65 0 119.5 77
t54.5 169q0 65 -30.5 104t-82.5 39q-64 0 -116 -76t-52 -170z" />
    <glyph glyph-name="A" unicode="A" horiz-adv-x="521" 
d="M352 686l133 -686h-84l-41 214h-214l-90 -214h-91l301 686h86zM292 566l-116 -280h170l-52 280h-2z" />
    <glyph glyph-name="B" unicode="B" horiz-adv-x="510" 
d="M134 682h100q111 0 163.5 -48.5t52.5 -124.5q0 -90 -94 -135q141 -49 141 -183q0 -86 -69 -138.5t-177 -52.5h-212zM213 604l-27 -195h49q56 0 89.5 28t33.5 74q0 106 -145 93zM175 333l-36 -257h103q78 0 120.5 30.5t42.5 88.5q0 59 -48.5 98.5t-115.5 39.5h-66z" />
    <glyph glyph-name="C" unicode="C" horiz-adv-x="552" 
d="M580 691l-18 -86h-50q-81 0 -146 -21.5t-105.5 -55t-67 -77.5t-37 -86t-10.5 -84q0 -93 48.5 -148.5t130.5 -55.5q43 0 100.5 23.5t103.5 60.5l-15 -110q-105 -60 -202 -60q-116 0 -189.5 79.5t-73.5 204.5q0 182 126.5 299t339.5 117h65z" />
    <glyph glyph-name="D" unicode="D" horiz-adv-x="656" 
d="M216 600l-73 -519h82q92 0 139.5 15t85.5 51q31 29 50.5 81t19.5 115q0 68 -27 120t-69.5 80.5t-87.5 42.5t-89 14h-31zM39 0l97 682h81q209 0 314 -109q86 -89 86 -233q0 -69 -20 -128.5t-61.5 -107.5t-111.5 -76t-163 -28h-222z" />
    <glyph glyph-name="E" unicode="E" horiz-adv-x="510" 
d="M498 682l-11 -81h-273l-30 -214h241l-11 -81h-242l-33 -225h359l-12 -81h-448l99 682h361z" />
    <glyph glyph-name="F" unicode="F" horiz-adv-x="417" 
d="M455 682l-11 -81h-237l-30 -214h218l-12 -81h-218l-43 -306h-91l99 682h325z" />
    <glyph glyph-name="G" unicode="G" horiz-adv-x="604" 
d="M577 296l-35 -245q-115 -60 -220 -60q-70 0 -126 25.5t-90.5 68t-52.5 95.5t-18 111q0 51 14 102.5t48.5 106t85.5 96.5t134 68.5t186 26.5q43 0 118 -9l-11 -82q-82 9 -121 9q-75 0 -137 -20.5t-102 -52.5t-67.5 -74.5t-39 -84.5t-11.5 -83q0 -98 55 -159.5t142 -61.5
q67 0 131 33l16 118h-97l10 72h188z" />
    <glyph glyph-name="H" unicode="H" horiz-adv-x="698" 
d="M687 682l-96 -682h-94l43 302h-369l-42 -302h-94l96 682h93l-41 -295h369l41 295h94z" />
    <glyph glyph-name="I" unicode="I" horiz-adv-x="240" 
d="M229 682l-96 -682h-94l96 682h94z" />
    <glyph glyph-name="J" unicode="J" horiz-adv-x="240" 
d="M232 682l-103 -732q-25 -180 -176 -180q-32 0 -65 6l-21 84q37 -8 66 -8q49 0 74 24t33 80l102 726h90z" />
    <glyph glyph-name="K" unicode="K" horiz-adv-x="563" 
d="M573 682l-314 -315l305 -367h-107l-281 357l-50 -357h-92l96 682h92l-45 -292l2 -2l290 294h104z" />
    <glyph glyph-name="L" unicode="L" horiz-adv-x="417" 
d="M221 682l-89 -606h280l-11 -76h-366l96 682h90z" />
    <glyph glyph-name="M" unicode="M" horiz-adv-x="813" 
d="M743 682v-682h-90v517h-2l-274 -517l-118 522h-2l-168 -522h-90l225 682h78l106 -462l245 462h90z" />
    <glyph glyph-name="N" unicode="N" horiz-adv-x="688" 
d="M678 682l-96 -682h-49l-339 498l-70 -498h-85l96 682h46l341 -502l71 502h85z" />
    <glyph glyph-name="O" unicode="O" horiz-adv-x="656" 
d="M623 405q0 -180 -97 -297t-232 -117q-107 0 -175 80.5t-68 207.5q0 69 21.5 140t61.5 132.5t105 100.5t143 39q108 0 174.5 -79t66.5 -207zM531 421q0 89 -40.5 138.5t-109.5 49.5q-76 0 -132 -56.5t-81 -132.5t-25 -154q0 -90 41.5 -141.5t111.5 -51.5q96 0 165.5 102
t69.5 246z" />
    <glyph glyph-name="P" unicode="P" horiz-adv-x="448" 
d="M123 682h117q43 0 79.5 -9t70 -29.5t52.5 -60t19 -94.5q0 -31 -11.5 -64t-35 -64.5t-68.5 -52t-103 -20.5h-82l-40 -288h-94zM205 601l-32 -232h66q65 0 97.5 37t32.5 86q0 46 -30.5 77.5t-93.5 31.5h-40z" />
    <glyph glyph-name="Q" unicode="Q" horiz-adv-x="656" 
d="M623 -15h15q-3 -73 -44 -126.5t-120 -53.5q-72 0 -133.5 47.5t-92.5 147.5q-93 19 -145 96.5t-52 194.5q0 64 21.5 132.5t61 129t104 99.5t141.5 39q113 0 178.5 -76.5t65.5 -210.5q0 -154 -74.5 -264t-199.5 -140q16 -53 56 -83t88 -30q37 0 75 24.5t55 73.5zM531 416
q0 93 -39.5 143t-109.5 50q-61 0 -110 -36t-75.5 -90.5t-40 -110t-13.5 -103.5q0 -93 41.5 -140t117.5 -47q94 0 161.5 96.5t67.5 237.5z" />
    <glyph glyph-name="R" unicode="R" horiz-adv-x="531" 
d="M132 682h123q123 0 176 -48q56 -51 56 -137q0 -61 -37.5 -105.5t-102.5 -61.5q31 -19 57 -75l122 -255h-98l-78 162q-42 87 -68.5 113t-73.5 26h-36l-42 -301h-94zM214 601l-30 -219h48q85 0 121.5 35t36.5 85q0 99 -123 99h-53z" />
    <glyph glyph-name="S" unicode="S" horiz-adv-x="458" 
d="M439 664l-13 -93q-56 36 -120 36q-55 0 -87.5 -28t-32.5 -75q0 -30 24 -59t58 -55.5t67.5 -56t57.5 -71.5t24 -91q0 -71 -53.5 -125.5t-148.5 -54.5q-82 0 -165 49l14 100q94 -65 160 -65q34 0 67.5 22.5t33.5 65.5q0 33 -24 64t-57.5 58t-67.5 56.5t-58 71.5t-24 92
q0 81 66 133.5t154 52.5q63 0 125 -27z" />
    <glyph glyph-name="T" unicode="T" horiz-adv-x="510" 
d="M557 682l-12 -85h-192l-84 -597h-94l84 597h-192l12 85h478z" />
    <glyph glyph-name="U" unicode="U" horiz-adv-x="635" 
d="M637 682l-59 -421q-19 -136 -93 -203t-191 -67q-118 0 -182.5 69.5t-48.5 182.5l62 439h90l-63 -446q-11 -78 32.5 -120.5t114.5 -42.5q80 0 131 51q25 25 37 62t21 104l55 392h94z" />
    <glyph glyph-name="V" unicode="V" horiz-adv-x="510" 
d="M565 682l-333 -688h-35l-133 688h88l89 -476h2l228 476h94z" />
    <glyph glyph-name="W" unicode="W" horiz-adv-x="927" 
d="M986 682l-330 -688h-35l-132 484l-232 -484h-36l-161 688h86l111 -483h2l230 483h35l133 -491l234 491h95z" />
    <glyph glyph-name="X" unicode="X" horiz-adv-x="667" 
d="M703 682l-292 -331l222 -351h-107l-177 281l-244 -281h-123l317 361l-202 321h103l162 -251l222 251h119z" />
    <glyph glyph-name="Y" unicode="Y" horiz-adv-x="490" 
d="M557 682l-239 -342l-48 -340h-90l48 340l-160 342h95l116 -250l174 250h104z" />
    <glyph glyph-name="Z" unicode="Z" horiz-adv-x="583" 
d="M647 682l-497 -597h404l-12 -85h-574l495 597h-388l12 85h560z" />
    <glyph glyph-name="bracketleft" unicode="[" horiz-adv-x="333" 
d="M376 682l-9 -66h-129l-108 -771h128l-9 -66h-211l127 903h211z" />
    <glyph glyph-name="backslash" unicode="\" horiz-adv-x="281" 
d="M279 -9h-70l-196 700h70z" />
    <glyph glyph-name="bracketright" unicode="]" horiz-adv-x="333" 
d="M-48 -221l9 66h129l108 771h-128l9 66h211l-127 -903h-211z" />
    <glyph glyph-name="asciicircum" unicode="^" 
d="M133 291h-90l173 391h71l173 -391h-89l-120 292z" />
    <glyph glyph-name="underscore" unicode="_" horiz-adv-x="500" 
d="M-6 -75h512v-50h-512v50z" />
    <glyph glyph-name="grave" unicode="`" horiz-adv-x="333" 
d="M201 670l68 -146h-56l-113 146h101z" />
    <glyph glyph-name="a" unicode="a" 
d="M446 449l-63 -449h-85l8 52l-2 2q-58 -63 -121 -63q-62 0 -105 52t-43 126q0 56 17.5 106.5t52.5 93.5t95.5 68.5t139.5 25.5q62 0 106 -14zM316 130l37 259q-68 6 -117 -16t-72 -59t-32.5 -69.5t-9.5 -60.5q0 -54 25 -88.5t64 -34.5q24 0 54 20.5t51 48.5z" />
    <glyph glyph-name="b" unicode="b" 
d="M210 682l-38 -267l2 -2q50 50 109 50q70 0 114 -57t44 -148q0 -49 -14.5 -94t-46 -86.5t-91 -66.5t-140.5 -25q-73 0 -119 7l93 689h87zM122 56h47q87 0 136 56t49 148q0 61 -26 95t-71 34q-27 0 -59.5 -15.5t-36.5 -41.5z" />
    <glyph glyph-name="c" unicode="c" horiz-adv-x="385" 
d="M357 100l-10 -82q-60 -32 -125 -32q-91 0 -144.5 56t-53.5 151q0 113 81 191.5t210 78.5q32 0 77 -8l-11 -75q-32 7 -65 7q-90 0 -147.5 -57t-57.5 -132q0 -64 33 -100t90 -36q59 0 123 38z" />
    <glyph glyph-name="d" unicode="d" 
d="M478 682l-96 -682q-50 -14 -115 -14q-113 0 -174.5 54t-61.5 154q0 31 10 65t33 71t55.5 66t84 48t112.5 19h36l31 219h85zM306 58l46 334h-22q-98 0 -155 -59t-57 -137q0 -67 38.5 -103.5t110.5 -36.5q25 0 39 2z" />
    <glyph glyph-name="e" unicode="e" horiz-adv-x="438" 
d="M388 117l-12 -81q-68 -50 -150 -50q-85 0 -136.5 59.5t-51.5 157.5q0 110 61.5 185t151.5 75q77 0 123.5 -65t32.5 -165h-280q-15 -84 21 -130.5t94 -46.5q63 0 146 61zM140 292h188q0 45 -20.5 73t-60.5 28q-73 0 -107 -101z" />
    <glyph glyph-name="f" unicode="f" horiz-adv-x="271" 
d="M287 449l-11 -75h-91l-72 -563h-83l72 563h-72l11 75h71q7 109 61 175.5t155 66.5q49 0 109 -21l-12 -84q-45 25 -88 25q-62 0 -98 -41.5t-43 -120.5h91z" />
    <glyph glyph-name="g" unicode="g" horiz-adv-x="427" 
d="M445 449l-9 -66h-87q30 -43 30 -89q0 -119 -105 -163q-18 -8 -60.5 -15t-67.5 -16.5t-25 -28.5q0 -15 25.5 -24.5t61.5 -18t72 -21t61.5 -40.5t25.5 -69q0 -56 -52 -92t-131 -36q-85 0 -140 33t-55 83q0 64 129 91v2q-42 16 -60 34.5t-18 44.5q0 27 25 49.5t64 33.5
q-81 38 -81 129q0 76 49 127.5t118 51.5h230zM298 290q0 40 -22.5 65t-57.5 25t-62 -32t-27 -72t23 -65.5t58 -25.5q40 0 64 32t24 73zM286 -110q0 20 -28.5 37t-71.5 27q-48 -9 -82 -27t-34 -39q0 -25 32.5 -39.5t88.5 -14.5q43 0 69 15.5t26 40.5z" />
    <glyph glyph-name="h" unicode="h" 
d="M202 682l-43 -305l2 -2q76 88 156 88q58 0 84.5 -44.5t17.5 -112.5l-43 -306h-85l43 311q6 42 -8.5 65t-42.5 23q-58 0 -136 -107l-41 -292h-85l96 682h85z" />
    <glyph glyph-name="i" unicode="i" horiz-adv-x="188" 
d="M171 449l-63 -449h-85l63 449h85zM144 639q20 0 34.5 -14.5t14.5 -34.5t-14.5 -34.5t-34.5 -14.5t-34.5 14.5t-14.5 34.5t14.5 34.5t34.5 14.5z" />
    <glyph glyph-name="j" unicode="j" horiz-adv-x="188" 
d="M20 -67l66 516h85l-69 -540q-9 -72 -52 -105.5t-103 -33.5q-29 0 -50 9l11 75q50 -12 77.5 5.5t34.5 73.5zM192 590q0 -20 -14.5 -34.5t-34.5 -14.5t-34.5 14.5t-14.5 34.5t14.5 34.5t34.5 14.5t34.5 -14.5t14.5 -34.5z" />
    <glyph glyph-name="k" unicode="k" horiz-adv-x="458" 
d="M204 682l-61 -426l2 -2l188 195h108l-206 -212l220 -237h-108l-207 228l-32 -228h-84l95 682h85z" />
    <glyph glyph-name="l" unicode="l" horiz-adv-x="188" 
d="M204 682l-96 -682h-85l96 682h85z" />
    <glyph glyph-name="m" unicode="m" horiz-adv-x="740" 
d="M171 449l-12 -78l2 -2q77 87 155 87q35 0 64.5 -23t37.5 -78q82 101 168 101q53 0 84 -41.5t19 -123.5l-41 -291h-85l42 295q7 44 -5.5 69t-40.5 25q-62 0 -141 -104l-41 -285h-85l40 284q16 105 -50 105q-25 0 -62.5 -28.5t-72.5 -75.5l-40 -285h-85l64 449h85z" />
    <glyph glyph-name="n" unicode="n" 
d="M178 449l-11 -79l2 -2q72 88 149 88q65 0 91 -54t16 -119l-43 -283h-84l41 286q7 53 -9 76.5t-40 23.5q-58 0 -135 -100l-41 -286h-84l63 449h85z" />
    <glyph glyph-name="o" unicode="o" horiz-adv-x="448" 
d="M418 267q0 -124 -61.5 -202.5t-151.5 -78.5q-79 0 -124 53t-45 148q0 118 61.5 197t153.5 79q76 0 121.5 -53.5t45.5 -142.5zM123 178q0 -53 22.5 -86t56.5 -33q54 0 91.5 60.5t37.5 152.5q0 56 -21.5 90t-58.5 34q-54 0 -91 -65.5t-37 -152.5z" />
    <glyph glyph-name="p" unicode="p" horiz-adv-x="490" 
d="M209 563l-16 -114q22 9 37 11q18 3 39 3q80 0 133 -59.5t53 -149.5q0 -45 -15.5 -90t-46.5 -86t-85 -66.5t-124 -25.5h-56l-30 -216h-85l80 568q-19 -14 -36.5 -35t-26.5 -34t-12 -13q-4 0 -4 6q0 24 27 67t60 69l23 165h85zM184 386l-46 -328h41q91 0 140 60.5t49 135.5
q0 71 -37.5 108t-90.5 37q-28 0 -56 -13z" />
    <glyph glyph-name="q" unicode="q" 
d="M444 463l-97 -693h-85l34 243q-56 -27 -93 -27q-77 0 -124.5 56t-47.5 146q0 50 17 96.5t52.5 87.5t100 66t148.5 25h95zM305 76l44 317q-110 6 -170.5 -53t-60.5 -157q0 -58 32 -92.5t85 -34.5q27 0 70 20z" />
    <glyph glyph-name="r" unicode="r" horiz-adv-x="313" 
d="M185 449l-13 -85l2 -2q40 57 63.5 75.5t55.5 18.5q19 0 37 -7v-96q-27 15 -52 15q-33 0 -59.5 -25t-61.5 -90l-35 -253h-85l63 449h85z" />
    <glyph glyph-name="s" unicode="s" horiz-adv-x="354" 
d="M323 416v-89q-77 59 -135 59q-26 0 -43.5 -13.5t-17.5 -33.5q0 -17 18.5 -35t44.5 -35t52.5 -36.5t45 -49t18.5 -63.5q0 -60 -39.5 -97t-99.5 -37q-42 0 -75 12.5t-81 46.5l15 82q84 -67 138 -67q25 0 41.5 14t16.5 36q0 20 -18 39.5t-44 37t-52 37t-44 48t-18 62.5
q0 58 38.5 93.5t102.5 35.5q68 0 136 -47z" />
    <glyph glyph-name="t" unicode="t" horiz-adv-x="281" 
d="M285 449l-9 -66h-90l-43 -246q-7 -42 3 -58.5t41 -16.5q34 0 82 27l-5 -83q-48 -20 -93 -20q-64 0 -95 35.5t-22 89.5l47 272h-79l10 66h82l17 92h84l-16 -92h86z" />
    <glyph glyph-name="u" unicode="u" 
d="M436 449l-64 -449h-84l10 74l-2 2q-79 -83 -148 -83q-48 0 -82.5 38.5t-23.5 121.5l42 296h85l-42 -296q-7 -53 9 -74t39 -21q52 0 135 99l41 292h85z" />
    <glyph glyph-name="v" unicode="v" horiz-adv-x="375" 
d="M411 449l-231 -458h-42l-102 458h84l59 -285h2l144 285h86z" />
    <glyph glyph-name="w" unicode="w" horiz-adv-x="615" 
d="M647 449l-231 -458h-40l-58 294h-2l-152 -294h-39l-93 458h83l54 -302h2l146 302h42l56 -302h2l147 302h83z" />
    <glyph glyph-name="x" unicode="x" horiz-adv-x="427" 
d="M443 449l-181 -222l114 -227h-91l-82 168l-130 -168h-104l196 238l-106 211h91l71 -151l117 151h105z" />
    <glyph glyph-name="y" unicode="y" horiz-adv-x="375" 
d="M400 449l-322 -679h-90l122 257l-87 422h85l60 -309h2l141 309h89z" />
    <glyph glyph-name="z" unicode="z" horiz-adv-x="458" 
d="M447 449l-298 -374h261l-16 -75h-407l293 374h-227l10 75h384z" />
    <glyph glyph-name="braceleft" unicode="{" horiz-adv-x="333" 
d="M28 219v80q58 0 79.5 40t21.5 123v88q0 91 32 134.5t110 43.5h39v-76h-15q-52 0 -68.5 -19.5t-16.5 -81.5v-72q0 -101 -22 -148.5t-79 -71.5q57 -24 79 -71.5t22 -148.5v-72q0 -62 16.5 -81.5t68.5 -19.5h15v-76h-39q-78 0 -110 43.5t-32 134.5v88q0 83 -21.5 123
t-79.5 40z" />
    <glyph glyph-name="bar" unicode="|" horiz-adv-x="260" 
d="M108 -250v1000h76v-1000h-76z" />
    <glyph glyph-name="braceright" unicode="}" horiz-adv-x="333" 
d="M305 299v-80q-58 0 -79.5 -40t-21.5 -123v-88q0 -91 -32 -134.5t-110 -43.5h-39v76h15q52 0 68.5 19.5t16.5 81.5v72q0 101 22 148.5t79 71.5q-57 24 -79 71.5t-22 148.5v72q0 62 -16.5 81.5t-68.5 19.5h-15v76h39q78 0 110 -43.5t32 -134.5v-88q0 -83 21.5 -123
t79.5 -40z" />
    <glyph glyph-name="asciitilde" unicode="~" horiz-adv-x="584" 
d="M39 198v83q76 64 149 64q42 0 126 -38t120 -38q58 0 140 67v-83q-75 -64 -146 -64q-41 0 -125 38q-86 38 -122 38q-55 0 -142 -67z" />
    <glyph glyph-name="uni00A0" unicode="&#xa0;" horiz-adv-x="278" 
 />
    <glyph glyph-name="exclamdown" unicode="&#xa1;" horiz-adv-x="250" 
d="M120 295h37q-8 -70 -28 -414q-4 -61 -18.5 -86t-47.5 -25q-40 0 -40 59q0 23 13 86t40.5 182.5t43.5 197.5zM151 359q-24 0 -41 17t-17 41t17 41t41 17t41 -17t17 -41t-17 -41t-41 -17z" />
    <glyph glyph-name="cent" unicode="&#xa2;" horiz-adv-x="385" 
d="M394 454l-11 -74q-35 7 -63 7l-100 -325q76 -8 143 46l-13 -90q-28 -19 -75 -28t-78 1l-56 -179h-46l58 188q-125 46 -125 198q0 109 77 183.5t193 79.5l53 176h49l-55 -176q35 -3 49 -7zM177 74l96 309q-72 -15 -115 -65.5t-43 -119.5q0 -84 62 -124z" />
    <glyph glyph-name="sterling" unicode="&#xa3;" 
d="M506 679l-12 -84q-27 11 -51 11q-54 0 -98 -55t-86 -176h109l-24 -81h-110l-68 -200q26 2 28 2q23 0 70 -8.5t80 -8.5q56 0 113 27l-13 -93q-47 -22 -111 -22q-23 0 -82 8.5t-95 8.5q-65 0 -115 -16h-5l105 302h-88l24 81h89q57 167 123.5 241.5t152.5 74.5q28 0 64 -12z
" />
    <glyph glyph-name="currency" unicode="&#xa4;" horiz-adv-x="552" 
d="M463 226l67 -67l-57 -57l-67 67q-51 -35 -115 -35q-63 0 -115 35l-67 -67l-57 57l67 67q-35 50 -35 115q0 63 35 115l-67 67l57 57l67 -67q49 35 115 35q62 0 115 -35l67 67l57 -57l-67 -67q35 -48 35 -115q0 -66 -35 -115zM291 468q-53 0 -90 -37t-37 -90t37 -90t90 -37
t90 37t37 90t-37 90t-90 37z" />
    <glyph glyph-name="yen" unicode="&#xa5;" horiz-adv-x="552" 
d="M541 366l-14 -66h-198l-16 -74h199l-14 -66h-198l-34 -160h-88l33 160h-198l15 66h197l15 74h-199l14 66h167l-133 350h89l116 -339h6l232 339h110l-264 -350h163z" />
    <glyph glyph-name="brokenbar" unicode="&#xa6;" horiz-adv-x="260" 
d="M92 -175v350h76v-350h-76zM92 325v350h76v-350h-76z" />
    <glyph glyph-name="section" unicode="&#xa7;" horiz-adv-x="490" 
d="M461 544l-80 -29q11 21 11 41q0 29 -18.5 47t-47.5 18q-38 0 -66 -23.5t-28 -59.5q0 -29 22.5 -57t54.5 -54t64 -55t54.5 -70.5t22.5 -89.5q0 -50 -37.5 -96t-97.5 -70q51 -67 51 -121q0 -68 -50 -111.5t-129 -43.5q-67 0 -115 34t-47 109l77 43q-8 -54 13.5 -85
t71.5 -31q39 0 65.5 21t26.5 56q0 30 -24 61t-57.5 59t-67.5 58t-58 69.5t-24 82.5q0 58 41.5 103.5t107.5 59.5q-54 58 -54 118q0 72 53 117.5t137 45.5q69 0 104.5 -42t23.5 -105zM254 102q50 12 79.5 41t29.5 63q0 64 -99 144q-57 -2 -93 -30t-36 -70q0 -19 12.5 -40
t25.5 -34t41 -38t40 -36z" />
    <glyph glyph-name="dieresis" unicode="&#xa8;" horiz-adv-x="333" 
d="M309 639q19 0 32.5 -13.5t13.5 -32.5t-13.5 -32.5t-32.5 -13.5t-32.5 13.5t-13.5 32.5t13.5 32.5t32.5 13.5zM130 639q19 0 32.5 -13.5t13.5 -32.5t-13.5 -32.5t-32.5 -13.5t-32.5 13.5t-13.5 32.5t13.5 32.5t32.5 13.5z" />
    <glyph glyph-name="copyright" unicode="&#xa9;" horiz-adv-x="740" 
d="M488 300l60 -18q-15 -64 -63 -98.5t-119 -34.5q-87 0 -138 58t-51 158q0 91 54 146t143 55q64 0 107.5 -30t59.5 -85l-58 -14q-30 75 -114 75q-57 0 -91 -43t-34 -114q0 -70 33.5 -109.5t92.5 -39.5q43 0 75.5 25.5t42.5 68.5zM369 728q153 0 261 -107.5t108 -260.5
t-108 -261t-261 -108t-260.5 108t-107.5 261t107.5 260.5t260.5 107.5zM369 667q-127 0 -217 -89.5t-90 -217.5t90 -218t217 -90t217.5 90t90.5 218q0 127 -90 217t-218 90z" />
    <glyph glyph-name="ordfeminine" unicode="&#xaa;" horiz-adv-x="313" 
d="M327 682l-42 -270h-66l3 23q-36 -26 -70 -26q-43 0 -71.5 30.5t-28.5 75.5q0 79 55.5 127.5t145.5 48.5q38 0 74 -9zM231 493l23 149q-59 0 -96.5 -30t-37.5 -89q0 -30 14 -49.5t36 -19.5q26 0 61 39z" />
    <glyph glyph-name="guillemotleft" unicode="&#xab;" horiz-adv-x="438" 
d="M446 449l-173 -235l84 -214h-68l-88 224l168 225h77zM252 449l-173 -235l84 -214h-68l-88 224l168 225h77z" />
    <glyph glyph-name="logicalnot" unicode="&#xac;" horiz-adv-x="584" 
d="M543 126h-82v213h-391v82h473v-295z" />
    <glyph glyph-name="uni00AD" unicode="&#xad;" horiz-adv-x="250" 
d="M250 265l-12 -85h-238l12 85h238z" />
    <glyph glyph-name="registered" unicode="&#xae;" horiz-adv-x="740" 
d="M208 156v396h175q67 0 99 -32.5t32 -71.5q0 -48 -31.5 -79.5t-81.5 -34.5v-2q24 -8 44 -31t48 -68l48 -77h-78l-35 62q-37 67 -59 86.5t-59 19.5h-38v-168h-64zM272 379h92q82 0 82 60q0 27 -19.5 43t-51.5 16h-103v-119zM369 728q153 0 261 -107.5t108 -260.5t-108 -261
t-261 -108t-260.5 108t-107.5 261t107.5 260.5t260.5 107.5zM369 667q-127 0 -217 -89.5t-90 -217.5t90 -218t217 -90t217.5 90t90.5 218q0 127 -90 217t-218 90z" />
    <glyph glyph-name="macron" unicode="&#xaf;" horiz-adv-x="333" 
d="M378 635l-9 -64h-322l9 64h322z" />
    <glyph glyph-name="degree" unicode="&#xb0;" horiz-adv-x="396" 
d="M197 675q-35 0 -58.5 -23.5t-23.5 -58.5t24 -59t58 -24q35 0 59 24t24 59q0 34 -24 58t-59 24zM197 728q56 0 95.5 -39.5t39.5 -95.5t-39.5 -95.5t-95.5 -39.5t-95.5 39.5t-39.5 95.5t39.5 95.5t95.5 39.5z" />
    <glyph glyph-name="plusminus" unicode="&#xb1;" horiz-adv-x="584" 
d="M71 82h472v-82h-472v82zM266 589h82v-195h195v-82h-195v-195h-82v195h-195v82h195v195z" />
    <glyph glyph-name="twosuperior" unicode="&#xb2;" horiz-adv-x="323" 
d="M92 605l9 60q48 26 96 26q46 0 75 -23.5t29 -60.5t-33 -86t-122 -141h150l-7 -48h-259q209 217 209 267q0 41 -52 41q-42 0 -95 -35z" />
    <glyph glyph-name="threesuperior" unicode="&#xb3;" horiz-adv-x="323" 
d="M107 616l8 58q44 17 89 17q52 0 83 -25.5t31 -68.5q0 -57 -74 -83q50 -21 50 -79q0 -46 -41.5 -77t-103.5 -31q-50 0 -103 21l7 49q53 -22 94 -22q38 0 59.5 17t21.5 46q0 54 -75 54l7 45q87 9 87 61q0 20 -15 32.5t-40 12.5q-41 0 -85 -27z" />
    <glyph glyph-name="acute" unicode="&#xb4;" horiz-adv-x="333" 
d="M226 670h101l-113 -146h-56z" />
    <glyph glyph-name="mu" unicode="&#xb5;" horiz-adv-x="552" 
d="M135 449h85l-58 -276q-12 -57 9.5 -90t66.5 -33q101 0 127 124l57 275h85l-93 -449h-77l4 32q-23 -19 -34 -25q-35 -21 -76 -21q-59 0 -97 54l-43 -213h-84z" />
    <glyph glyph-name="paragraph" unicode="&#xb6;" horiz-adv-x="542" 
d="M218 -199v510q-92 5 -144.5 59.5t-52.5 143.5q0 97 60 149.5t170 52.5h309v-81h-71v-834h-81v834h-109v-834h-81z" />
    <glyph glyph-name="periodcentered" unicode="&#xb7;" horiz-adv-x="260" 
d="M151 406q25 0 42.5 -17.5t17.5 -42.5t-17.5 -43t-42.5 -18t-43 18t-18 43t18 42.5t43 17.5z" />
    <glyph glyph-name="cedilla" unicode="&#xb8;" horiz-adv-x="333" 
d="M180 7l-9 -24q46 -21 46 -68q0 -37 -30.5 -61.5t-75.5 -24.5q-33 0 -68 7l12 46q28 -7 42 -7q22 0 34.5 10.5t12.5 27.5q0 21 -27 35l28 59h35z" />
    <glyph glyph-name="onesuperior" unicode="&#xb9;" horiz-adv-x="323" 
d="M265 691l-66 -359h-64l65 359h65z" />
    <glyph glyph-name="ordmasculine" unicode="&#xba;" horiz-adv-x="302" 
d="M316 571q0 -73 -40 -120t-102 -47q-53 0 -83.5 32t-30.5 90q0 70 41 117.5t103 47.5q52 0 82 -32.5t30 -87.5zM249 574q0 71 -45 71q-34 0 -55.5 -36.5t-21.5 -96.5q0 -26 13.5 -44t32.5 -18q31 0 53.5 36.5t22.5 87.5z" />
    <glyph glyph-name="guillemotright" unicode="&#xbb;" horiz-adv-x="438" 
d="M170 0l173 235l-84 214h68l88 -224l-168 -225h-77zM-26 0l173 235l-84 214h68l88 -224l-168 -225h-77z" />
    <glyph glyph-name="onequarter" unicode="&#xbc;" horiz-adv-x="844" 
d="M665 360l-37 -209h58l-6 -43h-60l-20 -108h-63l21 108h-151v23l217 229h41zM580 242l-86 -91h72l16 89zM263 691l-66 -359h-64l65 359h65zM664 691l-542 -718h-69l543 718h68z" />
    <glyph glyph-name="onehalf" unicode="&#xbd;" horiz-adv-x="844" 
d="M263 691l-66 -359h-64l65 359h65zM664 691l-542 -718h-69l543 718h68zM506 273l9 60q48 26 96 26q46 0 75 -23.5t29 -60.5t-33 -86t-122 -141h150l-7 -48h-259q209 217 209 267q0 41 -52 41q-42 0 -95 -35z" />
    <glyph glyph-name="threequarters" unicode="&#xbe;" horiz-adv-x="844" 
d="M135 616l8 58q44 17 89 17q52 0 83 -25.5t31 -68.5q0 -57 -74 -83q50 -21 50 -79q0 -46 -41.5 -77t-103.5 -31q-50 0 -103 21l7 49q53 -22 94 -22q38 0 59.5 17t21.5 46q0 54 -75 54l7 45q87 9 87 61q0 20 -15 32.5t-40 12.5q-41 0 -85 -27zM730 691l-542 -718h-69
l543 718h68zM731 360l-37 -209h58l-6 -43h-60l-20 -108h-63l21 108h-151v23l217 229h41zM646 242l-86 -91h72l16 89z" />
    <glyph glyph-name="questiondown" unicode="&#xbf;" horiz-adv-x="354" 
d="M271 -93l-14 -99q-61 -38 -112 -38q-66 0 -106 42t-40 112q0 40 18.5 75.5t46 65t56 60.5t52 75t30.5 95h55q0 -59 -17.5 -110t-43 -85.5t-50.5 -64t-42.5 -57t-17.5 -52.5q0 -33 20 -54t54 -21q50 0 111 56zM241 359q-24 0 -41 17t-17 41t17 41t41 17t41 -17t17 -41
t-17 -41t-41 -17z" />
    <glyph glyph-name="Agrave" unicode="&#xc0;" horiz-adv-x="521" 
d="M352 686l133 -686h-84l-41 214h-214l-90 -214h-91l301 686h86zM292 566l-116 -280h170l-52 280h-2zM313 888l68 -146h-56l-113 146h101z" />
    <glyph glyph-name="Aacute" unicode="&#xc1;" horiz-adv-x="521" 
d="M352 686l133 -686h-84l-41 214h-214l-90 -214h-91l301 686h86zM292 566l-116 -280h170l-52 280h-2zM338 888h101l-113 -146h-56z" />
    <glyph glyph-name="Acircumflex" unicode="&#xc2;" horiz-adv-x="521" 
d="M352 686l133 -686h-84l-41 214h-214l-90 -214h-91l301 686h86zM292 566l-116 -280h170l-52 280h-2zM400 888l75 -148h-41l-83 99l-134 -99h-47l131 148h99z" />
    <glyph glyph-name="Atilde" unicode="&#xc3;" horiz-adv-x="521" 
d="M352 686l133 -686h-84l-41 214h-214l-90 -214h-91l301 686h86zM292 566l-116 -280h170l-52 280h-2zM440 870h39q0 -47 -22 -80.5t-60 -33.5q-13 0 -67 19t-71 19q-14 0 -23 -10t-11 -27h-40q1 53 22.5 83.5t58.5 30.5q19 0 71 -19t69 -19q29 0 34 37z" />
    <glyph glyph-name="Adieresis" unicode="&#xc4;" horiz-adv-x="521" 
d="M352 686l133 -686h-84l-41 214h-214l-90 -214h-91l301 686h86zM292 566l-116 -280h170l-52 280h-2zM421 857q19 0 32.5 -13.5t13.5 -32.5t-13.5 -32.5t-32.5 -13.5t-32.5 13.5t-13.5 32.5t13.5 32.5t32.5 13.5zM242 857q19 0 32.5 -13.5t13.5 -32.5t-13.5 -32.5
t-32.5 -13.5t-32.5 13.5t-13.5 32.5t13.5 32.5t32.5 13.5z" />
    <glyph glyph-name="Aring" unicode="&#xc5;" horiz-adv-x="521" 
d="M352 686l133 -686h-84l-41 214h-214l-90 -214h-91l301 686h86zM292 566l-116 -280h170l-52 280h-2zM331 909q39 0 66.5 -27.5t27.5 -66.5t-27.5 -66.5t-66.5 -27.5t-66.5 27.5t-27.5 66.5t27.5 66.5t66.5 27.5zM331 868q-23 0 -39 -16t-16 -39t16 -39t39 -16t39 16t16 39
t-16 39t-39 16z" />
    <glyph glyph-name="AE" unicode="&#xc6;" horiz-adv-x="833" 
d="M801 682l-11 -81h-261l-30 -211h245l-11 -81h-245l-32 -228h356l-11 -81h-446l43 309h-152l-170 -309h-97l389 682h433zM440 607h-31l-124 -226h123z" />
    <glyph glyph-name="Ccedilla" unicode="&#xc7;" horiz-adv-x="552" 
d="M529 161l-15 -110q-107 -61 -213 -60l-5 -13q46 -21 46 -68q0 -37 -30.5 -61.5t-75.5 -24.5q-33 0 -68 7l12 46q28 -7 42 -7q22 0 34.5 10.5t12.5 27.5q0 21 -27 35l25 52q-99 16 -158.5 92t-59.5 188q0 182 126.5 299t339.5 117h65l-18 -86h-50q-81 0 -146 -21.5
t-105.5 -55t-67 -77.5t-37 -86t-10.5 -84q0 -93 48.5 -148.5t130.5 -55.5q43 0 100.5 23.5t103.5 60.5z" />
    <glyph glyph-name="Egrave" unicode="&#xc8;" horiz-adv-x="510" 
d="M498 682l-11 -81h-273l-30 -214h241l-11 -81h-242l-33 -225h359l-12 -81h-448l99 682h361zM319 888l68 -146h-56l-113 146h101z" />
    <glyph glyph-name="Eacute" unicode="&#xc9;" horiz-adv-x="510" 
d="M498 682l-11 -81h-273l-30 -214h241l-11 -81h-242l-33 -225h359l-12 -81h-448l99 682h361zM344 888h101l-113 -146h-56z" />
    <glyph glyph-name="Ecircumflex" unicode="&#xca;" horiz-adv-x="510" 
d="M498 682l-11 -81h-273l-30 -214h241l-11 -81h-242l-33 -225h359l-12 -81h-448l99 682h361zM406 888l75 -148h-41l-83 99l-134 -99h-47l131 148h99z" />
    <glyph glyph-name="Edieresis" unicode="&#xcb;" horiz-adv-x="510" 
d="M498 682l-11 -81h-273l-30 -214h241l-11 -81h-242l-33 -225h359l-12 -81h-448l99 682h361zM427 857q19 0 32.5 -13.5t13.5 -32.5t-13.5 -32.5t-32.5 -13.5t-32.5 13.5t-13.5 32.5t13.5 32.5t32.5 13.5zM248 857q19 0 32.5 -13.5t13.5 -32.5t-13.5 -32.5t-32.5 -13.5
t-32.5 13.5t-13.5 32.5t13.5 32.5t32.5 13.5z" />
    <glyph glyph-name="Igrave" unicode="&#xcc;" horiz-adv-x="240" 
d="M229 682l-96 -682h-94l96 682h94zM183 888l68 -146h-56l-113 146h101z" />
    <glyph glyph-name="Iacute" unicode="&#xcd;" horiz-adv-x="240" 
d="M229 682l-96 -682h-94l96 682h94zM208 888h101l-113 -146h-56z" />
    <glyph glyph-name="Icircumflex" unicode="&#xce;" horiz-adv-x="240" 
d="M229 682l-96 -682h-94l96 682h94zM270 888l75 -148h-41l-83 99l-134 -99h-47l131 148h99z" />
    <glyph glyph-name="Idieresis" unicode="&#xcf;" horiz-adv-x="240" 
d="M229 682l-96 -682h-94l96 682h94zM291 857q19 0 32.5 -13.5t13.5 -32.5t-13.5 -32.5t-32.5 -13.5t-32.5 13.5t-13.5 32.5t13.5 32.5t32.5 13.5zM112 857q19 0 32.5 -13.5t13.5 -32.5t-13.5 -32.5t-32.5 -13.5t-32.5 13.5t-13.5 32.5t13.5 32.5t32.5 13.5z" />
    <glyph glyph-name="Eth" unicode="&#xd0;" horiz-adv-x="656" 
d="M216 601l-31 -219h156l-11 -81h-156l-31 -220h82q93 0 141.5 14.5t83.5 49.5q31 31 50.5 83t19.5 115q0 131 -79 194.5t-225 63.5zM136 682h81q207 0 316 -109q84 -84 84 -233q0 -69 -20 -129t-61 -108t-110.5 -75.5t-160.5 -27.5h-226l43 301h-79l12 81h78z" />
    <glyph glyph-name="Ntilde" unicode="&#xd1;" horiz-adv-x="688" 
d="M678 682l-96 -682h-49l-339 498l-70 -498h-85l96 682h46l341 -502l71 502h85zM535 870h39q0 -47 -22 -80.5t-60 -33.5q-13 0 -67 19t-71 19q-14 0 -23 -10t-11 -27h-40q1 53 22.5 83.5t58.5 30.5q19 0 71 -19t69 -19q29 0 34 37z" />
    <glyph glyph-name="Ograve" unicode="&#xd2;" horiz-adv-x="656" 
d="M623 405q0 -180 -97 -297t-232 -117q-107 0 -175 80.5t-68 207.5q0 69 21.5 140t61.5 132.5t105 100.5t143 39q108 0 174.5 -79t66.5 -207zM531 421q0 89 -40.5 138.5t-109.5 49.5q-76 0 -132 -56.5t-81 -132.5t-25 -154q0 -90 41.5 -141.5t111.5 -51.5q96 0 165.5 102
t69.5 246zM392 888l68 -146h-56l-113 146h101z" />
    <glyph glyph-name="Oacute" unicode="&#xd3;" horiz-adv-x="656" 
d="M623 405q0 -180 -97 -297t-232 -117q-107 0 -175 80.5t-68 207.5q0 69 21.5 140t61.5 132.5t105 100.5t143 39q108 0 174.5 -79t66.5 -207zM531 421q0 89 -40.5 138.5t-109.5 49.5q-76 0 -132 -56.5t-81 -132.5t-25 -154q0 -90 41.5 -141.5t111.5 -51.5q96 0 165.5 102
t69.5 246zM417 888h101l-113 -146h-56z" />
    <glyph glyph-name="Ocircumflex" unicode="&#xd4;" horiz-adv-x="656" 
d="M623 405q0 -180 -97 -297t-232 -117q-107 0 -175 80.5t-68 207.5q0 69 21.5 140t61.5 132.5t105 100.5t143 39q108 0 174.5 -79t66.5 -207zM531 421q0 89 -40.5 138.5t-109.5 49.5q-76 0 -132 -56.5t-81 -132.5t-25 -154q0 -90 41.5 -141.5t111.5 -51.5q96 0 165.5 102
t69.5 246zM479 888l75 -148h-41l-83 99l-134 -99h-47l131 148h99z" />
    <glyph glyph-name="Otilde" unicode="&#xd5;" horiz-adv-x="656" 
d="M623 405q0 -180 -97 -297t-232 -117q-107 0 -175 80.5t-68 207.5q0 69 21.5 140t61.5 132.5t105 100.5t143 39q108 0 174.5 -79t66.5 -207zM531 421q0 89 -40.5 138.5t-109.5 49.5q-76 0 -132 -56.5t-81 -132.5t-25 -154q0 -90 41.5 -141.5t111.5 -51.5q96 0 165.5 102
t69.5 246zM519 870h39q0 -47 -22 -80.5t-60 -33.5q-13 0 -67 19t-71 19q-14 0 -23 -10t-11 -27h-40q1 53 22.5 83.5t58.5 30.5q19 0 71 -19t69 -19q29 0 34 37z" />
    <glyph glyph-name="Odieresis" unicode="&#xd6;" horiz-adv-x="656" 
d="M623 405q0 -180 -97 -297t-232 -117q-107 0 -175 80.5t-68 207.5q0 69 21.5 140t61.5 132.5t105 100.5t143 39q108 0 174.5 -79t66.5 -207zM531 421q0 89 -40.5 138.5t-109.5 49.5q-76 0 -132 -56.5t-81 -132.5t-25 -154q0 -90 41.5 -141.5t111.5 -51.5q96 0 165.5 102
t69.5 246zM500 857q19 0 32.5 -13.5t13.5 -32.5t-13.5 -32.5t-32.5 -13.5t-32.5 13.5t-13.5 32.5t13.5 32.5t32.5 13.5zM321 857q19 0 32.5 -13.5t13.5 -32.5t-13.5 -32.5t-32.5 -13.5t-32.5 13.5t-13.5 32.5t13.5 32.5t32.5 13.5z" />
    <glyph glyph-name="multiply" unicode="&#xd7;" horiz-adv-x="584" 
d="M94 200l154 154l-154 154l59 59l154 -154l153 153l59 -59l-153 -153l153 -153l-59 -59l-153 153l-154 -154z" />
    <glyph glyph-name="Oslash" unicode="&#xd8;" horiz-adv-x="656" 
d="M521 500l-326 -388q36 -39 101 -39q96 0 165.5 102t69.5 246q0 39 -10 79zM548 622l65 78l38 -45l-68 -81q40 -66 40 -169q0 -180 -97 -297t-232 -117q-90 0 -152 57l-75 -89l-38 41l75 90q-53 78 -53 189q0 69 21.5 140t61.5 132.5t105 100.5t143 39q97 0 166 -69z
M163 161l330 395q-37 53 -112 53q-76 0 -132 -56.5t-81 -132.5t-25 -154q0 -52 20 -105z" />
    <glyph glyph-name="Ugrave" unicode="&#xd9;" horiz-adv-x="635" 
d="M637 682l-59 -421q-19 -136 -93 -203t-191 -67q-118 0 -182.5 69.5t-48.5 182.5l62 439h90l-63 -446q-11 -78 32.5 -120.5t114.5 -42.5q80 0 131 51q25 25 37 62t21 104l55 392h94zM381 888l68 -146h-56l-113 146h101z" />
    <glyph glyph-name="Uacute" unicode="&#xda;" horiz-adv-x="635" 
d="M637 682l-59 -421q-19 -136 -93 -203t-191 -67q-118 0 -182.5 69.5t-48.5 182.5l62 439h90l-63 -446q-11 -78 32.5 -120.5t114.5 -42.5q80 0 131 51q25 25 37 62t21 104l55 392h94zM406 888h101l-113 -146h-56z" />
    <glyph glyph-name="Ucircumflex" unicode="&#xdb;" horiz-adv-x="635" 
d="M637 682l-59 -421q-19 -136 -93 -203t-191 -67q-118 0 -182.5 69.5t-48.5 182.5l62 439h90l-63 -446q-11 -78 32.5 -120.5t114.5 -42.5q80 0 131 51q25 25 37 62t21 104l55 392h94zM468 888l75 -148h-41l-83 99l-134 -99h-47l131 148h99z" />
    <glyph glyph-name="Udieresis" unicode="&#xdc;" horiz-adv-x="635" 
d="M637 682l-59 -421q-19 -136 -93 -203t-191 -67q-118 0 -182.5 69.5t-48.5 182.5l62 439h90l-63 -446q-11 -78 32.5 -120.5t114.5 -42.5q80 0 131 51q25 25 37 62t21 104l55 392h94zM489 857q19 0 32.5 -13.5t13.5 -32.5t-13.5 -32.5t-32.5 -13.5t-32.5 13.5t-13.5 32.5
t13.5 32.5t32.5 13.5zM310 857q19 0 32.5 -13.5t13.5 -32.5t-13.5 -32.5t-32.5 -13.5t-32.5 13.5t-13.5 32.5t13.5 32.5t32.5 13.5z" />
    <glyph glyph-name="Yacute" unicode="&#xdd;" horiz-adv-x="490" 
d="M557 682l-239 -342l-48 -340h-90l48 340l-160 342h95l116 -250l174 250h104zM334 888h101l-113 -146h-56z" />
    <glyph glyph-name="Thorn" unicode="&#xde;" horiz-adv-x="448" 
d="M123 682h93l-20 -144h24q43 0 79.5 -9t70 -29.5t52.5 -60t19 -94.5q0 -31 -11.5 -64t-35 -64.5t-68.5 -52t-103 -20.5h-82l-20 -144h-94zM185 457l-32 -232h66q65 0 98 37t33 86q0 46 -30.5 77.5t-94.5 31.5h-40z" />
    <glyph glyph-name="germandbls" unicode="&#xdf;" horiz-adv-x="500" 
d="M41 0l63 449q35 242 201 242q73 0 119.5 -45.5t46.5 -116.5q0 -51 -31 -91t-80 -52v-2q47 -19 69.5 -65.5t22.5 -94.5q0 -97 -57.5 -167.5t-137.5 -70.5q-32 0 -53 14l9 64q16 -4 34 -4q54 0 87 47t33 124q0 121 -112 133l8 58q59 -6 95.5 26t36.5 80q0 44 -24.5 71.5
t-63.5 27.5q-50 0 -77 -38.5t-40 -129.5l-64 -459h-85z" />
    <glyph glyph-name="agrave" unicode="&#xe0;" 
d="M446 449l-63 -449h-85l8 52l-2 2q-58 -63 -121 -63q-62 0 -105 52t-43 126q0 56 17.5 106.5t52.5 93.5t95.5 68.5t139.5 25.5q62 0 106 -14zM316 130l37 259q-68 6 -117 -16t-72 -59t-32.5 -69.5t-9.5 -60.5q0 -54 25 -88.5t64 -34.5q24 0 54 20.5t51 48.5zM289 670
l68 -146h-56l-113 146h101z" />
    <glyph glyph-name="aacute" unicode="&#xe1;" 
d="M446 449l-63 -449h-85l8 52l-2 2q-58 -63 -121 -63q-62 0 -105 52t-43 126q0 56 17.5 106.5t52.5 93.5t95.5 68.5t139.5 25.5q62 0 106 -14zM316 130l37 259q-68 6 -117 -16t-72 -59t-32.5 -69.5t-9.5 -60.5q0 -54 25 -88.5t64 -34.5q24 0 54 20.5t51 48.5zM294 670h101
l-113 -146h-56z" />
    <glyph glyph-name="acircumflex" unicode="&#xe2;" 
d="M446 449l-63 -449h-85l8 52l-2 2q-58 -63 -121 -63q-62 0 -105 52t-43 126q0 56 17.5 106.5t52.5 93.5t95.5 68.5t139.5 25.5q62 0 106 -14zM316 130l37 259q-68 6 -117 -16t-72 -59t-32.5 -69.5t-9.5 -60.5q0 -54 25 -88.5t64 -34.5q24 0 54 20.5t51 48.5zM376 670
l75 -148h-41l-83 99l-134 -99h-47l131 148h99z" />
    <glyph glyph-name="atilde" unicode="&#xe3;" 
d="M446 449l-63 -449h-85l8 52l-2 2q-58 -63 -121 -63q-62 0 -105 52t-43 126q0 56 17.5 106.5t52.5 93.5t95.5 68.5t139.5 25.5q62 0 106 -14zM316 130l37 259q-68 6 -117 -16t-72 -59t-32.5 -69.5t-9.5 -60.5q0 -54 25 -88.5t64 -34.5q24 0 54 20.5t51 48.5zM396 652h39
q0 -47 -22 -80.5t-60 -33.5q-13 0 -67 19t-71 19q-14 0 -23 -10t-11 -27h-40q1 53 22.5 83.5t58.5 30.5q19 0 71 -19t69 -19q29 0 34 37z" />
    <glyph glyph-name="adieresis" unicode="&#xe4;" 
d="M446 449l-63 -449h-85l8 52l-2 2q-58 -63 -121 -63q-62 0 -105 52t-43 126q0 56 17.5 106.5t52.5 93.5t95.5 68.5t139.5 25.5q62 0 106 -14zM316 130l37 259q-68 6 -117 -16t-72 -59t-32.5 -69.5t-9.5 -60.5q0 -54 25 -88.5t64 -34.5q24 0 54 20.5t51 48.5zM397 639
q19 0 32.5 -13.5t13.5 -32.5t-13.5 -32.5t-32.5 -13.5t-32.5 13.5t-13.5 32.5t13.5 32.5t32.5 13.5zM218 639q19 0 32.5 -13.5t13.5 -32.5t-13.5 -32.5t-32.5 -13.5t-32.5 13.5t-13.5 32.5t13.5 32.5t32.5 13.5z" />
    <glyph glyph-name="aring" unicode="&#xe5;" 
d="M446 449l-63 -449h-85l8 52l-2 2q-58 -63 -121 -63q-62 0 -105 52t-43 126q0 56 17.5 106.5t52.5 93.5t95.5 68.5t139.5 25.5q62 0 106 -14zM316 130l37 259q-68 6 -117 -16t-72 -59t-32.5 -69.5t-9.5 -60.5q0 -54 25 -88.5t64 -34.5q24 0 54 20.5t51 48.5zM307 691
q39 0 66.5 -27.5t27.5 -66.5t-27.5 -66.5t-66.5 -27.5t-66.5 27.5t-27.5 66.5t27.5 66.5t66.5 27.5zM307 650q-23 0 -39 -16t-16 -39t16 -39t39 -16t39 16t16 39t-16 39t-39 16z" />
    <glyph glyph-name="ae" unicode="&#xe6;" horiz-adv-x="646" 
d="M588 119l-12 -87q-73 -46 -146 -46q-104 0 -152 85q-37 -42 -77.5 -63.5t-73.5 -21.5q-52 0 -83.5 29t-31.5 78q0 123 249 168q17 58 2 93t-55 35q-30 0 -70.5 -22.5t-77.5 -60.5l14 96q76 61 150 61q68 0 100 -61q26 28 63.5 44.5t75.5 16.5q77 0 120 -75t26 -173h-267
q-18 -77 13.5 -118t86.5 -41q65 0 146 63zM350 274h182q1 21 -4 45.5t-25.5 49t-54.5 24.5q-37 0 -65.5 -30.5t-32.5 -88.5zM241 106l13 93q-71 -14 -113 -41t-42 -61q0 -18 12.5 -29.5t32.5 -11.5q44 0 97 50z" />
    <glyph glyph-name="ccedilla" unicode="&#xe7;" horiz-adv-x="385" 
d="M357 100l-10 -82q-60 -32 -131 -32l-5 -13q46 -21 46 -68q0 -37 -30.5 -61.5t-75.5 -24.5q-33 0 -68 7l12 46q28 -7 42 -7q22 0 34.5 10.5t12.5 27.5q0 21 -27 35l25 52q-74 11 -116 65t-42 138q0 113 81 191.5t210 78.5q32 0 77 -8l-11 -75q-32 7 -65 7
q-90 0 -147.5 -57t-57.5 -132q0 -64 33 -100t90 -36q59 0 123 38z" />
    <glyph glyph-name="egrave" unicode="&#xe8;" horiz-adv-x="438" 
d="M388 117l-12 -81q-68 -50 -150 -50q-85 0 -136.5 59.5t-51.5 157.5q0 110 61.5 185t151.5 75q77 0 123.5 -65t32.5 -165h-280q-15 -84 21 -130.5t94 -46.5q63 0 146 61zM140 292h188q0 45 -20.5 73t-60.5 28q-73 0 -107 -101zM254 670l68 -146h-56l-113 146h101z" />
    <glyph glyph-name="eacute" unicode="&#xe9;" horiz-adv-x="438" 
d="M388 117l-12 -81q-68 -50 -150 -50q-85 0 -136.5 59.5t-51.5 157.5q0 110 61.5 185t151.5 75q77 0 123.5 -65t32.5 -165h-280q-15 -84 21 -130.5t94 -46.5q63 0 146 61zM140 292h188q0 45 -20.5 73t-60.5 28q-73 0 -107 -101zM279 670h101l-113 -146h-56z" />
    <glyph glyph-name="ecircumflex" unicode="&#xea;" horiz-adv-x="438" 
d="M388 117l-12 -81q-68 -50 -150 -50q-85 0 -136.5 59.5t-51.5 157.5q0 110 61.5 185t151.5 75q77 0 123.5 -65t32.5 -165h-280q-15 -84 21 -130.5t94 -46.5q63 0 146 61zM140 292h188q0 45 -20.5 73t-60.5 28q-73 0 -107 -101zM341 670l75 -148h-41l-83 99l-134 -99h-47
l131 148h99z" />
    <glyph glyph-name="edieresis" unicode="&#xeb;" horiz-adv-x="438" 
d="M388 117l-12 -81q-68 -50 -150 -50q-85 0 -136.5 59.5t-51.5 157.5q0 110 61.5 185t151.5 75q77 0 123.5 -65t32.5 -165h-280q-15 -84 21 -130.5t94 -46.5q63 0 146 61zM140 292h188q0 45 -20.5 73t-60.5 28q-73 0 -107 -101zM362 639q19 0 32.5 -13.5t13.5 -32.5
t-13.5 -32.5t-32.5 -13.5t-32.5 13.5t-13.5 32.5t13.5 32.5t32.5 13.5zM183 639q19 0 32.5 -13.5t13.5 -32.5t-13.5 -32.5t-32.5 -13.5t-32.5 13.5t-13.5 32.5t13.5 32.5t32.5 13.5z" />
    <glyph glyph-name="igrave" unicode="&#xec;" horiz-adv-x="188" 
d="M171 449l-63 -449h-85l63 449h85zM129 670l68 -146h-56l-113 146h101z" />
    <glyph glyph-name="iacute" unicode="&#xed;" horiz-adv-x="188" 
d="M171 449l-63 -449h-85l63 449h85zM154 670h101l-113 -146h-56z" />
    <glyph glyph-name="icircumflex" unicode="&#xee;" horiz-adv-x="188" 
d="M171 449l-63 -449h-85l63 449h85zM216 670l75 -148h-41l-83 99l-134 -99h-47l131 148h99z" />
    <glyph glyph-name="idieresis" unicode="&#xef;" horiz-adv-x="188" 
d="M171 449l-63 -449h-85l63 449h85zM237 639q19 0 32.5 -13.5t13.5 -32.5t-13.5 -32.5t-32.5 -13.5t-32.5 13.5t-13.5 32.5t13.5 32.5t32.5 13.5zM58 639q19 0 32.5 -13.5t13.5 -32.5t-13.5 -32.5t-32.5 -13.5t-32.5 13.5t-13.5 32.5t13.5 32.5t32.5 13.5z" />
    <glyph glyph-name="eth" unicode="&#xf0;" horiz-adv-x="448" 
d="M343 269q0 127 -93 127q-54 0 -91 -67t-37 -154q0 -48 23 -85t56 -37q56 0 99 70t43 146zM437 652l-89 -47q40 -60 61.5 -136.5t21.5 -143.5q0 -143 -65 -241t-167 -98q-76 0 -119.5 54t-43.5 148q0 115 62 195t151 80q51 0 83 -30l2 2q-12 65 -58 132l-91 -49l-25 40
l86 45q-17 20 -35 32l52 56q31 -19 57 -49l93 49z" />
    <glyph glyph-name="ntilde" unicode="&#xf1;" 
d="M178 449l-11 -79l2 -2q72 88 149 88q65 0 91 -54t16 -119l-43 -283h-84l41 286q7 53 -9 76.5t-40 23.5q-58 0 -135 -100l-41 -286h-84l63 449h85zM396 652h39q0 -47 -22 -80.5t-60 -33.5q-13 0 -67 19t-71 19q-14 0 -23 -10t-11 -27h-40q1 53 22.5 83.5t58.5 30.5
q19 0 71 -19t69 -19q29 0 34 37z" />
    <glyph glyph-name="ograve" unicode="&#xf2;" horiz-adv-x="448" 
d="M418 267q0 -124 -61.5 -202.5t-151.5 -78.5q-79 0 -124 53t-45 148q0 118 61.5 197t153.5 79q76 0 121.5 -53.5t45.5 -142.5zM123 178q0 -53 22.5 -86t56.5 -33q54 0 91.5 60.5t37.5 152.5q0 56 -21.5 90t-58.5 34q-54 0 -91 -65.5t-37 -152.5zM259 670l68 -146h-56
l-113 146h101z" />
    <glyph glyph-name="oacute" unicode="&#xf3;" horiz-adv-x="448" 
d="M418 267q0 -124 -61.5 -202.5t-151.5 -78.5q-79 0 -124 53t-45 148q0 118 61.5 197t153.5 79q76 0 121.5 -53.5t45.5 -142.5zM123 178q0 -53 22.5 -86t56.5 -33q54 0 91.5 60.5t37.5 152.5q0 56 -21.5 90t-58.5 34q-54 0 -91 -65.5t-37 -152.5zM284 670h101l-113 -146
h-56z" />
    <glyph glyph-name="ocircumflex" unicode="&#xf4;" horiz-adv-x="448" 
d="M418 267q0 -124 -61.5 -202.5t-151.5 -78.5q-79 0 -124 53t-45 148q0 118 61.5 197t153.5 79q76 0 121.5 -53.5t45.5 -142.5zM123 178q0 -53 22.5 -86t56.5 -33q54 0 91.5 60.5t37.5 152.5q0 56 -21.5 90t-58.5 34q-54 0 -91 -65.5t-37 -152.5zM346 670l75 -148h-41
l-83 99l-134 -99h-47l131 148h99z" />
    <glyph glyph-name="otilde" unicode="&#xf5;" horiz-adv-x="448" 
d="M418 267q0 -124 -61.5 -202.5t-151.5 -78.5q-79 0 -124 53t-45 148q0 118 61.5 197t153.5 79q76 0 121.5 -53.5t45.5 -142.5zM123 178q0 -53 22.5 -86t56.5 -33q54 0 91.5 60.5t37.5 152.5q0 56 -21.5 90t-58.5 34q-54 0 -91 -65.5t-37 -152.5zM386 652h39
q0 -47 -22 -80.5t-60 -33.5q-13 0 -67 19t-71 19q-14 0 -23 -10t-11 -27h-40q1 53 22.5 83.5t58.5 30.5q19 0 71 -19t69 -19q29 0 34 37z" />
    <glyph glyph-name="odieresis" unicode="&#xf6;" horiz-adv-x="448" 
d="M418 267q0 -124 -61.5 -202.5t-151.5 -78.5q-79 0 -124 53t-45 148q0 118 61.5 197t153.5 79q76 0 121.5 -53.5t45.5 -142.5zM123 178q0 -53 22.5 -86t56.5 -33q54 0 91.5 60.5t37.5 152.5q0 56 -21.5 90t-58.5 34q-54 0 -91 -65.5t-37 -152.5zM367 639q19 0 32.5 -13.5
t13.5 -32.5t-13.5 -32.5t-32.5 -13.5t-32.5 13.5t-13.5 32.5t13.5 32.5t32.5 13.5zM188 639q19 0 32.5 -13.5t13.5 -32.5t-13.5 -32.5t-32.5 -13.5t-32.5 13.5t-13.5 32.5t13.5 32.5t32.5 13.5z" />
    <glyph glyph-name="divide" unicode="&#xf7;" horiz-adv-x="584" 
d="M71 394h472v-82h-472v82zM307 259q22 0 37.5 -15.5t15.5 -37.5t-15.5 -37.5t-37.5 -15.5t-37.5 15.5t-15.5 37.5t15.5 37.5t37.5 15.5zM307 553q22 0 37.5 -15.5t15.5 -37.5t-15.5 -37.5t-37.5 -15.5t-37.5 15.5t-15.5 37.5t15.5 37.5t37.5 15.5z" />
    <glyph glyph-name="oslash" unicode="&#xf8;" horiz-adv-x="448" 
d="M127 143l184 214q-22 39 -60 39q-54 0 -91 -65.5t-37 -152.5q0 -20 4 -35zM430 429l-39 -46q27 -49 27 -116q0 -124 -61.5 -202.5t-151.5 -78.5q-73 0 -116 45l-41 -47l-30 33l44 51q-26 49 -26 119q0 118 61.5 197t153.5 79q70 0 113 -45l37 43zM328 309l-184 -214
q22 -36 58 -36q54 0 91.5 60.5t37.5 152.5q0 20 -3 37z" />
    <glyph glyph-name="ugrave" unicode="&#xf9;" 
d="M436 449l-64 -449h-84l10 74l-2 2q-79 -83 -148 -83q-48 0 -82.5 38.5t-23.5 121.5l42 296h85l-42 -296q-7 -53 9 -74t39 -21q52 0 135 99l41 292h85zM269 670l68 -146h-56l-113 146h101z" />
    <glyph glyph-name="uacute" unicode="&#xfa;" 
d="M436 449l-64 -449h-84l10 74l-2 2q-79 -83 -148 -83q-48 0 -82.5 38.5t-23.5 121.5l42 296h85l-42 -296q-7 -53 9 -74t39 -21q52 0 135 99l41 292h85zM294 670h101l-113 -146h-56z" />
    <glyph glyph-name="ucircumflex" unicode="&#xfb;" 
d="M436 449l-64 -449h-84l10 74l-2 2q-79 -83 -148 -83q-48 0 -82.5 38.5t-23.5 121.5l42 296h85l-42 -296q-7 -53 9 -74t39 -21q52 0 135 99l41 292h85zM356 670l75 -148h-41l-83 99l-134 -99h-47l131 148h99z" />
    <glyph glyph-name="udieresis" unicode="&#xfc;" 
d="M436 449l-64 -449h-84l10 74l-2 2q-79 -83 -148 -83q-48 0 -82.5 38.5t-23.5 121.5l42 296h85l-42 -296q-7 -53 9 -74t39 -21q52 0 135 99l41 292h85zM377 639q19 0 32.5 -13.5t13.5 -32.5t-13.5 -32.5t-32.5 -13.5t-32.5 13.5t-13.5 32.5t13.5 32.5t32.5 13.5zM198 639
q19 0 32.5 -13.5t13.5 -32.5t-13.5 -32.5t-32.5 -13.5t-32.5 13.5t-13.5 32.5t13.5 32.5t32.5 13.5z" />
    <glyph glyph-name="yacute" unicode="&#xfd;" horiz-adv-x="375" 
d="M400 449l-322 -679h-90l122 257l-87 422h85l60 -309h2l141 309h89zM247 670h101l-113 -146h-56z" />
    <glyph glyph-name="thorn" unicode="&#xfe;" horiz-adv-x="490" 
d="M184 386l-46 -328h41q91 0 140 60.5t49 135.5q0 71 -37.5 108t-90.5 37q-28 0 -56 -13zM13 -230l128 912h85l-33 -233q22 9 37 11q18 3 39 3q80 0 133 -59.5t53 -149.5q0 -45 -15.5 -90t-46.5 -86t-85 -66.5t-124 -25.5h-56l-30 -216h-85z" />
    <glyph glyph-name="ydieresis" unicode="&#xff;" horiz-adv-x="375" 
d="M400 449l-322 -679h-90l122 257l-87 422h85l60 -309h2l141 309h89zM330 639q19 0 32.5 -13.5t13.5 -32.5t-13.5 -32.5t-32.5 -13.5t-32.5 13.5t-13.5 32.5t13.5 32.5t32.5 13.5zM151 639q19 0 32.5 -13.5t13.5 -32.5t-13.5 -32.5t-32.5 -13.5t-32.5 13.5t-13.5 32.5
t13.5 32.5t32.5 13.5z" />
    <glyph glyph-name="dotlessi" unicode="&#x131;" horiz-adv-x="188" 
d="M171 449l-63 -449h-85l63 449h85z" />
    <glyph glyph-name="Lslash" unicode="&#x141;" horiz-adv-x="417" 
d="M306 449l-135 -112l-39 -261h280l-11 -76h-366l37 265l-72 -60l13 89l72 61l46 327h90l-37 -255l135 113z" />
    <glyph glyph-name="lslash" unicode="&#x142;" horiz-adv-x="188" 
d="M230 388l-75 -56l-47 -332h-85l38 269l-73 -54l7 61l75 55l49 351h85l-40 -288l75 56z" />
    <glyph glyph-name="OE" unicode="&#x152;" horiz-adv-x="969" 
d="M932 682l-12 -81h-275l-29 -213h258l-12 -81h-258l-31 -226h367l-11 -81h-452q-4 0 -48 -2t-71 -2q-85 0 -147.5 27t-95.5 72.5t-48.5 97t-15.5 110.5q0 39 11.5 86t40 99.5t69.5 95t107.5 70.5t146.5 28h506zM556 601h-56q-23 0 -49 0.5t-39 0.5q-121 0 -192.5 -83.5
t-71.5 -224.5q0 -105 50.5 -159t137.5 -54h147z" />
    <glyph glyph-name="oe" unicode="&#x153;" horiz-adv-x="719" 
d="M677 235h-277q-16 -78 15 -128.5t102 -50.5q74 0 141 67l-14 -94q-64 -43 -133 -43q-108 0 -169 93q-67 -93 -146 -93t-124 53t-45 148q0 118 61.5 197t153.5 79q88 0 133 -80q64 80 146 80t123 -59t33 -169zM312 284q0 49 -19.5 79.5t-50.5 32.5q-54 0 -91 -65t-37 -153
q0 -53 22.5 -86t56.5 -33q51 -4 85 61t34 164zM408 294h188q-1 48 -22.5 75t-60.5 27q-38 0 -66 -27t-39 -75z" />
    <glyph glyph-name="Scaron" unicode="&#x160;" horiz-adv-x="458" 
d="M439 664l-13 -93q-56 36 -120 36q-55 0 -87.5 -28t-32.5 -75q0 -30 24 -59t58 -55.5t67.5 -56t57.5 -71.5t24 -91q0 -71 -53.5 -125.5t-148.5 -54.5q-82 0 -165 49l14 100q94 -65 160 -65q34 0 67.5 22.5t33.5 65.5q0 33 -24 64t-57.5 58t-67.5 56.5t-58 71.5t-24 92
q0 81 66 133.5t154 52.5q63 0 125 -27zM245 740l-75 148h41l83 -99l134 99h47l-131 -148h-99z" />
    <glyph glyph-name="scaron" unicode="&#x161;" horiz-adv-x="354" 
d="M323 416v-89q-77 59 -135 59q-26 0 -43.5 -13.5t-17.5 -33.5q0 -17 18.5 -35t44.5 -35t52.5 -36.5t45 -49t18.5 -63.5q0 -60 -39.5 -97t-99.5 -37q-42 0 -75 12.5t-81 46.5l15 82q84 -67 138 -67q25 0 41.5 14t16.5 36q0 20 -18 39.5t-44 37t-52 37t-44 48t-18 62.5
q0 58 38.5 93.5t102.5 35.5q68 0 136 -47zM164 522l-75 148h41l83 -99l134 99h47l-131 -148h-99z" />
    <glyph glyph-name="Ydieresis" unicode="&#x178;" horiz-adv-x="490" 
d="M557 682l-239 -342l-48 -340h-90l48 340l-160 342h95l116 -250l174 250h104zM417 857q19 0 32.5 -13.5t13.5 -32.5t-13.5 -32.5t-32.5 -13.5t-32.5 13.5t-13.5 32.5t13.5 32.5t32.5 13.5zM238 857q19 0 32.5 -13.5t13.5 -32.5t-13.5 -32.5t-32.5 -13.5t-32.5 13.5
t-13.5 32.5t13.5 32.5t32.5 13.5z" />
    <glyph glyph-name="Zcaron" unicode="&#x17d;" horiz-adv-x="583" 
d="M647 682l-497 -597h404l-12 -85h-574l495 597h-388l12 85h560zM307 740l-75 148h41l83 -99l134 99h47l-131 -148h-99z" />
    <glyph glyph-name="zcaron" unicode="&#x17e;" horiz-adv-x="458" 
d="M447 449l-298 -374h261l-16 -75h-407l293 374h-227l10 75h384zM216 522l-75 148h41l83 -99l134 99h47l-131 -148h-99z" />
    <glyph glyph-name="florin" unicode="&#x192;" horiz-adv-x="552" 
d="M23 -198l17 76q48 -11 75 -11q48 0 58 59l90 524h-98l11 68h99l14 85q11 66 45.5 96t94.5 30q37 0 101 -19l-17 -75q-49 12 -78 12t-41 -17t-20 -61l-9 -51h99l-12 -68h-100l-93 -533q-12 -70 -41.5 -98.5t-88.5 -28.5q-47 0 -106 12z" />
    <glyph glyph-name="circumflex" unicode="&#x2c6;" horiz-adv-x="333" 
d="M288 670l75 -148h-41l-83 99l-134 -99h-47l131 148h99z" />
    <glyph glyph-name="caron" unicode="&#x2c7;" horiz-adv-x="333" 
d="M153 522l-75 148h41l83 -99l134 99h47l-131 -148h-99z" />
    <glyph glyph-name="uni02C9" unicode="&#x2c9;" horiz-adv-x="333" 
d="M378 635l-9 -64h-322l9 64h322z" />
    <glyph glyph-name="breve" unicode="&#x2d8;" horiz-adv-x="333" 
d="M308 659h49q-18 -61 -54.5 -94.5t-86.5 -33.5q-53 0 -84 37.5t-28 90.5h47q1 -29 20 -46.5t49 -17.5q53 0 88 64z" />
    <glyph glyph-name="dotaccent" unicode="&#x2d9;" horiz-adv-x="333" 
d="M220 639q19 0 32.5 -13.5t13.5 -32.5t-13.5 -32.5t-32.5 -13.5t-32.5 13.5t-13.5 32.5t13.5 32.5t32.5 13.5z" />
    <glyph glyph-name="ring" unicode="&#x2da;" horiz-adv-x="333" 
d="M219 691q39 0 66.5 -27.5t27.5 -66.5t-27.5 -66.5t-66.5 -27.5t-66.5 27.5t-27.5 66.5t27.5 66.5t66.5 27.5zM219 650q-23 0 -39 -16t-16 -39t16 -39t39 -16t39 16t16 39t-16 39t-39 16z" />
    <glyph glyph-name="ogonek" unicode="&#x2db;" horiz-adv-x="333" 
d="M220 -111l-10 -68q-32 -8 -62 -8q-46 0 -78 27t-32 66q0 42 37 101h77q-29 -51 -29 -74q0 -21 17 -35.5t42 -14.5q14 0 38 6z" />
    <glyph glyph-name="tilde" unicode="&#x2dc;" horiz-adv-x="333" 
d="M328 652h39q0 -47 -22 -80.5t-60 -33.5q-13 0 -67 19t-71 19q-14 0 -23 -10t-11 -27h-40q1 53 22.5 83.5t58.5 30.5q19 0 71 -19t69 -19q29 0 34 37z" />
    <glyph glyph-name="hungarumlaut" unicode="&#x2dd;" horiz-adv-x="333" 
d="M312 670h101l-113 -146h-56zM153 670h101l-113 -146h-56z" />
    <glyph glyph-name="uni03A9" unicode="&#x3a9;" horiz-adv-x="669" 
d="M157 70v3q-46 50 -70.5 125.5t-11.5 167.5q19 139 112 229t215 90q123 0 185.5 -93.5t44.5 -220.5q-13 -95 -60 -173t-106 -125l-1 -3h138l-10 -70h-231l8 52q61 38 110 116t64 186q9 65 -3.5 122.5t-51.5 97t-98 39.5q-88 0 -152 -74.5t-80 -187.5q-14 -101 13.5 -182
t76.5 -117l-7 -52h-231l10 70h136z" />
    <glyph glyph-name="uni03BC" unicode="&#x3bc;" horiz-adv-x="552" 
d="M135 449h85l-58 -276q-12 -57 9.5 -90t66.5 -33q101 0 127 124l57 275h85l-93 -449h-77l4 32q-23 -19 -34 -25q-35 -21 -76 -21q-59 0 -97 54l-43 -213h-84z" />
    <glyph glyph-name="pi" unicode="&#x3c0;" horiz-adv-x="544" 
d="M548 430h-73l-40 -289q-13 -89 -7 -141h-82q-12 30 3 135l41 295h-157q-18 -100 -56 -231.5t-71 -198.5h-83q36 77 72.5 204.5t53.5 225.5q-65 0 -102 -11l-4 57q44 27 144 27h379z" />
    <glyph glyph-name="uni2010" unicode="&#x2010;" horiz-adv-x="250" 
d="M250 265l-12 -85h-238l12 85h238z" />
    <glyph glyph-name="endash" unicode="&#x2013;" horiz-adv-x="500" 
d="M509 285v-64h-518v64h518z" />
    <glyph glyph-name="emdash" unicode="&#x2014;" horiz-adv-x="1000" 
d="M1009 285v-64h-1018v64h1018z" />
    <glyph glyph-name="quoteleft" unicode="&#x2018;" horiz-adv-x="198" 
d="M236 690l-6 -44q-66 -22 -66 -86q39 -17 39 -51q0 -26 -17.5 -42.5t-45.5 -16.5q-27 0 -45 22.5t-18 56.5q0 57 44 101t115 60z" />
    <glyph glyph-name="quoteright" unicode="&#x2019;" horiz-adv-x="198" 
d="M60 451l6 44q66 22 66 86q-39 17 -39 51q0 26 17.5 42.5t45.5 16.5q27 0 45 -22.5t18 -56.5q0 -57 -44 -101t-115 -60z" />
    <glyph glyph-name="quotesinglbase" unicode="&#x201a;" horiz-adv-x="198" 
d="M-24 -144l6 44q66 22 66 86q-39 17 -39 51q0 26 17.5 42.5t45.5 16.5q27 0 45 -22.5t18 -56.5q0 -57 -44 -101t-115 -60z" />
    <glyph glyph-name="quotedblleft" unicode="&#x201c;" horiz-adv-x="406" 
d="M439 690l-6 -44q-66 -22 -66 -86q39 -17 39 -51q0 -26 -17.5 -42.5t-45.5 -16.5q-27 0 -45 22.5t-18 56.5q0 57 44 101t115 60zM224 690l-6 -44q-66 -22 -66 -86q39 -17 39 -51q0 -26 -17.5 -42.5t-45.5 -16.5q-27 0 -45 22.5t-18 56.5q0 57 44 101t115 60z" />
    <glyph glyph-name="quotedblright" unicode="&#x201d;" horiz-adv-x="406" 
d="M277 451l6 44q66 22 66 86q-39 17 -39 51q0 26 17.5 42.5t45.5 16.5q27 0 45 -22.5t18 -56.5q0 -57 -44 -101t-115 -60zM62 451l6 44q66 22 66 86q-39 17 -39 51q0 26 17.5 42.5t45.5 16.5q27 0 45 -22.5t18 -56.5q0 -57 -44 -101t-115 -60z" />
    <glyph glyph-name="quotedblbase" unicode="&#x201e;" horiz-adv-x="406" 
d="M191 -144l6 44q66 22 66 86q-39 17 -39 51q0 26 17.5 42.5t45.5 16.5q27 0 45 -22.5t18 -56.5q0 -57 -44 -101t-115 -60zM-24 -144l6 44q66 22 66 86q-39 17 -39 51q0 26 17.5 42.5t45.5 16.5q27 0 45 -22.5t18 -56.5q0 -57 -44 -101t-115 -60z" />
    <glyph glyph-name="dagger" unicode="&#x2020;" horiz-adv-x="479" 
d="M245 405q-5 65 -5 129q0 157 63 157q36 0 36 -66q0 -39 -21 -104t-45 -116q77 29 140 29q26 0 42 -11.5t16 -30.5q0 -16 -18 -28t-44 -12q-47 0 -136 29q-2 -232 -28 -438q-10 -85 -26 -129t-46 -44q-19 0 -30.5 19t-11.5 51q0 68 36.5 232t77.5 309q-82 -29 -135 -29
q-27 0 -43.5 11.5t-16.5 30.5q0 17 18.5 28t47.5 11q43 0 129 -28z" />
    <glyph glyph-name="daggerdbl" unicode="&#x2021;" horiz-adv-x="458" 
d="M267 405q-4 -42 -4.5 -70t0.5 -51t1 -28q0 -29 -6.5 -54t-20 -65t-23.5 -83q86 29 129 29q56 0 56 -42q0 -19 -17 -30t-47 -11q-17 0 -34 3t-24 5t-32 11.5t-31 11.5q0 -5 2 -45t2 -78q0 -138 -57 -138q-42 0 -42 54q0 61 69 207q-78 -31 -120 -31q-73 0 -73 39
q0 19 19 31.5t50 12.5q47 0 124 -28q3 33 3 63t-1 59t-1 40q0 25 20.5 80.5t31.5 107.5q-75 -25 -124 -25q-63 0 -63 38q0 20 17.5 32.5t45.5 12.5q46 0 124 -33q-4 44 -4 128q0 133 58 133q19 0 29.5 -14.5t10.5 -39.5q0 -60 -68 -205l2 -2q63 33 128 33q61 0 61 -41
q0 -19 -18 -30.5t-49 -11.5q-53 0 -124 25z" />
    <glyph glyph-name="bullet" unicode="&#x2022;" horiz-adv-x="354" 
d="M316 341q0 -51 -36.5 -87.5t-87.5 -36.5t-87.5 36.5t-36.5 87.5t36.5 87.5t87.5 36.5t87.5 -36.5t36.5 -87.5z" />
    <glyph glyph-name="ellipsis" unicode="&#x2026;" horiz-adv-x="1000" 
d="M804 111q25 0 42 -17.5t17 -42.5t-17 -42.5t-42 -17.5t-42.5 17.5t-17.5 42.5t17.5 42.5t42.5 17.5zM470 111q25 0 42.5 -17.5t17.5 -42.5t-17.5 -42.5t-42.5 -17.5t-42.5 17.5t-17.5 42.5t17.5 42.5t42.5 17.5zM136 109q25 0 42.5 -17t17.5 -42t-17.5 -42t-42.5 -17
t-42 17t-17 42t17 42t42 17z" />
    <glyph glyph-name="perthousand" unicode="&#x2030;" horiz-adv-x="1010" 
d="M259 539q0 33 -23 56t-56 23t-56 -22.5t-23 -56.5q0 -31 24 -55t55 -24q33 0 56 23.5t23 55.5zM332 539q0 -61 -45 -106.5t-107 -45.5q-64 0 -108 45t-44 107q0 65 44 108.5t108 43.5q63 0 107.5 -44t44.5 -108zM601 691l-448 -700h-76l449 700h75zM933 144q0 33 -23 56
t-56 23t-56 -22.5t-23 -56.5q0 -31 24 -55t55 -24q33 0 56 23.5t23 55.5zM1006 144q0 -62 -45 -107t-107 -45q-64 0 -108 45t-44 107q0 64 44 108t108 44q63 0 107.5 -44t44.5 -108zM577 144q0 33 -23 56t-56 23t-56 -22.5t-23 -56.5q0 -31 24 -55t55 -24q33 0 56 23.5
t23 55.5zM650 144q0 -62 -45 -107t-107 -45q-64 0 -108 45t-44 107q0 64 44 108t108 44q63 0 107.5 -44t44.5 -108z" />
    <glyph glyph-name="guilsinglleft" unicode="&#x2039;" horiz-adv-x="229" 
d="M245 449l-173 -235l84 -214h-68l-88 224l168 225h77z" />
    <glyph glyph-name="guilsinglright" unicode="&#x203a;" horiz-adv-x="229" 
d="M-36 0l173 235l-84 214h68l88 -224l-168 -225h-77z" />
    <glyph glyph-name="fraction" unicode="&#x2044;" horiz-adv-x="208" 
d="M410 691l-542 -718h-69l543 718h68z" />
    <glyph glyph-name="Euro" unicode="&#x20ac;" horiz-adv-x="575" 
d="M224 440h282l-14 -72h-292q-6 -37 -8 -53h290l-14 -72h-276q2 -28 9 -54.5t22 -53t42.5 -42.5t65.5 -16q88 0 191 66l-13 -105q-92 -47 -185 -47q-25 0 -51.5 6t-57 23t-54.5 44t-42 73.5t-21 105.5h-73l14 72h59q2 27 7 53h-67l14 72h74q33 88 97.5 146.5t133.5 81.5
t144 23q42 0 102 -10l-16 -87q-57 11 -93 11q-90 0 -161.5 -42.5t-108.5 -122.5z" />
    <glyph glyph-name="afii61289" unicode="&#x2113;" horiz-adv-x="463" 
d="M395 154l32 -36q-81 -123 -197 -123q-78 0 -110.5 48.5t-25.5 125.5q0 2 1 6t1 6q-5 -4 -26 -19.5t-33 -23.5l-17 48q74 57 85 67l37 259q17 121 68 177.5t116 56.5q59 0 83.5 -44.5t14.5 -115.5q-23 -159 -240 -348l-4 -36q-10 -70 12.5 -104.5t64.5 -34.5q72 0 138 91z
M223 514l-27 -193q157 153 172 266q13 96 -49 96q-29 0 -56.5 -40.5t-39.5 -128.5z" />
    <glyph glyph-name="trademark" unicode="&#x2122;" horiz-adv-x="1000" 
d="M199 318v339h-129v59h325v-59h-130v-339h-66zM440 318v398h98l99 -318h2l96 318h96v-398h-61v334h-2l-100 -334h-60l-105 339h-2v-339h-61z" />
    <glyph glyph-name="Omega" unicode="&#x2126;" horiz-adv-x="669" 
d="M157 70v3q-46 50 -70.5 125.5t-11.5 167.5q19 139 112 229t215 90q123 0 185.5 -93.5t44.5 -220.5q-13 -95 -60 -173t-106 -125l-1 -3h138l-10 -70h-231l8 52q61 38 110 116t64 186q9 65 -3.5 122.5t-51.5 97t-98 39.5q-88 0 -152 -74.5t-80 -187.5q-14 -101 13.5 -182
t76.5 -117l-7 -52h-231l10 70h136z" />
    <glyph glyph-name="estimated" unicode="&#x212e;" horiz-adv-x="908" 
d="M875 331h-629q-5 0 -5 -4v-190q0 -12 8 -22q101 -104 238 -104q150 0 251 116h56q-53 -63 -134.5 -99t-173.5 -36q-161 0 -274.5 102t-113.5 247t113.5 247t274.5 102q162 0 275.5 -102t113.5 -247v-10zM733 356v192q0 12 -10 22q-102 100 -236 100q-136 0 -237 -103
q-9 -9 -9 -24v-187q0 -6 5 -6h482q5 0 5 6z" />
    <glyph glyph-name="partialdiff" unicode="&#x2202;" horiz-adv-x="521" 
d="M155 644l-18 63q73 54 168 54q102 0 159.5 -94.5t32.5 -270.5q-25 -180 -106 -290.5t-200 -110.5q-88 0 -126.5 67t-26.5 157q15 111 84 180t152 69q55 0 90 -28t47 -57h1q4 22 6 38q16 116 -22 192.5t-110 76.5q-67 0 -131 -46zM209 67h1q59 0 109 69.5t73 165.5
q-7 36 -37 66.5t-76 30.5q-55 0 -100.5 -53.5t-56.5 -127.5q-9 -66 14.5 -108.5t72.5 -42.5z" />
    <glyph glyph-name="uni2206" unicode="&#x2206;" horiz-adv-x="609" 
d="M-3 0l7 55l319 636h98l136 -635l-8 -56h-552zM93 70h375l-77 344q-3 19 -17.5 86t-17.5 92h-3q-7 -19 -36.5 -78.5t-40.5 -84.5z" />
    <glyph glyph-name="product" unicode="&#x220f;" horiz-adv-x="725" 
d="M700 597h-100v-690h-84v690h-245v-690h-84v690h-100v77h613v-77z" />
    <glyph glyph-name="summation" unicode="&#x2211;" horiz-adv-x="583" 
d="M563 -93h-478v56l245 327l-235 324v60h453v-73h-338v-3l216 -294l-235 -313v-3h372v-81z" />
    <glyph glyph-name="minus" unicode="&#x2212;" horiz-adv-x="584" 
d="M71 394h472v-82h-472v82z" />
    <glyph glyph-name="uni2215" unicode="&#x2215;" horiz-adv-x="208" 
d="M410 691l-542 -718h-69l543 718h68z" />
    <glyph glyph-name="uni2219" unicode="&#x2219;" horiz-adv-x="260" 
d="M151 406q25 0 42.5 -17.5t17.5 -42.5t-17.5 -43t-42.5 -18t-43 18t-18 43t18 42.5t43 17.5z" />
    <glyph glyph-name="radical" unicode="&#x221a;" horiz-adv-x="609" 
d="M611 804l-209 -945h-72l-147 441l-70 -27l-16 50l138 55l113 -343q16 -71 17 -74l1 -1q4 26 13 77l171 767h61z" />
    <glyph glyph-name="infinity" unicode="&#x221e;" horiz-adv-x="765" 
d="M718 280v-1q0 -69 -43.5 -112t-103.5 -43q-43 0 -82.5 26t-90.5 86q-46 -55 -86 -83.5t-92 -28.5q-59 0 -101.5 43.5t-42.5 107.5q0 67 43 110.5t108 43.5q49 0 89.5 -29t84.5 -82q3 3 9 10q23 25 35.5 38t35 30.5t46 25t50.5 7.5q62 0 101.5 -41t39.5 -108zM227 175h1
q9 0 18.5 1.5t19 6t16.5 8t16.5 12t15 12.5t15.5 14.5t13.5 14t14.5 16t13 14.5q-31 38 -44.5 53.5t-43 34t-60.5 18.5q-43 0 -68 -30.5t-25 -75.5q0 -41 27.5 -70t70.5 -29zM572 380h-1q-18 0 -35 -6.5t-33.5 -20t-27.5 -24t-26.5 -28t-20.5 -22.5q50 -58 80.5 -81
t65.5 -23q41 0 66 31t25 70q0 47 -26 75.5t-67 28.5z" />
    <glyph glyph-name="integral" unicode="&#x222b;" horiz-adv-x="415" 
d="M397 814l-12 -59q-16 9 -34 9q-32 0 -48 -23q-30 -37 -30 -170q0 -75 6.5 -236.5t6.5 -243.5q0 -132 -39 -194q-31 -55 -102 -55q-40 0 -64 15l13 62q22 -11 42 -11q26 0 43 21q30 40 30 162q0 83 -6.5 247t-6.5 241q0 82 12 130t40 78q37 40 95 40q30 0 54 -13z" />
    <glyph glyph-name="approxequal" unicode="&#x2248;" horiz-adv-x="553" 
d="M478 419l33 -29q-47 -93 -123 -93q-26 0 -48 9t-61 31q-53 32 -86 32q-20 0 -38 -11t-28.5 -24t-24.5 -35l-34 28q21 43 56 68t76 25q16 0 33 -5t25 -8t26.5 -14t19.5 -11q3 -2 17.5 -10t18.5 -10t14.5 -6.5t18.5 -5.5t17 -1q47 0 88 70zM478 253l33 -29
q-47 -92 -123 -92q-26 0 -47.5 8.5t-61.5 30.5q-55 32 -85 32t-50 -18t-42 -52l-34 28q22 43 56.5 68.5t74.5 25.5q13 0 25.5 -2t25 -7.5t19 -9t19 -11t15.5 -8.5q3 -2 17 -9.5t18.5 -10t15 -7t19 -6t18.5 -1.5q27 0 46.5 17t40.5 53z" />
    <glyph glyph-name="notequal" unicode="&#x2260;" horiz-adv-x="565" 
d="M416 485l-40 -90h141v-53h-162l-61 -136h223v-53h-244l-49 -110l-42 18l41 92h-137v53h159l60 136h-219v53h240l48 108z" />
    <glyph glyph-name="lessequal" unicode="&#x2264;" horiz-adv-x="576" 
d="M526 95l-424 214v56l423 214v-63l-368 -177v-2l369 -179v-63zM529 2h-432v55h432v-55z" />
    <glyph glyph-name="greaterequal" unicode="&#x2265;" horiz-adv-x="576" 
d="M103 579l424 -214v-56l-424 -214v63l368 178v2l-368 178v63zM528 2h-430v55h430v-55z" />
    <glyph glyph-name="lozenge" unicode="&#x25ca;" horiz-adv-x="609" 
d="M559 337l-189 -381h-69l-185 381l189 381h68zM482 335l-126 257q-14 41 -17 54h-3q-7 -28 -18 -54l-126 -253l127 -261q12 -29 16 -51h4q7 30 17 50z" />
    <glyph glyph-name="fi" unicode="&#xfb01;" horiz-adv-x="479" 
d="M299 449l-11 -75h-95l-84 -563h-83l83 563h-66l11 75h65q16 121 62.5 181.5t141.5 60.5q66 0 106 -36t39 -91h-81q-5 25 -23 39.5t-44 14.5q-59 0 -80.5 -38t-36.5 -131h96zM454 449l-66 -449h-85l66 449h85z" />
    <glyph glyph-name="fl" unicode="&#xfb02;" horiz-adv-x="479" 
d="M302 449l-14 -75h-94l-85 -563h-83l83 563h-65l11 75h64q17 127 64 184.5t134 57.5q27 0 49 -9l-10 -69q-17 5 -38 5q-98 0 -114 -169h98zM488 682l-101 -682h-85l101 682h85z" />
    <glyph glyph-name="one.superior" horiz-adv-x="323" 
d="M265 691l-66 -359h-64l65 359h65z" />
    <glyph glyph-name="two.superior" horiz-adv-x="323" 
d="M92 605l9 60q48 26 96 26q46 0 75 -23.5t29 -60.5t-33 -86t-122 -141h150l-7 -48h-259q209 217 209 267q0 41 -52 41q-42 0 -95 -35z" />
    <glyph glyph-name="three.superior" horiz-adv-x="323" 
d="M107 616l8 58q44 17 89 17q52 0 83 -25.5t31 -68.5q0 -57 -74 -83q50 -21 50 -79q0 -46 -41.5 -77t-103.5 -31q-50 0 -103 21l7 49q53 -22 94 -22q38 0 59.5 17t21.5 46q0 54 -75 54l7 45q87 9 87 61q0 20 -15 32.5t-40 12.5q-41 0 -85 -27z" />
    <glyph glyph-name="a.superior" horiz-adv-x="313" 
d="M327 682l-42 -270h-66l3 23q-36 -26 -70 -26q-43 0 -71.5 30.5t-28.5 75.5q0 79 55.5 127.5t145.5 48.5q38 0 74 -9zM231 493l23 149q-59 0 -96.5 -30t-37.5 -89q0 -30 14 -49.5t36 -19.5q26 0 61 39z" />
    <glyph glyph-name="o.superior" horiz-adv-x="302" 
d="M316 571q0 -73 -40 -120t-102 -47q-53 0 -83.5 32t-30.5 90q0 70 41 117.5t103 47.5q52 0 82 -32.5t30 -87.5zM249 574q0 71 -45 71q-34 0 -55.5 -36.5t-21.5 -96.5q0 -26 13.5 -44t32.5 -18q31 0 53.5 36.5t22.5 87.5z" />
    </font>
</defs>
</svg>
