<?xml version="1.0" standalone="no"?>
<!DOCTYPE svg PUBLIC "-//W3C//DTD SVG 1.1//EN" "http://www.w3.org/Graphics/SVG/1.1/DTD/svg11.dtd" >
<svg xmlns="http://www.w3.org/2000/svg" xmlns:xlink="http://www.w3.org/1999/xlink" version="1.1">
<metadata>
Created by FontForge 20170731 at Thu Aug 16 18:14:16 2007
 By Aleksey,,,
(c) 1988, 1996, 1999, 2002 Adobe Systems Incorporated. All rights reserved.
</metadata>
<defs>
<font id="KaufmannStd-Bold" horiz-adv-x="481" >
  <font-face 
    font-family="Kaufmann Std"
    font-weight="700"
    font-style="italic"
    font-stretch="normal"
    units-per-em="1000"
    panose-1="3 6 8 2 4 3 7 8 4 4"
    ascent="718"
    descent="-282"
    x-height="350"
    cap-height="722"
    bbox="-167 -302 1009 929"
    underline-thickness="50"
    underline-position="-200"
    slope="-22"
    unicode-range="U+0020-FB02"
  />
<missing-glyph horiz-adv-x="615" 
d="M115 0v700h500v-700h-500zM365 395l170 255h-340zM395 350l170 -255v510zM195 50h340l-170 255zM165 605v-510l170 255z" />
    <glyph glyph-name="f_i" unicode="fi" horiz-adv-x="537" 
d="M433 350h61q16 0 16 -8q0 -3 -13 -28t-42.5 -88.5t-60.5 -139.5l2 -2q38 17 69.5 38.5t46 34.5t16.5 13q13 0 13 -36q0 -20 -5 -32t-22 -25q-43 -32 -94 -57.5t-86 -25.5q-53 0 -53 49q0 5 5 19.5t12 32.5t8 22h-2q-17 -15 -52 -40.5t-46 -33.5q-4 -30 -4 -31
q0 -62 -26.5 -133t-72.5 -122t-95 -51q-33 0 -49.5 23.5t-16.5 59.5q0 48 109 344l-2 2q-14 -11 -31 -25t-25.5 -20.5t-10.5 -6.5q-7 0 -7 45q0 30 10 38q1 1 13.5 12.5t24 22t27.5 26t28 29t22 27.5t14 23q17 46 35 100t30 90.5t25.5 76t24.5 64t23 45.5t25.5 30.5
t28.5 9.5q28 0 28 -36q0 -47 -22 -112.5t-65.5 -160.5t-49.5 -110q-1 -2 -20.5 -56.5t-44 -123t-49.5 -140t-42 -121.5t-17 -54q0 -14 8 -14q11 0 32 30t47 101t37 160q71 48 161 126t105 121q7 18 19 18zM523 521q20 0 33 -15t13 -35q0 -25 -19 -44.5t-45 -19.5
q-20 0 -33 15t-13 35q0 25 19 44.5t45 19.5z" />
    <glyph glyph-name="f_l" unicode="fl" horiz-adv-x="537" 
d="M397 331l124 330q1 2 5 15t6.5 18t7.5 13t12 11.5t16 3.5q18 0 26 -13.5t8 -28.5q0 -59 -37 -157.5t-76 -172.5q-16 -32 -53.5 -132t-37.5 -123q0 -7 8 -7q20 0 73 44l53 43q4 0 9 -11.5t5 -22.5q0 -26 -7.5 -40.5t-32.5 -31.5q-111 -75 -154 -75q-58 0 -58 39
q0 8 4 24.5t10 37t7 25.5q-83 -58 -113 -83q0 -109 -43 -201q-22 -44 -62.5 -87t-77.5 -43q-74 0 -74 84q0 28 15 79t45.5 138t44.5 129l-2 2q-14 -11 -30.5 -26t-25 -22.5t-10.5 -7.5q-6 0 -6 44q0 32 10 42t32 30t35.5 33t28.5 31t22 32q24 50 62 166.5t70.5 189
t64.5 72.5q30 0 30 -39q0 -36 -15 -87.5t-31 -89.5t-45 -101.5t-40 -89.5q-59 -143 -101.5 -262.5t-58 -174t-15.5 -68.5q0 -16 9 -16q21 0 58.5 83t47.5 172q4 34 14 40q53 33 142 110q52 45 67.5 64.5t33.5 67.5z" />
    <glyph glyph-name=".notdef" horiz-adv-x="615" 
d="M115 0v700h500v-700h-500zM365 395l170 255h-340zM395 350l170 -255v510zM195 50h340l-170 255zM165 605v-510l170 255z" />
    <glyph glyph-name=".null" horiz-adv-x="0" 
 />
    <glyph glyph-name="nonmarkingreturn" horiz-adv-x="333" 
 />
    <glyph glyph-name="space" unicode=" " horiz-adv-x="240" 
 />
    <glyph glyph-name="exclam" unicode="!" horiz-adv-x="259" 
d="M155 181h-41q-10 0 -10 15q0 4 10 31l131 357q7 22 19 22h36q31 0 31 -21q0 -7 -13 -37zM28 53q0 32 23 57.5t54 25.5q24 0 39.5 -19t15.5 -43q0 -32 -24 -56t-55 -24q-26 0 -39.5 16t-13.5 43z" />
    <glyph glyph-name="quotedbl" unicode="&#x22;" horiz-adv-x="333" 
d="M151 641l-18 -204q-4 -31 -22 -31t-22 31l-18 204q-6 81 40 81t40 -81zM312 641l-18 -204q-4 -31 -22 -31t-22 31l-18 204q-6 81 40 81t40 -81z" />
    <glyph glyph-name="numbersign" unicode="#" 
d="M414 223l-1 -52h-81l-24 -171h-58l24 171h-96l-24 -171h-59l25 171h-78l3 52h82l16 114h-78l1 52h84l24 172h59l-24 -172h96l23 172h59l-24 -172h75l-1 -52h-81l-16 -114h74zM297 337h-96l-16 -114h96z" />
    <glyph glyph-name="dollar" unicode="$" 
d="M193 27l-37 -87q-7 -16 -15 -21.5t-29 -5.5h-20q-24 0 -24 14q0 6 8 28l37 89q-35 14 -55 49.5t-20 74.5q0 54 51 54q27 0 35 -10t8 -42q0 -29 20.5 -43.5t55.5 -14.5q30 0 53 15t23 48q0 8 -2.5 17t-5.5 15.5t-11 17t-11.5 15.5t-14.5 17.5t-14 16.5q-60 72 -60 129
q0 55 38 88.5t103 45.5l27 59q7 13 18.5 17.5t40.5 4.5q27 0 27 -18q0 -4 -8 -25l-20 -48q75 -37 75 -92q0 -24 -11 -41t-34 -17q-12 0 -19.5 2t-12 10t-5.5 11t-5 16q-10 37 -55 37q-27 0 -43 -12.5t-16 -34.5q0 -7 2.5 -15t6 -14t10.5 -15.5t11.5 -15t15 -17t14.5 -16.5
q59 -69 59 -130q0 -74 -57.5 -117t-133.5 -39z" />
    <glyph glyph-name="percent" unicode="%" horiz-adv-x="759" 
d="M234 556q84 0 102 -77q50 5 103.5 32t86.5 51t36 24q9 0 28.5 -23.5t19.5 -35.5q0 -5 -10.5 -21t-29 -40t-33.5 -42.5t-34.5 -42t-21.5 -25.5q-182 -230 -266 -372q-1 -1 -6.5 -12t-10 -18t-11 -16.5t-12.5 -14.5t-11 -5q-11 0 -23.5 19t-12.5 32q0 25 180 274
q46 63 146 183l58 67l-2 2l-41 -22q-78 -43 -130 -44q-4 -77 -59 -146t-131 -69q-53 0 -79 31t-26 84q0 79 56 153t134 74zM228 496q-47 0 -81.5 -55t-34.5 -106q0 -61 44 -61q49 0 82.5 56.5t32.5 108.5q-16 9 -16 29q0 10 8 11q-11 17 -35 17zM612 350q54 0 80 -31t26 -84
q0 -79 -56 -153t-135 -74q-53 0 -79 31t-26 84q0 79 56 153t134 74zM606 290q-47 0 -81.5 -55t-34.5 -106q0 -61 44 -61q47 0 81.5 55t34.5 106q0 61 -44 61z" />
    <glyph glyph-name="ampersand" unicode="&#x26;" horiz-adv-x="556" 
d="M405 259h51q15 0 15 -10q0 -19 -18.5 -47t-37 -49.5t-18.5 -23.5q0 -8 41.5 -61t41.5 -55q0 -12 -15 -13h-66q-18 0 -26 14q-1 1 -5 8l-8 14t-9 14.5t-9 12t-7 4.5q-1 0 -10.5 -7.5t-25 -18.5t-35 -21.5t-47 -18t-55.5 -7.5q-62 0 -98.5 27.5t-36.5 84.5q0 40 32.5 77.5
t65 60t32.5 27.5q0 2 -8.5 13t-16.5 32.5t-8 48.5q0 93 79 148.5t168 55.5q68 0 100.5 -18.5t32.5 -58.5q0 -22 -9 -38.5t-17.5 -24t-37.5 -31.5l-39 -32q-16 -12 -30.5 -25.5t-21 -20.5t-9.5 -7q-4 0 -34 17.5t-30 23.5q0 15 36 47.5t74 56.5q21 12 21 25q0 10 -26 10
q-60 0 -114.5 -41t-54.5 -95q0 -19 19.5 -47t19.5 -47q0 -21 -20 -42.5t-44 -37.5t-44 -39t-20 -46q0 -22 44 -22q25 0 67 21.5t57 47.5q-2 7 -8.5 19.5t-12 22.5t-5.5 12q0 6 29 25t33 19t8.5 -6.5t9 -20t6.5 -16.5h2q4 5 10.5 15t10.5 16.5t10 13.5t11 10.5t10 3.5z" />
    <glyph glyph-name="quotesingle" unicode="'" horiz-adv-x="222" 
d="M181 641l-18 -204q-4 -31 -22 -31t-22 31l-18 204q-6 81 40 81t40 -81z" />
    <glyph glyph-name="parenleft" unicode="(" horiz-adv-x="407" 
d="M398 698h97q-157 -187 -218 -311q-64 -133 -94 -245.5t-30 -245.5q0 -66 11 -140h-81q-14 78 -14 177q0 124 41 265t119 264q48 76 69 108t49 69t51 59z" />
    <glyph glyph-name="parenright" unicode=")" horiz-adv-x="407" 
d="M-52 -244h-100q184 180 295.5 394.5t111.5 439.5q0 18 -2.5 54t-2.5 54h79q10 -73 10 -131q0 -192 -94 -394.5t-239 -354.5q-20 -20 -58 -62z" />
    <glyph glyph-name="asterisk" unicode="*" horiz-adv-x="370" 
d="M120 636l109 -63l9 125h79l-37 -136l125 44l14 -74l-132 -17l74 -108l-69 -33l-51 121l-81 -107l-56 52l102 88l-123 39z" />
    <glyph glyph-name="plus" unicode="+" horiz-adv-x="600" 
d="M271 207v149h58v-149h149v-58h-149v-149h-58v149h-149v58h149z" />
    <glyph glyph-name="comma" unicode="," horiz-adv-x="240" 
d="M26 -140h-41q-6 0 -6 5q0 1 7 20l88 228q6 13 8 13h107q9 0 9 -7q0 -2 -11 -21z" />
    <glyph glyph-name="hyphen" unicode="-" horiz-adv-x="333" 
d="M57 220h198q10 0 10 -10q0 -19 -18 -57q-7 -16 -10 -16h-214q-5 0 -5 8q0 21 19 54q12 21 20 21z" />
    <glyph glyph-name="period" unicode="." horiz-adv-x="240" 
d="M32 53q0 32 23 57.5t54 25.5q24 0 39.5 -19t15.5 -43q0 -32 -24 -56t-55 -24q-26 0 -39.5 16t-13.5 43z" />
    <glyph glyph-name="slash" unicode="/" horiz-adv-x="278" 
d="M360 722l-295 -746h-83l291 746h87z" />
    <glyph glyph-name="zero" unicode="0" 
d="M374 392q0 87 -64 87q-57 0 -106 -56.5t-73 -126.5t-24 -126q0 -88 63 -88q44 0 83.5 33.5t65 82.5t40.5 101.5t15 92.5zM470 387q0 -44 -13.5 -96.5t-40.5 -104.5t-63.5 -95t-88 -70t-108.5 -27q-74 0 -109.5 52t-35.5 130q0 56 22 122.5t60 127t100 101t132 40.5
q74 0 109.5 -51.5t35.5 -128.5z" />
    <glyph glyph-name="one" unicode="1" 
d="M125 0h-69h-6h-6h-4.5t-3.5 1.5t-1 4.5q0 4 11 19q33 44 62.5 98t63 126t49.5 103l-2 2q-63 -50 -93 -50q-10 0 -13 4.5t-3 20.5q0 14 2 28t4.5 21.5t4.5 8.5l33 16q42 21 81 51t54 55q3 5 10.5 18.5t11.5 19t12 13.5t17.5 11.5t21.5 3.5q19 0 32 -12.5t13 -35.5
q0 -24 -42 -77q-10 -12 -25 -44t-30 -66.5t-18 -39.5q-6 -15 -25 -52.5t-53 -105.5t-62 -125q-8 -17 -27 -17z" />
    <glyph glyph-name="two" unicode="2" 
d="M330 195l-80 -86q44 -25 120 -25q22 0 46.5 6.5t26.5 6.5q12 0 12 -11q0 -7 -3.5 -19t-9 -28t-7.5 -23q-4 -15 -20.5 -18.5t-47.5 -3.5h-7q-74 0 -184 55q-9 -5 -27 -17t-26 -16.5t-22.5 -11t-29 -8.5t-32.5 -2q-41 0 -69 26t-28 63q0 46 31 74.5t81 28.5q27 0 54.5 -10
t44.5 -20t18 -10q10 0 57 54.5t92 127t45 110.5q0 22 -17 33.5t-36 11.5q-29 0 -56 -17t-44 -38t-32.5 -38t-23.5 -17q-14 0 -33 12.5t-19 24.5q0 37 63 97t151 60q143 0 143 -129q0 -50 -43 -122.5t-88 -120.5zM49 54q6 0 13.5 2.5t13 5t13.5 8t12 8.5t12 9.5t10 7.5
q-3 1 -16.5 9.5t-27.5 13t-30 4.5q-20 0 -32.5 -10t-12.5 -21q0 -37 45 -37z" />
    <glyph glyph-name="three" unicode="3" 
d="M35 190h31q14 0 18 -10.5t4 -41.5q0 -26 19 -42t54 -16q47 0 93 34t46 88q0 15 -6.5 28t-12.5 19t-9 6l-20 -7q-19 -6 -36 -6q-26 0 -47 11t-21 35q0 62 81 62q8 0 24.5 -3t20.5 -3q19 0 51 35t32 67q0 16 -13 25.5t-34 9.5q-25 0 -53 -19.5t-48.5 -39t-27.5 -19.5
q-13 0 -29.5 12t-16.5 24q0 34 65 81t136 47q54 0 89.5 -33t35.5 -87q0 -78 -106 -148q41 -44 41 -97q0 -89 -71.5 -148.5t-156.5 -59.5q-83 0 -125.5 37.5t-42.5 99.5q0 59 35 59z" />
    <glyph glyph-name="four" unicode="4" 
d="M313 132l-27 -51q-8 -17 -16.5 -37t-13.5 -32t-10.5 -22.5t-11 -15.5t-12.5 -5h-57q-7 0 -12.5 7t-5.5 16q0 13 30.5 74t30.5 73q0 7 -20 7q-26 0 -86 6q-2 -2 -12 -12.5t-16 -16t-15.5 -13.5t-18 -11.5t-16.5 -3.5q-23 0 -37.5 11.5t-14.5 32.5q0 12 4 23t8.5 18
t16.5 16t17 12t22 12.5t21 11.5q101 144 168 337h73q21 0 21 -16q0 -11 -31.5 -73t-73.5 -140.5t-54 -103.5q22 -14 60 -14h28l20 38q67 129 99 175t62 46q16 0 25.5 -8t9.5 -21q0 -15 -57.5 -122t-57.5 -111q0 -9 25 -9q7 0 27 1.5t31 1.5q15 0 15 -14q0 -22 -25 -62
q-8 -12 -25 -12q-16 0 -51.5 3.5t-36.5 3.5z" />
    <glyph glyph-name="five" unicode="5" 
d="M237 567h221q25 0 25 -29q0 -22 -12.5 -42.5t-32.5 -20.5h-173q-6 0 -11 -5t-9 -14t-7 -17t-7 -19.5t-6 -17.5q25 5 48 5q73 0 110.5 -39.5t37.5 -103.5q0 -105 -94.5 -187.5t-196.5 -82.5q-50 0 -86 28.5t-36 68.5q0 29 15 39.5t52 10.5q23 0 25 -21q1 -21 12.5 -29.5
t33.5 -8.5q52 0 115.5 57t63.5 120q0 58 -60 58q-36 0 -61.5 -12.5t-37.5 -27.5t-27.5 -27.5t-33.5 -12.5q-20 0 -33.5 13t-13.5 35q0 18 11 35.5t19.5 25t28.5 24.5q4 10 13 34.5t14 38t13.5 33.5t17 36t17.5 29q17 26 45 26z" />
    <glyph glyph-name="six" unicode="6" 
d="M15 156q0 62 34 131.5t84 126.5t104.5 105t99 74.5t63.5 26.5q8 0 22 -17.5t14 -26.5q0 -4 -0.5 -6.5t-1.5 -5t-3 -5.5t-4 -4.5t-7 -5.5t-8 -6t-10.5 -7.5t-13.5 -9.5q-123 -88 -200 -190.5t-77 -183.5q0 -28 19.5 -48t51.5 -20q59 0 108.5 59t49.5 109q0 38 -27 38
q-14 0 -38 -13.5t-34 -13.5q-14 0 -24 9t-10 23q0 29 35 57t79 28q52 0 84.5 -30t32.5 -78q0 -108 -80.5 -193t-179.5 -85q-75 0 -119 45.5t-44 116.5z" />
    <glyph glyph-name="seven" unicode="7" 
d="M523 546q0 -6 -3.5 -12t-12 -16.5t-12.5 -16.5q-101 -149 -193 -324q-13 -24 -33 -69t-32 -69.5t-31.5 -45t-41.5 -20.5q-21 0 -35.5 8t-14.5 22q0 8 5.5 18t16.5 26t18 28q30 54 142 269q21 41 79 124q-76 6 -104 6q-68 0 -74 -11q0 -1 -5 -12t-7 -14.5t-7 -14t-8.5 -15
t-9 -13t-10.5 -13t-11.5 -9.5t-13.5 -7t-14 -2q-21 0 -33.5 11.5t-12.5 30.5q0 7 1 13.5t4 13.5t4.5 12t7 12.5t7 10.5t8.5 11.5t8.5 10t10.5 11.5l8 9q12 48 28.5 63.5t64.5 15.5q14 0 15 -28q10 0 32 2q5 0 15.5 0.5t16.5 0.5q26 0 80.5 -5.5t81.5 -5.5q18 0 35 3t18 3
q12 0 12 -12z" />
    <glyph glyph-name="eight" unicode="8" 
d="M470 445v-61q0 -15 -11 -22l-138 -85q51 -50 51 -108q0 -77 -57 -126t-149 -49q-82 0 -124 33t-42 89q0 37 26 70.5t57 51.5t57 32.5t26 19.5q0 6 -14 21t-27.5 40.5t-13.5 54.5q0 47 24.5 80t65.5 50t83 24t87 7q55 0 72.5 -7.5t17.5 -29.5q0 -28 -24.5 -36t-120.5 -13
q-36 -2 -73.5 -21t-37.5 -44q0 -27 21.5 -49.5t31.5 -22.5t106.5 58.5t101.5 58.5q4 0 4 -16zM167 84q41 0 74 19.5t33 56.5q0 17 -17 41t-24 24q-13 0 -75 -41.5t-62 -60.5q0 -21 22.5 -30t48.5 -9z" />
    <glyph glyph-name="nine" unicode="9" 
d="M470 400q0 -56 -36.5 -127.5t-90.5 -134.5t-111.5 -118t-103 -87.5t-60.5 -32.5q-11 0 -27.5 20.5t-16.5 33.5q0 9 10.5 18.5t37 28.5t42.5 32q82 67 171 180.5t89 192.5q0 34 -22 52.5t-57 18.5q-54 0 -103 -57.5t-49 -115.5q0 -13 9.5 -22t24.5 -9q13 0 36.5 14
t33.5 14q9 0 19.5 -9.5t10.5 -20.5q0 -32 -36 -60t-84 -28q-47 0 -79.5 30.5t-32.5 88.5q0 99 80 182t177 83q80 0 124 -45.5t44 -121.5z" />
    <glyph glyph-name="colon" unicode=":" horiz-adv-x="240" 
d="M-32 53q0 32 23 57.5t54 25.5q24 0 39.5 -19t15.5 -43q0 -32 -24 -56t-55 -24q-26 0 -39.5 16t-13.5 43zM51 278q0 32 23 57.5t54 25.5q24 0 39.5 -19t15.5 -43q0 -32 -24 -56t-55 -24q-26 0 -39.5 16t-13.5 43z" />
    <glyph glyph-name="semicolon" unicode=";" horiz-adv-x="240" 
d="M-46 -140h-41q-6 0 -6 5q0 1 7 20l88 228q6 13 8 13h107q9 0 9 -7q0 -2 -11 -21zM51 278q0 32 23 57.5t54 25.5q24 0 39.5 -19t15.5 -43q0 -32 -24 -56t-55 -24q-26 0 -39.5 16t-13.5 43z" />
    <glyph glyph-name="less" unicode="&#x3c;" horiz-adv-x="600" 
d="M481 306l-288 -128l288 -128v-59l-363 161v52l363 161v-59z" />
    <glyph glyph-name="equal" unicode="=" horiz-adv-x="600" 
d="M478 280v-58h-356v58h356zM478 134v-58h-356v58h356z" />
    <glyph glyph-name="greater" unicode="&#x3e;" horiz-adv-x="600" 
d="M119 50l288 128l-288 128v59l363 -161v-52l-363 -161v59z" />
    <glyph glyph-name="question" unicode="?" horiz-adv-x="370" 
d="M261 606q61 0 100 -31t39 -90q0 -46 -28.5 -82.5t-67.5 -60.5q-5 -3 -18.5 -10.5t-18 -10.5t-14.5 -9.5t-15.5 -10.5t-12 -10t-12.5 -12q-19 -20 -34 -48.5t-17 -39.5q-2 -8 -48 -8q-9 0 -9 15q0 31 23.5 74.5t79.5 89.5l26 19.5t27 21.5t20.5 21t16.5 28t5 33
q0 47 -51 47q-29 0 -56.5 -26.5t-45.5 -58.5q-6 -13 -17 -13q-9 0 -26.5 19.5t-17.5 29.5q0 6 10 21q59 102 162 102zM44 53q0 32 23 57.5t54 25.5q24 0 39.5 -19t15.5 -43q0 -32 -24 -56t-55 -24q-26 0 -39.5 16t-13.5 43z" />
    <glyph glyph-name="at" unicode="@" horiz-adv-x="800" 
d="M361 219q55 0 95.5 59t40.5 120q0 35 -23.5 61.5t-55.5 26.5q-57 0 -97 -57.5t-40 -118.5q0 -40 22.5 -65.5t57.5 -25.5zM525 489l19 57h70l-72 -264q-25 -70 10 -70q47 0 88 61t41 137q0 113 -76.5 180.5t-189.5 67.5q-125 0 -206 -87t-81 -216t84.5 -213t211.5 -84
q65 0 124 27t100 75h70q-48 -79 -126.5 -122.5t-171.5 -43.5q-155 0 -261.5 105.5t-106.5 259.5q0 151 106.5 257t256.5 106q136 0 234.5 -85t98.5 -215q0 -65 -25 -120.5t-62 -89t-76 -52.5t-71 -19q-24 0 -41 15.5t-18 43.5h-2q-53 -59 -112 -59q-61 0 -103 47.5
t-42 112.5q0 101 62 180t156 79q78 0 111 -71z" />
    <glyph glyph-name="A" unicode="A" horiz-adv-x="648" 
d="M79 0h-84q-5 0 -5 5q0 14 96 206q-24 -2 -40.5 -5t-23 -4.5t-7.5 -1.5q-5 0 -8.5 5t-3.5 8t3 11l17 48q3 10 8.5 13t20.5 5q34 6 76 6q12 0 17 8q28 48 61 96t80.5 103.5t95.5 97t106.5 69.5t112.5 28q81 0 81 -68q0 -20 -33 -124l-86 -293q-31 -106 -31 -112
q0 -2 4.5 -17t4.5 -24q0 -60 -58 -60q-53 0 -53 57q0 3 2.5 18t2.5 19q0 40 -70 79t-171 45q-34 -52 -59.5 -105.5t-36.5 -81.5t-13 -29q-4 -2 -6 -2zM459 204l107 359q1 2 3.5 10.5t4.5 15.5t2 9q0 10 -8 10q-45 0 -125.5 -75t-139 -149.5t-58.5 -82.5q0 -5 32 -9t86 -24.5
t96 -63.5z" />
    <glyph glyph-name="B" unicode="B" horiz-adv-x="593" 
d="M90 -6h-109q103 203 257 555q30 69 80.5 109t113.5 40q72 0 109.5 -47t37.5 -123q0 -74 -41 -136t-118 -81q-27 -7 -27 -11q0 -2 3.5 -4t14 -4.5t15.5 -4.5q44 -13 75.5 -45.5t31.5 -71.5q0 -42 -16 -73t-43 -49.5t-69 -29t-85.5 -14.5t-101.5 -4q-38 0 -50.5 3t-12.5 15
t13.5 44.5t27.5 32.5q9 0 29 -2.5t33 -2.5q78 0 126.5 16t48.5 48q0 26 -22.5 40t-50 18.5t-50 24t-22.5 56.5q0 26 14 44.5t35.5 27.5t46 22t46 27.5t35.5 45.5t14 74q0 74 -58 74q-67 0 -160 -225z" />
    <glyph glyph-name="C" unicode="C" horiz-adv-x="556" 
d="M397 180l15 21l20 -8q51 -18 51 -37q0 -13 -17.5 -38.5t-48 -53.5t-83 -49t-112.5 -21q-105 0 -161 56t-56 140q0 112 72.5 232.5t178.5 198t200 77.5q66 0 105.5 -33.5t39.5 -90.5q0 -64 -39.5 -125t-92.5 -99.5t-101.5 -62t-71.5 -23.5q-12 0 -12 13q0 28 9.5 59
t29.5 40q67 28 124.5 82.5t57.5 105.5q0 44 -56 44q-68 0 -151.5 -71.5t-140 -166t-56.5 -161.5q0 -61 36.5 -93t86.5 -32q103 0 173 96z" />
    <glyph glyph-name="D" unicode="D" horiz-adv-x="796" 
d="M508 0h-132q-16 0 -55 6t-56 6q-3 0 -42 -7t-75 -7q-66 0 -104 15t-38 44q0 61 105 61q21 0 77 -9q59 -9 77 -9q23 0 74 88.5t91.5 181t40.5 109.5q0 22 -91.5 76.5t-122.5 54.5q-12 0 -20.5 -7t-8.5 -18q0 -18 21.5 -47.5t50.5 -55.5q13 -12 29.5 -23.5t24 -17.5t7.5 -9
q0 -15 -13.5 -42t-28.5 -27q-10 0 -40 21t-63 52.5t-58.5 75.5t-25.5 83q0 103 108 103q111 0 282 -131q5 5 14.5 17.5t16 20.5t10.5 8q5 0 34.5 -23.5t29.5 -27.5q0 -6 -16 -29t-16 -28q0 -4 22 -28t49 -56t49 -86.5t22 -112.5q0 -99 -58.5 -160.5t-170.5 -61.5zM641 221
q0 34 -17 73t-30 57t-45 60q-17 -37 -41 -92t-37 -84.5t-36 -69.5t-51 -75q56 -4 70 -4q187 0 187 135z" />
    <glyph glyph-name="E" unicode="E" horiz-adv-x="519" 
d="M349 396l-40 35q-10 12 -10 18q0 18 56 79t56 70q0 7 -9.5 10.5t-17.5 3.5q-69 0 -136 -69.5t-67 -140.5q0 -29 12.5 -52.5t25 -39t12.5 -25.5q0 -15 -25.5 -33.5t-55.5 -34.5t-55.5 -41.5t-25.5 -53.5q0 -38 65 -38q62 0 126 39t103 96q7 11 17 11h59q12 0 19 -2.5
t6 -10.5q-1 -9 -13.5 -32t-42 -56t-68 -63t-99 -51t-128.5 -21q-67 0 -104.5 30t-37.5 83q0 90 73 147q14 11 33.5 23.5t29 19.5t9.5 13q0 3 -8 14.5t-15.5 33t-7.5 48.5q0 42 19.5 90t56 94.5t100.5 77t143 30.5q53 0 82 -16t29 -59q0 -28 -23.5 -66t-56.5 -78.5t-41 -53.5
q-21 -37 -29 -37q-5 0 -16 8z" />
    <glyph glyph-name="F" unicode="F" horiz-adv-x="667" 
d="M505 232h122l-31 -72q-6 -14 -21 -14h-115q-75 -132 -114 -185q-8 -11 -19 -11h-116q46 54 90 115t44 74q0 7 -10 7h-43q-20 0 -20 4q0 10 35 71q7 11 15 11h72q28 41 93 186.5t65 175.5q0 12 -31 12q-52 0 -114 -28.5t-114 -71.5t-96 -89.5t-69 -84.5t-25 -55
q0 -12 15 -12q39 0 101.5 66t109.5 137q13 20 19 20q3 0 19 -45.5t16 -51.5q0 -8 -14 -27q-51 -69 -124.5 -132t-139.5 -63q-43 0 -69.5 25t-26.5 68q0 61 54.5 138.5t134 142.5t175.5 110t173 45q48 0 78 -22t30 -68q0 -19 -12.5 -58t-33.5 -88.5t-39 -90.5t-39.5 -86.5
t-24.5 -52.5z" />
    <glyph glyph-name="G" unicode="G" horiz-adv-x="556" 
d="M199 -223l6 82q0 9 2.5 14t8 12.5t8.5 12.5q29 49 79 151l-2 2q-56 -57 -148 -57q-67 0 -107.5 52.5t-40.5 119.5q0 76 34.5 169t89 173.5t131.5 135t154 54.5q75 0 116 -31.5t41 -95.5t-60.5 -127t-97.5 -63q-8 0 -8 24v49q0 22 5 24q23 11 45 37.5t22 49.5
q0 22 -18 32.5t-41 10.5q-78 0 -154.5 -83t-119.5 -186t-43 -177q0 -34 20.5 -55t55.5 -21q45 0 96.5 41.5t82.5 83.5q8 11 24 48.5t35 60.5t46 23q21 0 31.5 -13.5t10.5 -33.5q0 -31 -23 -62.5t-27 -42.5q-20 -58 -46.5 -123t-62 -141.5t-72.5 -126t-64 -49.5q-10 0 -9 26z
" />
    <glyph glyph-name="H" unicode="H" horiz-adv-x="815" 
d="M583 0h-65q-14 0 -14 14q0 9 7.5 37t19 67.5t16.5 62.5q-13 -1 -60 -2.5t-71 -4.5q-127 -180 -342 -180q-117 0 -117 94q0 175 407 175q100 164 134 355q3 11 15 13q6 1 25 3.5t34.5 4.5t20.5 2q6 0 6 -11q0 -36 -39 -162t-84 -199q8 -3 29 -3q11 0 40 4t36 9
q70 225 131 338q28 50 67.5 77.5t64.5 27.5q9 0 9 -17q0 -7 -2.5 -13t-9.5 -18t-11 -21q-79 -177 -116 -287l-23 -67q3 1 22.5 8t27.5 7t11 -11q14 -47 14 -72q0 -5 -16 -10t-47.5 -12t-47.5 -12q-17 -40 -51 -178q-5 -19 -21 -19zM47 102q0 -28 50 -28q102 0 195 95
q-245 -13 -245 -67z" />
    <glyph glyph-name="I" unicode="I" horiz-adv-x="444" 
d="M234 386l-34 -21q-58 -32 -67 -32t-9 21q0 47 27.5 118.5t58.5 120.5q34 53 83 91t104 38q46 0 67 -32.5t21 -79.5q0 -42 -19.5 -115.5t-57.5 -159.5t-86.5 -162.5t-115 -127.5t-134.5 -51q-37 0 -64 6.5t-27 16.5q0 12 12 32l25 37q11 15 18 15q2 0 15 -3.5t25 -3.5
q47 0 105 54t112 172q38 82 65 168t27 113q0 21 -17 21q-23 0 -54.5 -43t-47.5 -85q-32 -84 -32 -108z" />
    <glyph glyph-name="J" unicode="J" horiz-adv-x="444" 
d="M32 -177q18 0 39.5 37t59.5 119t68 135l-2 2q-61 -52 -120 -137.5t-59 -131.5q0 -24 14 -24zM197 324l-63 -40q-12 -7 -14 -7q-4 0 -4 22q0 59 20 130.5t55 137.5t90.5 110.5t117.5 44.5q39 0 65 -27.5t26 -67.5q0 -81 -82.5 -280t-155.5 -346t-93 -178q-53 -84 -116 -92
q-9 -1 -18 -1q-43 0 -70 30t-27 74q0 78 54 164t127 149.5t151 106.5q15 8 72.5 164t57.5 180q0 10 -5.5 17t-12.5 7q-45 0 -86.5 -79t-67.5 -194q-3 -12 -21 -25z" />
    <glyph glyph-name="K" unicode="K" horiz-adv-x="537" 
d="M419 698l-105 -217l2 -2l76 59q3 1 23 18.5t54 54t61 74.5q9 13 16 13h54q21 0 21 -17q0 -39 -95.5 -133.5t-234.5 -183.5q-6 -4 -14 -8.5t-12 -7t-8.5 -5.5t-6.5 -4.5t-4.5 -3.5t-3 -4t-0.5 -4q0 -5 23 -42q33 -51 52.5 -78.5t56.5 -73.5t78.5 -80t88.5 -59h-169
q-16 12 -60 69q-56 72 -92 129q-18 29 -24 29q-4 0 -14 -24q-42 -83 -81 -184q-5 -13 -18 -13h-92q42 105 125 271q17 34 17 40t-10 19t-10 22q0 17 16.5 32t35.5 26t21 15q9 17 57 122.5t63 136.5q7 14 17 14h96z" />
    <glyph glyph-name="L" unicode="L" horiz-adv-x="611" 
d="M556 111l-20 -80q-4 -15 -15 -20t-34 -7q-45 -4 -234 -4q-38 0 -107 16q-44 -20 -101 -20q-99 0 -99 60q0 29 35 44t73 15q16 0 47 -4.5t37 -5.5q35 35 69.5 105.5t56.5 135.5q50 144 81 201q81 151 193 151q51 0 83 -30.5t32 -80.5q0 -45 -34 -124t-69 -134
q-5 -8 -26 -10q-31 -5 -51 -9.5t-27 -6.5t-11 -2q-9 0 -9 8q0 4 3 9t10 15t12 19q102 165 102 220q0 32 -23 32q-69 0 -140 -189q-3 -9 -23 -63.5t-28 -74t-25.5 -60.5t-35 -70.5t-37.5 -56.5q31 -7 81 -7q109 0 234 28z" />
    <glyph glyph-name="M" unicode="M" horiz-adv-x="796" 
d="M74 -14h-119q53 51 113 140.5t94 151t96.5 184t73.5 143.5q3 5 11.5 23.5t13.5 26.5t15 20.5t22 17.5t27 5q28 0 43 -16t15 -43q0 -15 -5.5 -46t-16 -78t-21.5 -91t-26.5 -108t-25.5 -106h2q194 271 356 433q19 19 30.5 28.5t31 18t40.5 8.5q23 0 36.5 -13t13.5 -35
q0 -28 -43 -106q-4 -7 -29.5 -53.5t-35.5 -65t-34.5 -65.5t-36.5 -74.5t-30 -71t-27 -74.5t-16 -67t-7 -66q0 -7 -24 -7q-3 0 -21 -3t-30 -3q-17 0 -17 18q0 69 35 169t70 169t90 167h-2q-195 -231 -363 -463q-41 -54 -69 -54q-24 0 -33 11.5t-9 37.5q0 19 7.5 58.5
t21.5 98.5t26 104t30.5 115.5t24.5 92.5l-2 2q-2 -3 -34.5 -75t-53.5 -114t-57.5 -112.5t-74.5 -128.5t-76 -104z" />
    <glyph glyph-name="N" unicode="N" horiz-adv-x="611" 
d="M60 -18h-108q48 50 125 197.5t126 257.5t76 177q32 84 80 84q36 0 49 -22.5t13 -78.5v-394h2q5 14 23 67.5t27.5 80t26 69.5t31.5 75t31 58q48 79 61 79q7 0 16.5 -49t9.5 -59q0 -4 -14 -26q-25 -43 -34 -59t-18.5 -37.5t-12.5 -31.5t-16 -49t-28 -81q-54 -152 -78 -196
t-60 -44q-30 0 -41 18.5t-11 69.5v454h-2q-3 -7 -49 -121t-69.5 -167.5t-66 -137t-76.5 -128.5q-5 -6 -13 -6z" />
    <glyph glyph-name="O" unicode="O" horiz-adv-x="593" 
d="M198 -6q-92 0 -140.5 53t-48.5 145q0 111 62.5 234t170 209.5t220.5 86.5q45 0 45 -43q0 -39 -38 -45q-94 -12 -179.5 -82.5t-135 -168t-49.5 -188.5q0 -109 98 -109q68 0 137 68.5t109.5 156.5t40.5 153q0 13 -8 24.5t-25 11.5q-67 0 -100 -129q-5 -19 -44 -37t-53 -18
q-10 0 -10 32q0 50 28 105t82.5 95t117.5 40q51 0 79.5 -35.5t28.5 -93.5q0 -97 -51.5 -204t-143.5 -184t-193 -77z" />
    <glyph glyph-name="P" unicode="P" horiz-adv-x="500" 
d="M426 542q0 84 -53 84q-36 0 -79 -61t-74.5 -137t-53 -138.5t-21.5 -71.5q0 -32 -14.5 -96t-45 -125t-64.5 -61q-33 0 -33 54q0 12 18 86t54 183t81.5 212.5t109.5 177t129 73.5q144 0 144 -187q0 -68 -21.5 -138.5t-58 -129t-92 -96t-118.5 -37.5q-15 0 -27.5 14
t-12.5 39q0 8 4 15t8.5 11t14 8.5t14 6t16.5 4t14 3.5q55 14 93.5 73t53 120t14.5 114z" />
    <glyph glyph-name="Q" unicode="Q" horiz-adv-x="611" 
d="M639 538q0 -58 -41 -131t-100 -135t-120.5 -111t-105.5 -70v-2q18 -1 109 -1q73 0 168 12q-12 -57 -19 -74.5t-17 -19.5q-51 -6 -168 -6q-111 0 -181 21q-52 -27 -105 -27q-98 0 -98 66q0 34 27.5 50t64.5 16q27 0 53 -5.5t32 -5.5q13 0 32 11.5t99 65.5
q89 60 179.5 169.5t90.5 182.5q0 64 -92 64q-75 0 -147 -69t-104 -147q-11 -24 -15 -24q-5 0 -33.5 30t-28.5 38q0 12 16 40q121 222 320 222q79 0 131.5 -39.5t52.5 -120.5z" />
    <glyph glyph-name="R" unicode="R" horiz-adv-x="463" 
d="M10 -6q-19 0 -28.5 12t-9.5 28q0 44 57 223.5t89 249.5q49 109 99.5 150t108.5 41q68 0 103 -49.5t35 -126.5q0 -88 -38.5 -168t-103.5 -110q-3 -1 -9 -4q-33 -16 -34 -24q0 -7 20.5 -31t53.5 -62.5t53 -68.5q23 -35 23 -52q0 -4 -33 -27t-38 -23q-4 0 -34 45
q-36 53 -71 95.5t-52 59.5t-27.5 35.5t-10.5 40.5q0 20 15 35.5t38 26t49.5 29.5t49.5 42.5t38 69t15 105.5q0 31 -16 51.5t-38 20.5q-25 0 -53 -32.5t-51.5 -83t-42 -100t-31.5 -94.5q-8 -30 -19 -90t-16 -81q-12 -48 -40 -90.5t-51 -42.5z" />
    <glyph glyph-name="S" unicode="S" horiz-adv-x="556" 
d="M499 186q0 -34 -16 -66t-49.5 -61.5t-95 -47t-142.5 -17.5q-118 0 -178.5 29.5t-60.5 98.5q0 41 33 71.5t77 44t87 13.5q54 0 72.5 -5.5t18.5 -22.5q0 -68 -27 -68q-16 0 -42 3t-37 3q-12 0 -25 -2t-27.5 -6t-24 -13t-9.5 -22q0 -17 43.5 -25.5t100.5 -8.5
q77 0 139.5 25.5t62.5 67.5q0 29 -26.5 51t-64 38.5t-75 36t-64 54t-26.5 82.5q0 106 94.5 182.5t234.5 76.5q49 0 83 -23.5t34 -69.5q0 -53 -48 -99t-100.5 -68t-83.5 -22q-13 0 -17.5 5.5t-4.5 24.5q0 18 5.5 40t16.5 24q30 5 85 33t55 49q0 16 -38 16q-42 0 -91.5 -17
t-89 -54t-39.5 -82q0 -30 27 -54t65 -42t76 -38.5t65 -55t27 -79.5z" />
    <glyph glyph-name="T" unicode="T" horiz-adv-x="574" 
d="M331 -24h-61q-32 0 -32 14q0 7 9.5 21.5t31.5 50t51 87.5t75.5 153.5t97.5 228.5q7 19 7 24q0 8 -8 8q-15 0 -173 -36t-158 -50q0 -7 53 -36.5t53 -33.5q0 -15 -25 -40t-41 -25q-6 0 -42.5 21t-74 57t-37.5 66q0 24 20.5 43t59.5 34.5t92.5 29t122 26.5t145.5 27
q34 6 52 9q30 53 73 53q21 0 38 -13.5t17 -34.5q0 -22 -14.5 -43t-35.5 -29q-117 -289 -256 -580q-9 -18 -17 -25t-23 -7z" />
    <glyph glyph-name="U" unicode="U" horiz-adv-x="685" 
d="M217 97l315 321q99 102 128 161q8 17 37.5 25.5t53.5 8.5q15 0 15 -12q0 -3 -49.5 -99.5t-104.5 -220.5t-66 -188q-6 -36 -6 -74q0 -8 -43 -15.5t-54 -7.5q-5 0 -5 34q0 27 21.5 101.5t63.5 151.5l-2 2q-265 -291 -345 -291q-67 0 -67 60q0 31 22.5 86t90.5 199
q19 39 29 61t25 52.5t23.5 47.5t17 36t12 30.5t3.5 19.5q0 20 -28 20q-21 0 -40.5 -10t-35.5 -31.5t-27 -39t-23.5 -49t-16.5 -43.5l-13 -39q-7 -22 -46.5 -42.5t-51.5 -20.5q-11 0 -11 18q0 15 9.5 52t32 88.5t52.5 97.5t78 78.5t102 32.5q52 0 86.5 -23.5t34.5 -72.5
q0 -64 -101 -268l-118 -237h2z" />
    <glyph glyph-name="V" unicode="V" horiz-adv-x="648" 
d="M653 611l47 29q14 7 19 7q7 0 7 -21q0 -33 -17 -91.5t-47 -129t-74.5 -143.5t-94.5 -132.5t-112.5 -97.5t-124.5 -38t-91 30t-29 94q0 47 48 155.5t96.5 203t48.5 107.5q0 24 -32 24q-29 0 -57.5 -25t-48 -62t-32.5 -70.5t-19 -60.5q-4 -19 -39 -39t-55 -20q-12 0 -12 14
q0 29 18 83.5t51 116.5t90 107.5t124 45.5q49 0 81.5 -24.5t32.5 -70.5q0 -33 -31.5 -104t-70 -140t-70 -140.5t-31.5 -105.5q0 -29 43 -29q56 0 139 95t145 213.5t69 189.5q1 10 29 29z" />
    <glyph glyph-name="W" unicode="W" horiz-adv-x="889" 
d="M384 492l-180 -367h2q71 73 188 206.5t169 197.5q3 3 9 11.5t9 12t9.5 7t13.5 3.5q22 0 45 -11.5t23 -19.5q0 -13 -86 -198.5t-86 -224.5q0 -12 10.5 -18.5t23.5 -6.5q27 0 74 43.5t98 114.5t99.5 174.5t75.5 210.5q3 11 39.5 25.5t49.5 14.5q9 0 9 -21
q0 -37 -25.5 -113.5t-71.5 -168t-101 -175t-123 -139.5t-129 -56q-58 0 -89.5 28t-31.5 83q0 59 83 212h-2q-34 -38 -77 -88t-65.5 -75.5t-51.5 -57.5t-45.5 -46.5t-36 -30t-35 -20.5t-31.5 -5q-25 0 -43.5 14.5t-18.5 41.5q0 46 115.5 274t115.5 263q0 21 -21 21
q-53 0 -89 -47.5t-74 -167.5q-6 -18 -41 -39.5t-53 -21.5q-15 0 -15 18q0 19 11 58.5t34.5 89.5t54.5 94.5t77.5 75t97.5 30.5q49 0 83.5 -24t34.5 -67q0 -49 -32 -115z" />
    <glyph glyph-name="X" unicode="X" horiz-adv-x="556" 
d="M463 -6h-66q-25 0 -34 17q-13 25 -22.5 87.5t-9.5 108.5q0 19 -9 19q-4 0 -55.5 -58t-110 -116t-78.5 -58h-84q-25 0 -25 9q0 4 1 7t5 6.5t8 6t14 8.5t18 12q119 82 309 316q4 99 4 163q0 40 -2 59.5t-4.5 23t-8.5 3.5q-16 0 -50 -36.5t-61.5 -73t-29.5 -36.5
q-4 0 -20.5 40t-15.5 47q2 9 19.5 32.5t44.5 50t65.5 46.5t74.5 20q52 0 71.5 -28.5t17.5 -89.5l-3 -108l2 -2q47 59 100 111.5t84 77t36 24.5q7 0 7 -28q0 -66 -27 -90q-24 -21 -53.5 -52t-45.5 -50t-54 -64.5t-48 -56.5q-2 -52 -2 -66q0 -75 13.5 -138.5t27 -97.5
t13.5 -36q0 -6 -2.5 -8t-13.5 -2z" />
    <glyph glyph-name="Y" unicode="Y" horiz-adv-x="667" 
d="M114 363l-56 -32q-11 -7 -23 -7q-10 0 -10 20q0 8 7.5 41.5t28 88t50.5 103.5t82 85t115 36q47 0 76 -24.5t29 -70.5q0 -10 -2 -21.5t-4.5 -22t-8.5 -27.5t-10.5 -28.5t-14.5 -33.5t-15.5 -35t-18.5 -41.5t-20 -43.5l-119 -262l2 -2l67 53q30 24 73 63t105 99
t108.5 122.5t55.5 105.5q3 14 14.5 23.5t26.5 9.5h34q23 0 23 -20q0 -12 -50 -136.5t-116.5 -273t-139.5 -269.5t-111 -121q-13 0 -26.5 11t-13.5 23q0 7 18 38.5t52 92t61 117.5l88 186h-2q-36 -41 -64 -69.5t-71.5 -67t-87 -59t-82.5 -20.5q-28 0 -48 16.5t-20 43.5
q0 10 2 21t8 26t10.5 25.5t15 34.5t17.5 39l144 329q20 46 20 57q0 8 -7.5 15t-19.5 7q-24 0 -45.5 -14t-35.5 -32.5t-27.5 -47t-19.5 -46.5t-14 -43l-7 -25q-10 -29 -23 -37z" />
    <glyph glyph-name="Z" unicode="Z" horiz-adv-x="463" 
d="M266 292v-2q58 0 87 -38.5t29 -95.5q0 -63 -30.5 -135.5t-78 -131.5t-111.5 -98.5t-125 -39.5q-53 0 -87.5 30.5t-34.5 82.5t38.5 111.5t88 97.5t82.5 38q13 0 22.5 -11t9.5 -24q0 -16 -22 -39.5t-48.5 -45.5t-48.5 -54.5t-22 -63.5q0 -32 35 -32q48 0 103.5 54.5
t92 128.5t36.5 129q0 28 -13.5 42.5t-32.5 18.5t-38 8.5t-32.5 19t-13.5 42.5q0 18 25.5 44.5t62 55t73.5 58.5t62.5 64t25.5 64q0 15 -13 24.5t-38 9.5q-36 0 -91.5 -25t-104.5 -83q-9 -11 -18 -11q-10 0 -10 13q0 21 12 70.5t24 58.5q92 71 187 71q66 0 109 -32.5
t43 -96.5q0 -44 -21.5 -85.5t-64 -79.5t-72 -59.5t-77.5 -52.5z" />
    <glyph glyph-name="bracketleft" unicode="[" horiz-adv-x="444" 
d="M183 -244h-176l319 942h179l-20 -62h-98l-281 -818h95z" />
    <glyph glyph-name="backslash" unicode="\" horiz-adv-x="278" 
d="M-30 722h87l251 -746h-83z" />
    <glyph glyph-name="bracketright" unicode="]" horiz-adv-x="444" 
d="M63 -244h-179l20 62h98l281 818h-95l18 62h176z" />
    <glyph glyph-name="asciicircum" unicode="^" horiz-adv-x="600" 
d="M428 198l-128 288l-128 -288h-59l161 363h52l161 -363h-59z" />
    <glyph glyph-name="underscore" unicode="_" horiz-adv-x="500" 
d="M500 -125h-500v50h500v-50z" />
    <glyph glyph-name="grave" unicode="`" horiz-adv-x="222" 
d="M44 597h102l10 -19q41 -74 77 -132l12 -20h-48q-9 0 -24 15.5t-31.5 39t-20.5 27.5z" />
    <glyph glyph-name="a" unicode="a" horiz-adv-x="426" 
d="M297 236h55q-64 -130 -64 -140q0 -8 10 -8q7 0 42 24.5t58 43.5q18 16 22 16q11 0 11 -48q0 -33 -54 -67q-2 -1 -24.5 -15t-31 -18.5t-26.5 -13.5t-31 -12.5t-24 -3.5q-26 0 -34.5 12.5t-6.5 39.5q-26 -27 -48 -39.5t-54 -12.5h-19q-41 0 -66.5 33t-25.5 91v23
q0 51 30 94.5t75.5 70t96 41.5t95.5 15q53 0 73 -8q6 -26 6 -68q0 -9 -6 -9l-4 2q-5 2 -12 4.5t-15.5 4.5t-20.5 4t-24 2q-65 0 -131.5 -46.5t-66.5 -105.5v-29q0 -14 7 -24.5t19 -10.5q35 0 81.5 53t76.5 111q18 -6 31 -6z" />
    <glyph glyph-name="b" unicode="b" horiz-adv-x="407" 
d="M361 306q0 -36 -9.5 -71t-18.5 -57t-9 -26q0 -13 20 -13q11 0 34 17.5t24 17.5q9 0 9 -34q0 -46 -19 -56q-33 -19 -63 -19t-52 14q-45 -48 -77 -65.5t-90 -17.5q-36 0 -59.5 21.5t-23.5 48.5q0 18 6 54q-9 -6 -20.5 -15.5t-19 -16t-10.5 -6.5q-8 0 -8 39q0 38 6 43
q1 1 3 2q15 8 57 45.5t53 55.5q2 3 76 191t102 235q17 29 49 29q33 0 33 -41q0 -37 -31.5 -110.5t-72.5 -151t-46 -90.5q-11 -27 -26.5 -65t-24.5 -59.5t-18.5 -46t-13.5 -41t-4 -28.5q0 -25 22 -25q19 0 56 28.5t37 45.5q0 8 -2.5 18t-2.5 16q0 73 31 130t66 57
q37 0 37 -53z" />
    <glyph glyph-name="c" unicode="c" horiz-adv-x="352" 
d="M299 212h-70q-15 0 -15 4q0 1 5 9t10.5 21.5t5.5 26.5q0 25 -21 25q-46 0 -87 -48t-41 -111q0 -69 58 -69q42 0 89 26t78 51.5t34 25.5q12 0 12 -50q0 -26 -31 -49q-54 -39 -98.5 -59.5t-94.5 -20.5q-73 0 -107 24.5t-34 93.5v38q0 51 25.5 93t63 67t77 38.5t71.5 13.5
q51 0 77 -16.5t26 -43.5q0 -19 -13.5 -54.5t-19.5 -35.5z" />
    <glyph glyph-name="d" unicode="d" horiz-adv-x="463" 
d="M79 -6q-94 0 -94 124q0 62 12.5 98t58.5 80q65 60 140 60q10 0 28.5 -2t23.5 -2q45 160 112.5 265t111.5 105q37 0 37 -99q0 -112 -49 -234t-125 -222q-7 -9 -21.5 -24.5t-23.5 -27t-9 -18.5q0 -23 25 -23q12 0 48.5 24t67.5 48t32 24q7 0 11 -14t4 -24q0 -34 -29 -55
q-117 -85 -178 -85q-25 0 -37 10t-26 37q-32 -25 -57 -35t-63 -10zM299 247l2 -2q53 71 96 189.5t50 195.5l-2 2q-41 -60 -89 -188.5t-57 -196.5zM109 74q19 0 54.5 22.5t35.5 40.5q0 23 6.5 57t13 59t6.5 26q0 9 -18 9q-43 0 -87.5 -44t-44.5 -102q0 -68 34 -68z" />
    <glyph glyph-name="e" unicode="e" horiz-adv-x="352" 
d="M-8 115v47q0 81 81 140.5t165 59.5q88 0 88 -88q0 -35 -27.5 -66.5t-65 -50.5t-70.5 -30t-48 -11q-25 0 -25 -11q0 -12 16.5 -23.5t34.5 -11.5q41 0 94 27t82 50q5 4 11 9.5t9 8.5t5.5 5t4.5 2q10 0 10 -33q0 -22 -4.5 -34t-19.5 -26q-104 -85 -212 -85q-129 0 -129 121z
M232 261q0 29 -25 29q-37 0 -74 -36.5t-49 -75.5q36 2 92 28t56 55z" />
    <glyph glyph-name="f" unicode="f" horiz-adv-x="278" 
d="M261 82l-54 -37q-4 -55 -6.5 -76t-11.5 -58.5t-24 -67.5q-26 -51 -64 -94t-79 -43q-36 0 -54.5 21.5t-18.5 58.5q0 19 15.5 74t32 104t38 111.5t23.5 67.5h-2l-18 -16q-18 -16 -35.5 -30.5t-21.5 -14.5q-7 0 -7 40q0 35 14 47q114 100 123 123q34 81 73.5 204t64 174.5
t55.5 51.5q32 0 32 -38q0 -47 -28.5 -127.5t-64.5 -159t-38 -84.5q-27 -82 -73 -208.5t-73.5 -204.5t-27.5 -89q0 -17 10 -17q24 0 68 106q32 76 40 163q2 19 10 25q35 27 65 50.5t38.5 30t10.5 6.5t4.5 -4t4.5 -13t2 -21q0 -39 -23 -55z" />
    <glyph glyph-name="g" unicode="g" horiz-adv-x="426" 
d="M275 241h86q-37 -76 -69 -160l2 -2q21 15 53.5 40t52.5 40t21 15q8 0 8 -38t-10 -46q-189 -146 -206 -181q-10 -22 -25.5 -58t-25 -57t-23 -44t-27.5 -33.5t-31 -10.5q-21 0 -32.5 12.5t-11.5 29.5q0 39 20 84t44.5 77t44.5 59t20 34q0 3 0.5 8.5t0.5 6.5
q-34 -23 -75 -23q-48 0 -74 31t-26 81v47q0 53 26.5 95t70 66t93.5 36t102 12q57 0 69.5 -6t12.5 -32q0 -44 -7 -44l-9 4q-9 3 -29 6.5t-48 3.5q-78 0 -132.5 -43.5t-54.5 -99.5v-27q0 -46 30 -46q57 0 154 155l3 4.5t2 3.5z" />
    <glyph glyph-name="h" unicode="h" horiz-adv-x="500" 
d="M212 337l-66 -166h2q32 20 90.5 70t104 82.5t71.5 32.5q22 0 33 -10t11 -24q0 -31 -48 -124.5t-48 -100.5t7 -7q14 0 70 42t57 42q3 0 6.5 -14.5t3.5 -30.5q0 -34 -45 -64q-104 -71 -161 -71q-50 0 -50 42q0 12 20 57t39.5 85.5t19.5 41.5q0 5 -2 5q-17 0 -138 -107
q-16 -15 -40 -36.5t-38.5 -34.5t-30.5 -26.5t-27 -20t-18 -6.5q-35 0 -35 33q0 13 29 89l-2 2q-9 -7 -20 -17t-17 -14.5t-9 -4.5q-4 0 -4 47q0 31 10 41q115 101 124 124q7 16 31.5 81.5t44.5 115.5t46 108t48.5 90.5t38.5 32.5q41 0 41 -36q0 -88 -149 -349z" />
    <glyph glyph-name="i" unicode="i" horiz-adv-x="259" 
d="M141 350h94l-95 -208q-16 -37 -16 -43q0 -9 6 -9q7 0 22.5 9t29.5 19t31 23t18 14q3 2 8 7t8.5 8t6.5 3q9 0 9 -34q0 -38 -13 -48q-119 -95 -192 -95q-26 0 -38 9t-12 31q0 17 13.5 49.5t13.5 34.5l-2 2q-8 -7 -20.5 -17.5t-20 -16.5t-9.5 -6q-7 0 -7 41q0 36 11 46
q120 107 136 136q5 9 18 45zM243 521q20 0 33 -15t13 -35q0 -25 -19 -44.5t-45 -19.5q-20 0 -33 15t-13 35q0 25 19 44.5t45 19.5z" />
    <glyph glyph-name="j" unicode="j" horiz-adv-x="296" 
d="M185 350h74q-34 -102 -110 -298l2 -1q134 122 140 122q10 0 10 -49q0 -23 -22 -45l-178 -168q-5 -5 -13.5 -29.5t-22 -63.5t-26.5 -67q-24 -53 -60 -53q-41 0 -41 64q0 45 31.5 105t55.5 88q5 6 18.5 42.5t34 96t35.5 96.5l-2 1q-24 -20 -59.5 -50.5t-52 -45t-18.5 -14.5
q-5 0 -5 54q0 24 9 32q116 99 200 183zM263 521q20 0 33 -15t13 -35q0 -25 -19 -44.5t-45 -19.5q-20 0 -33 15t-13 35q0 25 19 44.5t45 19.5z" />
    <glyph glyph-name="k" unicode="k" horiz-adv-x="500" 
d="M469 273q0 -38 -32 -75.5t-68 -51.5q-22 -9 -32 -13t-23 -11t-17.5 -13t-4.5 -13q0 -16 14 -16q49 0 135 54q17 10 29 20t16 14t5 4q14 0 14 -35q0 -38 -11 -47q-45 -37 -107 -66.5t-123 -29.5q-28 0 -50 19t-22 49q0 22 14.5 56t31.5 56q35 6 62 19.5t40.5 28.5t20 27
t6.5 19t-6 12.5t-12 5.5q-77 0 -254 -249q-31 -43 -61 -43q-34 0 -34 31q0 18 31 93l-2 2q-7 -5 -18 -15.5t-18.5 -16.5t-11.5 -6q-6 0 -6 49q0 27 12 38q108 96 116 113q42 84 90.5 208.5t77 178t58.5 53.5q41 0 41 -38q0 -36 -34.5 -112.5t-81.5 -168.5t-62 -132l2 -2
q35 33 55 48.5t54.5 30t72.5 14.5q42 0 67.5 -24t25.5 -65z" />
    <glyph glyph-name="l" unicode="l" horiz-adv-x="259" 
d="M322 675q0 -57 -37 -154t-76 -171q-17 -32 -51.5 -127t-34.5 -118q0 -15 7 -15q12 0 66.5 41.5t55.5 41.5q4 0 7.5 -10t3.5 -22q0 -27 -8 -42.5t-30 -31.5q-106 -73 -153 -73q-55 0 -55 47q0 12 24 84l-2 2q-13 -9 -27 -20.5t-21 -17.5t-10 -6q-6 0 -6 44q0 32 10 40
q26 21 53 46.5t42.5 43t16.5 21.5q17 48 47.5 134.5t55 153.5t40.5 108q9 23 19.5 35.5t28.5 12.5q34 0 34 -47z" />
    <glyph glyph-name="m" unicode="m" horiz-adv-x="685" 
d="M139 350h88q-53 -111 -63 -141l2 -2q9 5 51.5 44t88.5 72t74 33q47 0 47 -33q0 -10 -21 -54.5t-25 -67.5q33 26 68.5 56.5t53 45.5t37 29t33.5 19t30 5q19 0 30.5 -9.5t11.5 -21.5q0 -19 -48 -116.5t-48 -109.5q0 -7 9 -7q11 0 41 20t55 40.5t26 20.5q10 0 10 -36
t-16 -50q-32 -26 -92 -59.5t-103 -33.5q-20 0 -33 13.5t-13 28.5q0 16 38 95.5t38 84.5q0 4 -3 4q-6 0 -125 -113q-18 -17 -40.5 -39.5l-33 -33t-23.5 -21.5t-22.5 -15t-19.5 -4q-15 0 -22.5 9t-7.5 21q0 21 40.5 107t40.5 89q0 6 -2 6t-36 -31t-71 -65t-41 -38
q-11 -8 -34.5 -34.5t-44 -45t-34.5 -18.5q-36 0 -36 30q0 8 6.5 27t15.5 41l9 22l-2 2q-3 -2 -13.5 -11t-20 -17t-11.5 -8q-3 0 -3 24q0 54 7 60q28 24 74.5 69t58.5 63q2 4 24 54z" />
    <glyph glyph-name="n" unicode="n" horiz-adv-x="500" 
d="M143 350h85q-8 -18 -26 -56t-30 -64t-12 -28q0 -3 5 -3q3 0 52.5 39.5t106.5 78.5t79 39q53 0 53 -37q0 -18 -48.5 -113t-48.5 -106q0 -10 5 -10q12 0 43.5 21t58.5 41l27 21q12 0 12 -41q0 -30 -12 -42q-25 -25 -90 -60.5t-99 -35.5q-58 0 -58 41q0 20 37.5 98.5
t37.5 81.5t-2 3q-5 0 -36 -24t-72 -58t-47 -39q-18 -15 -40.5 -34.5t-34 -30t-25 -20.5t-23 -14t-18.5 -4q-13 0 -21 8.5t-8 19.5q0 17 31 93h-2q-40 -33 -42 -33q-5 0 -5 57q0 23 33 48q22 17 67 64.5t53 78.5q6 20 14 20z" />
    <glyph glyph-name="o" unicode="o" horiz-adv-x="370" 
d="M214 384q43 0 75.5 -29.5t32.5 -77.5q0 -13 -3 -22.5t-6 -13.5t-8 -9l-6 -6q9 -27 9 -37q0 -7 -5.5 -20.5t-6.5 -18.5q3 -2 16 -2q11 0 23 6.5t20 13t9 6.5q6 0 6 -43q0 -39 -15 -46q-40 -19 -60 -19q-15 0 -29 8q-37 -43 -74 -61.5t-91 -18.5q-55 0 -87.5 33.5
t-32.5 92.5q0 126 70.5 195t162.5 69zM131 78q16 0 36 11.5t26 25.5q-13 33 -13 44q0 28 13 47t26 30t13 19q0 15 -10.5 27t-33.5 12q-37 0 -74 -45.5t-37 -109.5q0 -61 54 -61z" />
    <glyph glyph-name="p" unicode="p" horiz-adv-x="537" 
d="M174 350h67q-11 -32 -33 -90h2q75 96 163 96q39 0 62.5 -26.5t23.5 -69.5q0 -52 -23 -93.5t-67 -86.5v-2q44 9 71.5 25t66.5 51q20 18 22 18q13 0 13 -36q0 -26 -9.5 -39.5t-32.5 -29.5q-90 -63 -167 -63q-29 0 -45 8q-36 -18 -70 -18q-18 0 -36 16t-18 35q0 26 26 26
q6 0 20.5 -3.5t22.5 -3.5q16 0 48 34t58 80.5t26 77.5q0 16 -22 16q-41 0 -113.5 -78.5t-111.5 -181.5q-38 -101 -70 -248q-12 -58 -51 -58q-19 0 -30 14t-11 35q0 35 33.5 134.5t63.5 173.5t55 132h-2l-33 -34q-81 -79 -90 -79q-5 0 -5 14v51q0 12 14 26q7 7 49.5 42.5
t80 68.5t41.5 44q6 18 11 22z" />
    <glyph glyph-name="q" unicode="q" horiz-adv-x="444" 
d="M398 338v-83q-55 39 -118 39q-71 0 -132.5 -43.5t-61.5 -114.5q0 -60 24 -60q62 0 156 153q7 11 21 11q66 0 66 -8q0 -9 -9 -25l-79 -168q-101 -212 -101 -229q0 -28 16 -28q13 0 35.5 31t46.5 96t32 142q25 25 60.5 55.5t59 49t25.5 18.5t5 -5t5 -15.5t2 -22.5
q0 -18 -3 -26t-14 -18q-40 -37 -78 -65q-6 -127 -62 -221.5t-142 -94.5q-78 0 -78 80q0 23 14.5 59t41 89.5t38.5 82.5l-2 2q-36 -25 -76 -25q-46 0 -72 30t-26 77v40q0 71 50.5 123.5t117.5 75t136 22.5q61 0 102 -24z" />
    <glyph glyph-name="r" unicode="r" horiz-adv-x="370" 
d="M94 355q0 26 15 45t40 19q22 0 36.5 -13.5t14.5 -26.5q0 -33 11 -33q5 0 21.5 3t26.5 3q25 0 42 -15t17 -40q0 -9 -3.5 -21t-12.5 -30.5t-17 -34.5t-23 -45.5t-25 -50.5l-7 -14q0 -11 13 -11q7 0 43.5 23.5t52.5 38.5q23 21 25 21q13 0 13 -42q0 -30 -11 -39
q-43 -38 -100 -68t-88 -30q-61 0 -61 54q0 22 49 121.5t49 102.5q0 8 -19 8q-14 0 -20.5 -5t-18.5 -22q-17 -25 -59 -67.5t-77 -72.5t-38 -30q-7 0 -7 35q0 41 6 47q78 71 126 153q-14 13 -14 37z" />
    <glyph glyph-name="s" unicode="s" horiz-adv-x="333" 
d="M142 159q7 37 7 62q0 13 -3 13q-5 0 -80.5 -75.5t-81.5 -75.5t-6 37q0 41 4 45q47 38 97 93t81 103q-1 39 16 74t50 35q40 0 40 -49q0 -23 -11.5 -41t-11.5 -23v-118q-3 -102 -34 -144q20 1 68.5 39.5t50.5 38.5q12 0 12 -33q0 -23 -4.5 -34.5t-20.5 -24.5
q-91 -75 -168 -75q-28 0 -43 -5q-19 -7 -25 -7q-34 0 -55 15.5t-21 43.5q0 19 25 19q8 0 27.5 -3t32.5 -3q18 0 32.5 27.5t21.5 65.5z" />
    <glyph glyph-name="t" unicode="t" horiz-adv-x="278" 
d="M129 484h64l7 27q6 23 14 46t22.5 56.5t33.5 54t39 20.5q27 0 27 -42q0 -17 -57 -162h46q13 0 13 -22q0 -48 -29 -48h-54q-127 -304 -127 -319q0 -13 13 -13q15 0 72.5 46t58.5 46q11 0 11 -38q0 -25 -8 -38.5t-38 -33.5q-32 -22 -79.5 -46t-79.5 -24q-54 0 -54 37
q0 16 34 112h-2q-16 -13 -34.5 -29t-27.5 -23.5t-12 -7.5q-8 0 -8 46q0 30 21 46q31 24 79 75.5t56 72.5l34 91h-54q-11 0 -11 17q0 24 8.5 38.5t21.5 14.5z" />
    <glyph glyph-name="u" unicode="u" horiz-adv-x="500" 
d="M404 350h60q12 0 12 -11q0 -1 -22 -47l-83 -176q-2 -4 -3.5 -7.5t-2.5 -5t-1 -2.5q0 -9 8 -9q10 0 42.5 20.5t53.5 38.5q27 23 28 23q4 0 7 -13t3 -26q0 -22 -7.5 -35t-27.5 -27q-37 -27 -87 -53t-79 -26q-54 0 -54 40q0 12 7 32.5t17.5 45t13.5 32.5l-2 2
q-177 -152 -248 -152q-43 0 -43 33q0 39 30 89l-2 2q-5 -4 -15 -13.5t-17.5 -16t-10.5 -6.5q-5 0 -5 33q0 45 11 54q69 56 120 117q16 19 26 50q5 14 10 14h74q10 0 10 -9q0 -4 -10 -24l-89 -187q-1 -3 -3 -7t-4 -7.5t-2 -4.5q0 -5 3 -5q6 0 54.5 37.5t62.5 51.5
q36 33 150 147q11 8 15 8z" />
    <glyph glyph-name="v" unicode="v" horiz-adv-x="426" 
d="M159 350h52q18 0 18 -7q0 -5 -5 -13.5t-6 -11.5q-16 -43 -42.5 -95t-43 -85.5t-16.5 -50.5q0 -9 7 -15t17 -6q25 0 70.5 42.5t46.5 54.5q4 31 17.5 72t41 81t57.5 40q31 0 31 -48q0 -15 -6.5 -37.5t-16 -43.5t-18.5 -39.5t-15 -29.5l-7 -12q2 -10 21 -10q12 0 34.5 19
t23.5 19q11 0 11 -33q0 -43 -18 -56q-36 -27 -64 -27q-34 0 -60 23q-79 -87 -161 -87q-51 0 -75.5 17.5t-24.5 58.5q0 32 9 53l-2 2q-11 -8 -23.5 -19.5t-19.5 -17.5t-10 -6q-5 0 -5 45q0 34 5 38q17 12 43.5 34t63 60t45.5 63q6 18 11.5 23t13.5 5z" />
    <glyph glyph-name="w" unicode="w" horiz-adv-x="593" 
d="M147 350h55q14 0 14 -5q0 -7 -55.5 -132t-55.5 -134q0 -13 15 -13q21 0 77.5 61.5t84.5 116.5q15 30 22.5 42.5t21 25t29.5 12.5q29 0 29 -27q0 -10 -34 -110t-34 -109q0 -12 14 -12q20 0 58.5 40t44.5 55l11 36q11 36 23 68.5t35 61.5t49 29q32 0 32 -53
q0 -27 -31.5 -90.5t-31.5 -67.5q0 -9 12 -9q8 0 31 19t24 19q10 0 10 -36q0 -25 -4.5 -36.5t-17.5 -19.5q-36 -22 -61 -22q-28 0 -46 19q-79 -85 -156 -85q-40 0 -57 15.5t-21 57.5q-39 -41 -70.5 -57t-85.5 -16q-25 0 -45 16t-20 42q0 23 16 66l-2 2q-8 -7 -19.5 -18
t-17 -15.5t-9.5 -4.5q-5 0 -5 18v45q0 18 16 30q20 14 59 52.5t51 54.5q5 7 11 25.5t13.5 30.5t20.5 12z" />
    <glyph glyph-name="x" unicode="x" 
d="M368 350h71q14 0 14 -5q0 -1 -20 -21t-64.5 -65.5t-81.5 -82.5q-5 -40 -5 -62q0 -44 23 -44q20 0 61.5 26t74.5 52t34 26q11 0 11 -45q0 -18 -5 -28t-25 -26q-36 -27 -87.5 -54t-82.5 -27q-46 0 -64.5 26t-21.5 80l-103 -100h-79q-7 0 -7 3q0 5 186 191q8 8 8 35
q0 11 -2.5 19.5t-5.5 11.5t-5 3t-4.5 -2t-7.5 -7.5t-9 -8.5l-161 -141q-27 -24 -31 -24q-3 0 -3 22v48q0 10 14 21q25 19 79.5 70.5t96.5 83t70 31.5q29 0 40.5 -20.5t12.5 -63.5z" />
    <glyph glyph-name="y" unicode="y" horiz-adv-x="463" 
d="M373 350h73l-124 -279q23 11 118 90q16 13 17 13q11 0 11 -44q0 -32 -32 -56q-14 -11 -44 -34t-47.5 -37.5t-44 -38.5t-48.5 -49q-14 -16 -36 -71.5t-47 -96.5t-56 -41q-21 0 -33 13t-12 33q0 37 26 84.5t60.5 94.5t42.5 64q12 27 36 79.5t36 78.5l-2 2
q-25 -20 -68 -56.5t-65.5 -54.5t-51 -34t-47.5 -16q-17 0 -28.5 8.5t-11.5 24.5q0 11 5.5 27t14 36.5t10.5 25.5l-2 2q-5 -4 -14 -13t-16.5 -15.5t-11.5 -6.5q-6 0 -6 50q0 7 2.5 19.5t4.5 14.5q118 103 127 123l26 60h88l-105 -230l2 -2q53 39 124.5 106.5t98.5 97.5
q19 21 30 28z" />
    <glyph glyph-name="z" unicode="z" horiz-adv-x="444" 
d="M429 83l-177 -138q-30 -95 -89.5 -171t-131.5 -76q-81 0 -81 81q0 29 18.5 57t56.5 55.5t62 42t70 39.5q11 6 11 33q0 31 -13 31q-1 0 -8.5 -2.5t-19 -4.5t-22.5 -2q-17 0 -29 8t-12 24q0 25 29.5 44.5t54.5 19.5q8 0 19 -1t12 -1q18 0 54.5 41t36.5 71q0 48 -35 48
q-7 0 -13.5 -1.5t-14.5 -6t-15 -8t-17.5 -12t-17.5 -14.5t-20 -18.5t-21 -20t-24.5 -23t-25.5 -24.5q-75 -72 -85 -72q-7 0 -7 44q0 34 18 47q20 15 54 49.5t61 62t68 49.5t81 22q47 0 76.5 -29.5t29.5 -75.5q0 -37 -18 -70t-39 -51t-39 -32t-18 -19q0 -7 7 -25.5t11 -18.5
q2 0 25.5 18t56.5 45t58 49q6 5 12.5 11t9 8t5 4.5t4 3t3.5 0.5q9 0 9 -41q0 -23 -3.5 -31.5t-16.5 -18.5zM14 -225q0 -15 16 -15q32 0 66.5 47t40.5 83q-5 -3 -33 -20.5t-43.5 -28.5t-31 -30t-15.5 -36z" />
    <glyph glyph-name="braceleft" unicode="{" horiz-adv-x="444" 
d="M75 195l23 67q33 0 69 33t54 84l64 187q45 132 153 132h72l-21 -62h-50q-50 0 -78 -87l-64 -186q-21 -62 -62 -95t-70 -38l-1 -3q24 -5 38 -25.5t14 -46.5q0 -30 -12 -65l-63 -185q-11 -33 -11 -53q0 -34 29 -34h50l-21 -62h-72q-31 0 -52 22t-21 53q0 27 10 57l63 186
q9 24 11 55q1 26 -13 46t-39 20z" />
    <glyph glyph-name="bar" unicode="|" horiz-adv-x="222" 
d="M82 0v722h58v-722h-58z" />
    <glyph glyph-name="braceright" unicode="}" horiz-adv-x="444" 
d="M320 259l-23 -67q-33 0 -69 -33t-54 -84l-64 -187q-45 -132 -153 -132h-72l21 62h50q50 0 78 87l64 186q21 62 62 95t70 38l1 3q-24 5 -38 25.5t-14 46.5q0 30 12 65l63 185q11 33 11 53q0 34 -29 34h-50l21 62h72q31 0 52 -22t21 -53q0 -27 -10 -57l-63 -186
q-9 -24 -11 -55q-1 -26 13 -46t39 -20z" />
    <glyph glyph-name="asciitilde" unicode="~" horiz-adv-x="600" 
d="M495 254l36 -62q-20 -27 -33 -42t-38 -29.5t-54 -14.5q-42 0 -102 33q-62 35 -115 35q-51 0 -84 -72l-36 62q45 86 125 86q39 0 111 -32q7 -3 21.5 -9.5t23 -10t20 -8t20.5 -6.5t17 -2q19 0 36.5 12t27 24.5t24.5 35.5z" />
    <glyph glyph-name="uni00A0" unicode="&#xa0;" horiz-adv-x="240" 
 />
    <glyph glyph-name="exclamdown" unicode="&#xa1;" horiz-adv-x="259" 
d="M120 197h41q10 0 10 -15q0 -4 -10 -31l-131 -357q-7 -22 -19 -22h-36q-31 0 -31 21q0 7 13 37zM247 325q0 -32 -23 -57.5t-54 -25.5q-24 0 -39.5 19t-15.5 43q0 32 24 56t55 24q26 0 39.5 -16t13.5 -43z" />
    <glyph glyph-name="cent" unicode="&#xa2;" 
d="M326 317h-58q-9 0 -9 9q0 1 9.5 24.5t9.5 29.5q0 16 -18 16q-33 0 -83 -55t-50 -114q0 -51 55 -51q27 0 58 10.5t56 25.5t45.5 30t33 25.5t13.5 10.5q7 0 9 -11t2 -47q0 -21 -8 -29q-22 -20 -95 -59q-52 -26 -102 -30q-14 -36 -26 -71.5t-18 -54.5t-11.5 -35t-9.5 -22
t-10 -6q-20 0 -34.5 7.5t-14.5 19.5q0 6 8 28t23 63t25 71q-52 13 -73.5 43t-21.5 87q0 77 69 147t150 84q16 37 30.5 80.5t21 59t14.5 15.5q14 0 26 -5.5t12 -13.5q0 -11 -5.5 -29t-16.5 -49t-19 -58q63 -14 63 -58q0 -8 -5 -23.5t-12 -33.5t-8 -21q-3 -10 -25 -10z" />
    <glyph glyph-name="sterling" unicode="&#xa3;" 
d="M77 275h85l36 94q36 89 82.5 143.5t116.5 54.5q44 0 70.5 -28t26.5 -73q0 -37 -34 -112q-72 -16 -79 -16q-14 0 -14 3q0 4 23.5 54.5t21.5 66.5q-3 21 -24 21q-29 0 -61.5 -51.5t-53.5 -110.5l-16 -46h78q13 0 13 -4q0 -6 -8.5 -27.5t-10.5 -33.5q-4 -9 -9 -9h-91
q-39 -87 -66 -121q2 -6 72 -6q66 0 177 21l-25 -88q-59 -7 -209 -7q-44 0 -95 12q-45 -18 -88 -18q-82 0 -82 51q0 27 31.5 41t63.5 14q11 0 34.5 -3.5t26.5 -3.5q38 38 63 108h-82q-11 0 -11 6q0 4 3 11.5t9 21t10 23.5q5 12 16 12z" />
    <glyph glyph-name="currency" unicode="&#xa4;" 
d="M51 108l41 44q-37 46 -37 109q0 72 39 111l-43 43l37 37l42 -42q43 37 113 37q65 0 107 -36l42 41l38 -38l-41 -41q37 -40 37 -110q0 -67 -37 -113l41 -42l-35 -35l-42 44q-44 -41 -111 -41q-70 0 -114 40l-41 -43zM243 390q-53 0 -90 -38t-37 -91t37 -90.5t89 -37.5
t87.5 38.5t35.5 91.5q0 52 -35.5 89.5t-86.5 37.5z" />
    <glyph glyph-name="yen" unicode="&#xa5;" 
d="M289 290h98q6 0 6 -8q0 -7 -5 -23.5t-13 -16.5h-98l-82 -228q-5 -14 -53 -14q-50 0 -50 11q0 3 3 10.5t4 9.5l77 211h-92q-5 0 -5 17q0 7 6 19t14 12h88l-8 39h-97q-5 0 -5 17q0 7 6 19t14 12h73l-32 159q0 1 -1.5 7t-1.5 10q0 14 51 14q53 0 55 -12l41 -203l197 211
q4 4 32 4q30 0 30 -4q0 -3 -3 -6l-168 -180h66q6 0 6 -8q0 -7 -5 -23.5t-13 -16.5h-97z" />
    <glyph glyph-name="brokenbar" unicode="&#xa6;" horiz-adv-x="222" 
d="M82 0v270h58v-270h-58zM82 452v270h58v-270h-58z" />
    <glyph glyph-name="section" unicode="&#xa7;" horiz-adv-x="556" 
d="M328 150q4 -10 12 -26t11 -26t3 -23q0 -64 -42.5 -103t-124.5 -39q-61 0 -110.5 34t-49.5 86q0 15 11 25t26 10q11 0 23 -13t22.5 -28.5t34 -28.5t55.5 -13q26 0 47.5 17.5t21.5 42.5q0 23 -19.5 52t-47.5 58t-55.5 59.5t-47 66.5t-19.5 71q0 70 50 108q16 12 34 17.5
t29 6t38 0.5q-31 46 -31 90q0 63 47.5 95.5t114.5 32.5q63 0 115.5 -38.5t52.5 -76.5q0 -17 -10.5 -28.5t-26.5 -11.5q-14 0 -24 8.5t-18 21t-18 24.5t-29 20.5t-45 8.5q-25 0 -49 -14.5t-24 -37.5q0 -30 19.5 -61t47.5 -59.5t55.5 -58t47 -66t19.5 -74.5q0 -60 -42.5 -96
t-103.5 -33zM388 269q0 46 -56.5 109.5t-102.5 63.5q-29 0 -46.5 -16.5t-17.5 -45.5q0 -38 57.5 -103t94.5 -65t54 13.5t17 43.5z" />
    <glyph glyph-name="dieresis" unicode="&#xa8;" horiz-adv-x="222" 
d="M256 553q20 0 35 -14.5t15 -33.5q0 -21 -15 -36t-36 -15t-35.5 14t-14.5 35t15 35.5t36 14.5zM87 553q20 0 35 -14.5t15 -33.5q0 -21 -15 -36t-36 -15t-35.5 14t-14.5 35t15 35.5t36 14.5z" />
    <glyph glyph-name="copyright" unicode="&#xa9;" horiz-adv-x="800" 
d="M401 -24q-151 0 -259.5 102.5t-108.5 259.5q0 156 108.5 258t259.5 102q150 0 258 -102t108 -258q0 -157 -108 -259.5t-258 -102.5zM115 338q0 -129 82 -214t204 -85q121 0 202.5 85.5t81.5 213.5q0 126 -82 211.5t-202 85.5q-122 0 -204 -85t-82 -212zM521 273h69
q-13 -71 -61.5 -112.5t-115.5 -41.5q-94 0 -152 62.5t-58 157.5q0 96 56 157.5t152 61.5q70 0 119.5 -39.5t58.5 -110.5h-68q-8 38 -38 60.5t-72 22.5q-61 0 -95.5 -42t-34.5 -109q0 -64 36.5 -109t95.5 -45q44 0 73 23.5t35 63.5z" />
    <glyph glyph-name="ordfeminine" unicode="&#xaa;" horiz-adv-x="256" 
d="M232 491h36q-37 -68 -37 -82q0 -7 10 -7q8 0 24 13q1 1 3 2.5t3.5 3l2.5 2.5t2 1q6 0 6 -30q0 -14 -6 -19.5t-26 -16.5q-22 -12 -35 -12q-30 0 -32 44q-28 -25 -44 -34.5t-37 -9.5h-12q-27 0 -43.5 19.5t-16.5 54.5v14q0 59 64 96t129 37q36 0 47 -5q4 -16 4 -41
q0 -5 -4 -5l-2 1q-3 1 -8 3t-10.5 3.5t-13 2.5t-15.5 1q-42 0 -85.5 -28.5t-43.5 -63.5v-18q0 -8 5 -14.5t12 -6.5q22 0 52.5 32t50.5 67q16 -4 20 -4z" />
    <glyph glyph-name="guillemotleft" unicode="&#xab;" horiz-adv-x="500" 
d="M289 332l-166 -154l101 -154h-74l-101 142q-10 14 -10 17t16 18l146 131h88zM467 332l-166 -154l101 -154h-74l-101 142q-10 14 -10 17t16 18l146 131h88z" />
    <glyph glyph-name="logicalnot" unicode="&#xac;" horiz-adv-x="600" 
d="M420 75v147h-298v58h356v-205h-58z" />
    <glyph glyph-name="uni00AD" unicode="&#xad;" horiz-adv-x="333" 
d="M57 220h198q10 0 10 -10q0 -19 -18 -57q-7 -16 -10 -16h-214q-5 0 -5 8q0 21 19 54q12 21 20 21z" />
    <glyph glyph-name="registered" unicode="&#xae;" horiz-adv-x="800" 
d="M401 -24q-151 0 -259.5 102.5t-108.5 259.5q0 156 108.5 258t259.5 102q150 0 258 -102t108 -258q0 -157 -108 -259.5t-258 -102.5zM115 338q0 -129 82 -214t204 -85q121 0 202.5 85.5t81.5 213.5q0 126 -82 211.5t-202 85.5q-122 0 -204 -85t-82 -212zM328 309v-179h-68
v414h156q76 0 113.5 -28.5t37.5 -90.5q0 -101 -109 -113l116 -182h-74l-107 179h-65zM328 365h76q47 0 71 12t24 53q0 58 -89 58h-82v-123z" />
    <glyph glyph-name="macron" unicode="&#xaf;" horiz-adv-x="222" 
d="M309 475h-273l11 62h274z" />
    <glyph glyph-name="degree" unicode="&#xb0;" horiz-adv-x="400" 
d="M230 521q-41 0 -66 -27t-25 -70t25 -70t66 -27t66 27t25 70t-25 70t-66 27zM230 281q-60 0 -101.5 41.5t-41.5 101.5t41.5 101.5t101.5 41.5t101.5 -41.5t41.5 -101.5t-41.5 -101.5t-101.5 -41.5z" />
    <glyph glyph-name="plusminus" unicode="&#xb1;" horiz-adv-x="600" 
d="M271 248v108h58v-108h149v-58h-149v-108h-58v108h-149v58h149zM122 0v58h356v-58h-356z" />
    <glyph glyph-name="twosuperior" unicode="&#xb2;" horiz-adv-x="288" 
d="M230 344l-52 -52q30 -15 78 -15q14 0 30 4t17 4q8 0 8 -6q0 -3 -13 -42q-5 -14 -49 -14q-49 0 -120 33q-6 -3 -21.5 -12t-21 -12t-18.5 -6t-28 -3q-26 0 -44.5 15.5t-18.5 38.5q0 28 20.5 45t52.5 17q18 0 36 -6t28.5 -12t11.5 -6q13 0 69.5 70.5t56.5 104.5
q0 14 -11 20.5t-23 6.5q-24 0 -45.5 -16.5t-36 -33t-20.5 -16.5q-9 0 -21 7.5t-12 14.5q0 22 41 58t98 36q93 0 93 -77q0 -30 -28 -73.5t-57 -72.5zM47 259q6 0 13.5 3t12 6t12.5 9t10 7l-11 5.5t-18 7.5t-19 3q-13 0 -21 -5.5t-8 -12.5q0 -23 29 -23z" />
    <glyph glyph-name="threesuperior" unicode="&#xb3;" horiz-adv-x="288" 
d="M43 341h20q9 0 11.5 -6t2.5 -25q0 -35 48 -35q30 0 60 20.5t30 52.5q0 9 -4 17t-8 11.5t-6 3.5l-13 -4q-13 -4 -24 -4q-16 0 -30 7t-14 21q0 37 53 37q5 0 16 -2t13 -2q12 0 33 21t21 41q0 21 -30 21q-22 0 -51.5 -23.5t-32.5 -23.5q-9 0 -19.5 7t-10.5 14q0 21 42 49
t88 28q36 0 59 -19.5t23 -52.5q0 -45 -69 -89q26 -25 26 -58q0 -53 -46.5 -89t-101.5 -36q-54 0 -81.5 22.5t-27.5 60.5q0 35 23 35z" />
    <glyph glyph-name="acute" unicode="&#xb4;" horiz-adv-x="222" 
d="M201 597h102l-77 -89q-4 -4 -20.5 -27.5t-31.5 -39t-24 -15.5h-48l12 20q36 58 77 132z" />
    <glyph glyph-name="mu" unicode="&#xb5;" horiz-adv-x="500" 
d="M143 350h74q10 0 10 -9q0 -4 -10 -24l-89 -187q-1 -3 -3 -7t-4 -7.5t-2 -4.5q0 -5 3 -5q6 0 54.5 37.5t62.5 51.5q36 33 150 147q11 8 15 8h60q12 0 12 -11q0 -1 -22 -47l-83 -176q-2 -4 -3.5 -7.5t-2.5 -5t-1 -2.5q0 -9 8 -9q10 0 42.5 20.5t53.5 38.5q27 23 28 23
q4 0 7 -13t3 -26q0 -22 -7.5 -35t-27.5 -27q-37 -27 -87 -53t-79 -26q-54 0 -54 40q0 12 7 32.5t17.5 45t13.5 32.5l-2 2q-139 -119 -214 -144l-35 -114q-4 -13 -13.5 -64t-17.5 -75q-14 -43 -45 -43q-45 0 -45 55q0 59 71 247q1 4 3 8l3.5 7t1.5 5q0 12 9.5 41t20.5 47
l-2 2q-5 -4 -15 -13.5t-17.5 -16t-10.5 -6.5q-5 0 -5 33q0 45 11 54q69 56 120 117q16 19 26 50q5 14 10 14z" />
    <glyph glyph-name="paragraph" unicode="&#xb6;" horiz-adv-x="600" 
d="M58 -191l178 519q-96 0 -137.5 51t-14.5 131q65 188 297 188h260l-304 -889h-82l283 825h-115l-283 -825h-82z" />
    <glyph glyph-name="periodcentered" unicode="&#xb7;" horiz-adv-x="240" 
d="M95 108q-28 0 -49 21.5t-21 48.5t21 48.5t49 21.5t49 -21.5t21 -48.5t-21 -48.5t-49 -21.5z" />
    <glyph glyph-name="cedilla" unicode="&#xb8;" horiz-adv-x="222" 
d="M16 0h35l-26 -51q4 0 12 1t12 1q38 0 59 -20.5t21 -49.5q0 -43 -37 -65t-85 -22q-75 0 -130 37l22 35q48 -34 96 -34q56 0 56 46q0 35 -44 35q-5 0 -15 -1.5t-11 -1.5q-5 0 -5 6q0 1 3 7z" />
    <glyph glyph-name="onesuperior" unicode="&#xb9;" horiz-adv-x="288" 
d="M106 227h-45q-13 0 -13 4t7 11q21 26 40.5 59t41 75.5t32.5 61.5l-2 1q-40 -30 -60 -30q-7 0 -8.5 3t-1.5 12q0 32 7 35l21 10q66 30 88 63q2 3 5.5 9.5t5.5 9.5t6 8t8 7t9.5 4t12.5 2q13 0 21.5 -7.5t8.5 -21.5q0 -15 -28 -46q-6 -8 -16 -27t-19.5 -39.5t-11.5 -23.5
q-4 -8 -16.5 -31.5t-34 -63t-40.5 -75.5q-5 -10 -18 -10z" />
    <glyph glyph-name="ordmasculine" unicode="&#xba;" horiz-adv-x="222" 
d="M179 580q28 0 49.5 -17.5t21.5 -46.5q0 -8 -2 -13.5t-4 -8t-5 -5.5l-4 -4q6 -15 6 -22q0 -48 -40.5 -82.5t-94.5 -34.5q-36 0 -57 20t-21 56q0 75 45.5 116.5t105.5 41.5zM90 433q0 -37 36 -37q37 2 53 46l5.5 16.5t6.5 18t5 10.5q-5 3 -5 16q0 23 -28 23
q-24 0 -48.5 -27.5t-24.5 -65.5z" />
    <glyph glyph-name="guillemotright" unicode="&#xbb;" horiz-adv-x="500" 
d="M201 24l166 154l-101 154h74l101 -142q10 -14 10 -17t-16 -18l-146 -131h-88zM23 24l166 154l-101 154h74l101 -142q10 -14 10 -17t-16 -18l-146 -131h-88z" />
    <glyph glyph-name="onequarter" unicode="&#xbc;" horiz-adv-x="721" 
d="M94 221h-45q-13 0 -13 4t7 11q21 26 40.5 59t41 75.5t32.5 61.5l-2 1q-40 -30 -60 -30q-7 0 -8.5 3t-1.5 12q0 32 7 35l21 10q66 30 88 63q2 3 5.5 9.5t5.5 9.5t6 8t8 7t9.5 4t12.5 2q13 0 21.5 -7.5t8.5 -21.5q0 -15 -28 -46q-6 -8 -16 -27t-19.5 -39.5t-11.5 -23.5
q-4 -8 -16.5 -31.5t-34 -63t-40.5 -75.5q-5 -10 -18 -10zM69 -6l425 573h76l-425 -573h-76zM575 92l-17 -31q-7 -13 -16 -33.5t-14 -27t-12 -6.5h-37q-12 0 -12 14q0 8 20 44.5t20 43.5q0 4 -13 4q-16 0 -56 4q-34 -34 -51 -34q-33 0 -33 26q0 7 2.5 14t5.5 11t10.5 9
t11 7.5t14 7.5t13.5 7q66 85 110 202h47q14 0 14 -10q0 -7 -20.5 -44t-48 -83.5t-35.5 -62.5q15 -8 39 -8h19l13 23q43 77 63.5 104.5t40.5 27.5q23 0 23 -17q0 -9 -37.5 -73.5t-37.5 -66.5q0 -5 16 -5q5 0 18 0.5t20 0.5q10 0 10 -8q0 -13 -16 -37q-6 -7 -17 -7
q-13 0 -57 4z" />
    <glyph glyph-name="onehalf" unicode="&#xbd;" horiz-adv-x="721" 
d="M596 115l-52 -52q28 -15 78 -15q14 0 30.5 4t17.5 4q7 0 7 -7q0 -4 -2 -11t-6 -17t-5 -14q-4 -13 -48 -13q-49 0 -120 33l-15 -9t-14 -8.5t-12.5 -6t-14.5 -5t-14.5 -3t-18.5 -1.5q-26 0 -44.5 15.5t-18.5 37.5q0 28 20 45t53 17q17 0 35 -6t29 -12t12 -6q7 0 37.5 33
t59.5 76t29 66q0 14 -11 20.5t-24 6.5q-24 0 -45 -16.5t-35.5 -33t-20.5 -16.5q-9 0 -21.5 7.5t-12.5 15.5q0 22 41 58t98 36q93 0 93 -78q0 -29 -28 -73t-57 -72zM69 -6l425 573h76l-425 -573h-76zM417 36q15 0 48 24q-2 1 -8 4.5t-10.5 6t-13 4.5t-16.5 2q-13 0 -21 -6
t-8 -13q0 -22 29 -22zM94 221h-45q-13 0 -13 4t7 11q21 26 40.5 59t41 75.5t32.5 61.5l-2 1q-40 -30 -60 -30q-7 0 -8.5 3t-1.5 12q0 32 7 35l21 10q66 30 88 63q2 3 5.5 9.5t5.5 9.5t6 8t8 7t9.5 4t12.5 2q13 0 21.5 -7.5t8.5 -21.5q0 -15 -28 -46q-6 -8 -16 -27
t-19.5 -39.5t-11.5 -23.5q-4 -8 -16.5 -31.5t-34 -63t-40.5 -75.5q-5 -10 -18 -10z" />
    <glyph glyph-name="threequarters" unicode="&#xbe;" horiz-adv-x="721" 
d="M595 92l-17 -31q-7 -13 -16 -33.5t-14 -27t-12 -6.5h-37q-12 0 -12 14q0 8 20 44.5t20 43.5q0 4 -13 4q-16 0 -56 4q-34 -34 -51 -34q-33 0 -33 26q0 7 2.5 14t5.5 11t10.5 9t11 7.5t14 7.5t13.5 7q66 85 110 202h47q14 0 14 -10q0 -7 -20.5 -44t-48 -83.5t-35.5 -62.5
q15 -8 39 -8h19l13 23q43 77 63.5 104.5t40.5 27.5q23 0 23 -17q0 -9 -37.5 -73.5t-37.5 -66.5q0 -5 16 -5q5 0 18 0.5t20 0.5q10 0 10 -8q0 -13 -16 -37q-6 -7 -17 -7q-13 0 -57 4zM133 -6l425 573h76l-425 -573h-76zM56 339h20q9 0 11.5 -6t2.5 -25q0 -35 48 -35
q30 0 60 20.5t30 52.5q0 9 -4 17t-8 11.5t-6 3.5l-13 -4q-13 -4 -24 -4q-17 0 -30.5 7t-13.5 21q0 37 53 37q6 0 16.5 -2t12.5 -2q12 0 33 21t21 41q0 21 -30 21q-22 0 -51.5 -23.5t-32.5 -23.5q-9 0 -19.5 7t-10.5 14q0 21 42 49t88 28q36 0 59 -19.5t23 -52.5
q0 -45 -69 -89q26 -25 26 -58q0 -53 -46.5 -89t-101.5 -36q-54 0 -81.5 22.5t-27.5 60.5q0 35 23 35z" />
    <glyph glyph-name="questiondown" unicode="&#xbf;" horiz-adv-x="370" 
d="M81 -228q-61 0 -100 31t-39 90q0 46 28.5 82.5t67.5 60.5q5 3 18.5 10.5t18 10.5t14.5 9.5t15.5 10.5t12 10t12.5 12q19 20 34 48.5t17 39.5q2 8 48 8q9 0 9 -15q0 -31 -23.5 -74.5t-79.5 -89.5l-26 -19.5t-27 -21.5t-20.5 -21t-16.5 -28t-5 -33q0 -47 51 -47
q29 0 56.5 26.5t45.5 58.5q6 13 17 13q9 0 26.5 -19.5t17.5 -29.5q0 -6 -10 -21q-59 -102 -162 -102zM298 325q0 -32 -23 -57.5t-54 -25.5q-24 0 -39.5 19t-15.5 43q0 32 24 56t55 24q26 0 39.5 -16t13.5 -43z" />
    <glyph glyph-name="Agrave" unicode="&#xc0;" horiz-adv-x="648" 
d="M79 0h-84q-5 0 -5 5q0 14 96 206q-24 -2 -40.5 -5t-23 -4.5t-7.5 -1.5q-5 0 -8.5 5t-3.5 8t3 11l17 48q3 10 8.5 13t20.5 5q34 6 76 6q12 0 17 8q28 48 61 96t80.5 103.5t95.5 97t106.5 69.5t112.5 28q81 0 81 -68q0 -20 -33 -124l-86 -293q-31 -106 -31 -112
q0 -2 4.5 -17t4.5 -24q0 -60 -58 -60q-53 0 -53 57q0 3 2.5 18t2.5 19q0 40 -70 79t-171 45q-34 -52 -59.5 -105.5t-36.5 -81.5t-13 -29q-4 -2 -6 -2zM459 204l107 359q1 2 3.5 10.5t4.5 15.5t2 9q0 10 -8 10q-45 0 -125.5 -75t-139 -149.5t-58.5 -82.5q0 -5 32 -9t86 -24.5
t96 -63.5zM483 908h102l10 -19q41 -74 77 -132l12 -20h-48q-9 0 -24 15.5t-31.5 39t-20.5 27.5z" />
    <glyph glyph-name="Aacute" unicode="&#xc1;" horiz-adv-x="648" 
d="M79 0h-84q-5 0 -5 5q0 14 96 206q-24 -2 -40.5 -5t-23 -4.5t-7.5 -1.5q-5 0 -8.5 5t-3.5 8t3 11l17 48q3 10 8.5 13t20.5 5q34 6 76 6q12 0 17 8q28 48 61 96t80.5 103.5t95.5 97t106.5 69.5t112.5 28q81 0 81 -68q0 -20 -33 -124l-86 -293q-31 -106 -31 -112
q0 -2 4.5 -17t4.5 -24q0 -60 -58 -60q-53 0 -53 57q0 3 2.5 18t2.5 19q0 40 -70 79t-171 45q-34 -52 -59.5 -105.5t-36.5 -81.5t-13 -29q-4 -2 -6 -2zM459 204l107 359q1 2 3.5 10.5t4.5 15.5t2 9q0 10 -8 10q-45 0 -125.5 -75t-139 -149.5t-58.5 -82.5q0 -5 32 -9t86 -24.5
t96 -63.5zM640 908h102l-77 -89q-4 -4 -20.5 -27.5t-31.5 -39t-24 -15.5h-48l12 20q36 58 77 132z" />
    <glyph glyph-name="Acircumflex" unicode="&#xc2;" horiz-adv-x="648" 
d="M79 0h-84q-5 0 -5 5q0 14 96 206q-24 -2 -40.5 -5t-23 -4.5t-7.5 -1.5q-5 0 -8.5 5t-3.5 8t3 11l17 48q3 10 8.5 13t20.5 5q34 6 76 6q12 0 17 8q28 48 61 96t80.5 103.5t95.5 97t106.5 69.5t112.5 28q81 0 81 -68q0 -20 -33 -124l-86 -293q-31 -106 -31 -112
q0 -2 4.5 -17t4.5 -24q0 -60 -58 -60q-53 0 -53 57q0 3 2.5 18t2.5 19q0 40 -70 79t-171 45q-34 -52 -59.5 -105.5t-36.5 -81.5t-13 -29q-4 -2 -6 -2zM459 204l107 359q1 2 3.5 10.5t4.5 15.5t2 9q0 10 -8 10q-45 0 -125.5 -75t-139 -149.5t-58.5 -82.5q0 -5 32 -9t86 -24.5
t96 -63.5zM679 908l66 -171h-55l-55 118l-118 -118h-63l141 171h84z" />
    <glyph glyph-name="Atilde" unicode="&#xc3;" horiz-adv-x="648" 
d="M79 0h-84q-5 0 -5 5q0 14 96 206q-24 -2 -40.5 -5t-23 -4.5t-7.5 -1.5q-5 0 -8.5 5t-3.5 8t3 11l17 48q3 10 8.5 13t20.5 5q34 6 76 6q12 0 17 8q28 48 61 96t80.5 103.5t95.5 97t106.5 69.5t112.5 28q81 0 81 -68q0 -20 -33 -124l-86 -293q-31 -106 -31 -112
q0 -2 4.5 -17t4.5 -24q0 -60 -58 -60q-53 0 -53 57q0 3 2.5 18t2.5 19q0 40 -70 79t-171 45q-34 -52 -59.5 -105.5t-36.5 -81.5t-13 -29q-4 -2 -6 -2zM459 204l107 359q1 2 3.5 10.5t4.5 15.5t2 9q0 10 -8 10q-45 0 -125.5 -75t-139 -149.5t-58.5 -82.5q0 -5 32 -9t86 -24.5
t96 -63.5zM496 760h-40q9 45 34.5 74.5t68.5 29.5q20 0 64 -14t55 -14q17 0 32.5 10.5t17.5 29.5h39q-7 -45 -32 -75.5t-68 -30.5q-11 0 -61 16q-48 16 -64 16q-12 0 -21.5 -7.5t-13.5 -14t-11 -20.5z" />
    <glyph glyph-name="Adieresis" unicode="&#xc4;" horiz-adv-x="648" 
d="M79 0h-84q-5 0 -5 5q0 14 96 206q-24 -2 -40.5 -5t-23 -4.5t-7.5 -1.5q-5 0 -8.5 5t-3.5 8t3 11l17 48q3 10 8.5 13t20.5 5q34 6 76 6q12 0 17 8q28 48 61 96t80.5 103.5t95.5 97t106.5 69.5t112.5 28q81 0 81 -68q0 -20 -33 -124l-86 -293q-31 -106 -31 -112
q0 -2 4.5 -17t4.5 -24q0 -60 -58 -60q-53 0 -53 57q0 3 2.5 18t2.5 19q0 40 -70 79t-171 45q-34 -52 -59.5 -105.5t-36.5 -81.5t-13 -29q-4 -2 -6 -2zM459 204l107 359q1 2 3.5 10.5t4.5 15.5t2 9q0 10 -8 10q-45 0 -125.5 -75t-139 -149.5t-58.5 -82.5q0 -5 32 -9t86 -24.5
t96 -63.5zM695 864q20 0 35 -14.5t15 -33.5q0 -21 -15 -36t-36 -15t-35.5 14t-14.5 35t15 35.5t36 14.5zM526 864q20 0 35 -14.5t15 -33.5q0 -21 -15 -36t-36 -15t-35.5 14t-14.5 35t15 35.5t36 14.5z" />
    <glyph glyph-name="Aring" unicode="&#xc5;" horiz-adv-x="648" 
d="M79 0h-84q-5 0 -5 5q0 14 96 206q-24 -2 -40.5 -5t-23 -4.5t-7.5 -1.5q-5 0 -8.5 5t-3.5 8t3 11l17 48q3 10 8.5 13t20.5 5q34 6 76 6q12 0 17 8q28 48 61 96t80.5 103.5t95.5 97t106.5 69.5t112.5 28q81 0 81 -68q0 -20 -33 -124l-86 -293q-31 -106 -31 -112
q0 -2 4.5 -17t4.5 -24q0 -60 -58 -60q-53 0 -53 57q0 3 2.5 18t2.5 19q0 40 -70 79t-171 45q-34 -52 -59.5 -105.5t-36.5 -81.5t-13 -29q-4 -2 -6 -2zM459 204l107 359q1 2 3.5 10.5t4.5 15.5t2 9q0 10 -8 10q-45 0 -125.5 -75t-139 -149.5t-58.5 -82.5q0 -5 32 -9t86 -24.5
t96 -63.5zM556 828q0 -21 15 -36t37 -15t37 15t15 37t-15 37t-37 15t-37 -15t-15 -38zM508 829q0 41 29.5 70.5t70.5 29.5t70.5 -29.5t29.5 -70.5t-29.5 -70.5t-70.5 -29.5t-70.5 29.5t-29.5 70.5z" />
    <glyph glyph-name="AE" unicode="&#xc6;" horiz-adv-x="944" 
d="M80 0h-81q-4 0 -4 4t12 33.5t37.5 83t53.5 106.5q-19 0 -36.5 -1.5t-27.5 -3.5t-11 -2q-7 0 -7 5q0 12 12 43t20 33q21 5 103 10q244 387 459 387q55 0 68 -42q78 42 141 42q121 0 121 -71q0 -23 -10 -45.5t-23 -40t-45 -58.5t-58 -78q-12 -17 -13 -17q-5 0 -19 12
l-21 16q-22 16 -22 32q0 20 36 59l46 48q29 31 29 43q0 14 -38 14q-70 0 -133.5 -68t-63.5 -142q0 -30 12.5 -54.5t24.5 -39.5t12 -24q0 -13 -25.5 -30t-55.5 -33t-55.5 -42.5t-25.5 -54.5q0 -23 13.5 -31.5t44.5 -8.5q145 0 242 136q9 12 22 11l51 -3q24 -2 24 -11
q0 -15 -23.5 -49t-64.5 -74t-111.5 -70t-148.5 -30q-80 0 -114.5 37.5t-34.5 83.5q0 40 33 89q-18 0 -81.5 16t-112.5 16q-10 0 -32 -2q-24 -41 -50.5 -94.5t-41.5 -87.5t-18 -43t-9 -9zM279 314q40 0 96 -18q58 -18 89 -18q22 0 48.5 10t27.5 23q-31 57 -31 109
q0 38 23.5 82t47.5 73l23 29q0 10 -23 10q-43 0 -112.5 -57.5t-119.5 -115.5t-79 -99q-12 -19 -12 -24q0 -4 22 -4z" />
    <glyph glyph-name="Ccedilla" unicode="&#xc7;" horiz-adv-x="556" 
d="M397 180l15 21l20 -8q51 -18 51 -37q0 -13 -17.5 -38.5t-48 -53.5t-83 -49t-112.5 -21q-6 0 -7 1l-23 -46q4 0 12 1t12 1q38 0 59 -20.5t21 -49.5q0 -43 -37 -65t-85 -22q-74 0 -130 37l22 35q48 -34 96 -34q56 0 56 46q0 35 -44 35q-4 0 -14 -1.5t-12 -1.5q-5 0 -5 6
q0 1 3 7l36 74q-86 10 -131.5 63.5t-45.5 129.5q0 112 72.5 232.5t178.5 198t200 77.5q66 0 105.5 -33.5t39.5 -90.5q0 -64 -39.5 -125t-92.5 -99.5t-101.5 -62t-71.5 -23.5q-12 0 -12 13q0 28 9.5 59t29.5 40q67 28 124.5 82.5t57.5 105.5q0 44 -56 44q-68 0 -151.5 -71.5
t-140 -166t-56.5 -161.5q0 -61 36.5 -93t86.5 -32q103 0 173 96z" />
    <glyph glyph-name="Egrave" unicode="&#xc8;" horiz-adv-x="519" 
d="M349 396l-40 35q-10 12 -10 18q0 18 56 79t56 70q0 7 -9.5 10.5t-17.5 3.5q-69 0 -136 -69.5t-67 -140.5q0 -29 12.5 -52.5t25 -39t12.5 -25.5q0 -15 -25.5 -33.5t-55.5 -34.5t-55.5 -41.5t-25.5 -53.5q0 -38 65 -38q62 0 126 39t103 96q7 11 17 11h59q12 0 19 -2.5
t6 -10.5q-1 -9 -13.5 -32t-42 -56t-68 -63t-99 -51t-128.5 -21q-67 0 -104.5 30t-37.5 83q0 90 73 147q14 11 33.5 23.5t29 19.5t9.5 13q0 3 -8 14.5t-15.5 33t-7.5 48.5q0 42 19.5 90t56 94.5t100.5 77t143 30.5q53 0 82 -16t29 -59q0 -28 -23.5 -66t-56.5 -78.5t-41 -53.5
q-21 -37 -29 -37q-5 0 -16 8zM286 908h102l10 -19q41 -74 77 -132l12 -20h-48q-9 0 -24 15.5t-31.5 39t-20.5 27.5z" />
    <glyph glyph-name="Eacute" unicode="&#xc9;" horiz-adv-x="519" 
d="M349 396l-40 35q-10 12 -10 18q0 18 56 79t56 70q0 7 -9.5 10.5t-17.5 3.5q-69 0 -136 -69.5t-67 -140.5q0 -29 12.5 -52.5t25 -39t12.5 -25.5q0 -15 -25.5 -33.5t-55.5 -34.5t-55.5 -41.5t-25.5 -53.5q0 -38 65 -38q62 0 126 39t103 96q7 11 17 11h59q12 0 19 -2.5
t6 -10.5q-1 -9 -13.5 -32t-42 -56t-68 -63t-99 -51t-128.5 -21q-67 0 -104.5 30t-37.5 83q0 90 73 147q14 11 33.5 23.5t29 19.5t9.5 13q0 3 -8 14.5t-15.5 33t-7.5 48.5q0 42 19.5 90t56 94.5t100.5 77t143 30.5q53 0 82 -16t29 -59q0 -28 -23.5 -66t-56.5 -78.5t-41 -53.5
q-21 -37 -29 -37q-5 0 -16 8zM443 908h102l-77 -89q-4 -4 -20.5 -27.5t-31.5 -39t-24 -15.5h-48l12 20q36 58 77 132z" />
    <glyph glyph-name="Ecircumflex" unicode="&#xca;" horiz-adv-x="519" 
d="M349 396l-40 35q-10 12 -10 18q0 18 56 79t56 70q0 7 -9.5 10.5t-17.5 3.5q-69 0 -136 -69.5t-67 -140.5q0 -29 12.5 -52.5t25 -39t12.5 -25.5q0 -15 -25.5 -33.5t-55.5 -34.5t-55.5 -41.5t-25.5 -53.5q0 -38 65 -38q62 0 126 39t103 96q7 11 17 11h59q12 0 19 -2.5
t6 -10.5q-1 -9 -13.5 -32t-42 -56t-68 -63t-99 -51t-128.5 -21q-67 0 -104.5 30t-37.5 83q0 90 73 147q14 11 33.5 23.5t29 19.5t9.5 13q0 3 -8 14.5t-15.5 33t-7.5 48.5q0 42 19.5 90t56 94.5t100.5 77t143 30.5q53 0 82 -16t29 -59q0 -28 -23.5 -66t-56.5 -78.5t-41 -53.5
q-21 -37 -29 -37q-5 0 -16 8zM482 908l66 -171h-55l-55 118l-118 -118h-63l141 171h84z" />
    <glyph glyph-name="Edieresis" unicode="&#xcb;" horiz-adv-x="519" 
d="M349 396l-40 35q-10 12 -10 18q0 18 56 79t56 70q0 7 -9.5 10.5t-17.5 3.5q-69 0 -136 -69.5t-67 -140.5q0 -29 12.5 -52.5t25 -39t12.5 -25.5q0 -15 -25.5 -33.5t-55.5 -34.5t-55.5 -41.5t-25.5 -53.5q0 -38 65 -38q62 0 126 39t103 96q7 11 17 11h59q12 0 19 -2.5
t6 -10.5q-1 -9 -13.5 -32t-42 -56t-68 -63t-99 -51t-128.5 -21q-67 0 -104.5 30t-37.5 83q0 90 73 147q14 11 33.5 23.5t29 19.5t9.5 13q0 3 -8 14.5t-15.5 33t-7.5 48.5q0 42 19.5 90t56 94.5t100.5 77t143 30.5q53 0 82 -16t29 -59q0 -28 -23.5 -66t-56.5 -78.5t-41 -53.5
q-21 -37 -29 -37q-5 0 -16 8zM498 864q20 0 35 -14.5t15 -33.5q0 -21 -15 -36t-36 -15t-35.5 14t-14.5 35t15 35.5t36 14.5zM329 864q20 0 35 -14.5t15 -33.5q0 -21 -15 -36t-36 -15t-35.5 14t-14.5 35t15 35.5t36 14.5z" />
    <glyph glyph-name="Igrave" unicode="&#xcc;" horiz-adv-x="444" 
d="M234 386l-34 -21q-58 -32 -67 -32t-9 21q0 47 27.5 118.5t58.5 120.5q34 53 83 91t104 38q46 0 67 -32.5t21 -79.5q0 -42 -19.5 -115.5t-57.5 -159.5t-86.5 -162.5t-115 -127.5t-134.5 -51q-37 0 -64 6.5t-27 16.5q0 12 12 32l25 37q11 15 18 15q2 0 15 -3.5t25 -3.5
q47 0 105 54t112 172q38 82 65 168t27 113q0 21 -17 21q-23 0 -54.5 -43t-47.5 -85q-32 -84 -32 -108zM271 908h102l10 -19q41 -74 77 -132l12 -20h-48q-9 0 -24 15.5t-31.5 39t-20.5 27.5z" />
    <glyph glyph-name="Iacute" unicode="&#xcd;" horiz-adv-x="444" 
d="M234 386l-34 -21q-58 -32 -67 -32t-9 21q0 47 27.5 118.5t58.5 120.5q34 53 83 91t104 38q46 0 67 -32.5t21 -79.5q0 -42 -19.5 -115.5t-57.5 -159.5t-86.5 -162.5t-115 -127.5t-134.5 -51q-37 0 -64 6.5t-27 16.5q0 12 12 32l25 37q11 15 18 15q2 0 15 -3.5t25 -3.5
q47 0 105 54t112 172q38 82 65 168t27 113q0 21 -17 21q-23 0 -54.5 -43t-47.5 -85q-32 -84 -32 -108zM428 908h102l-77 -89q-4 -4 -20.5 -27.5t-31.5 -39t-24 -15.5h-48l12 20q36 58 77 132z" />
    <glyph glyph-name="Icircumflex" unicode="&#xce;" horiz-adv-x="444" 
d="M234 386l-34 -21q-58 -32 -67 -32t-9 21q0 47 27.5 118.5t58.5 120.5q34 53 83 91t104 38q46 0 67 -32.5t21 -79.5q0 -42 -19.5 -115.5t-57.5 -159.5t-86.5 -162.5t-115 -127.5t-134.5 -51q-37 0 -64 6.5t-27 16.5q0 12 12 32l25 37q11 15 18 15q2 0 15 -3.5t25 -3.5
q47 0 105 54t112 172q38 82 65 168t27 113q0 21 -17 21q-23 0 -54.5 -43t-47.5 -85q-32 -84 -32 -108zM467 908l66 -171h-55l-55 118l-118 -118h-63l141 171h84z" />
    <glyph glyph-name="Idieresis" unicode="&#xcf;" horiz-adv-x="444" 
d="M234 386l-34 -21q-58 -32 -67 -32t-9 21q0 47 27.5 118.5t58.5 120.5q34 53 83 91t104 38q46 0 67 -32.5t21 -79.5q0 -42 -19.5 -115.5t-57.5 -159.5t-86.5 -162.5t-115 -127.5t-134.5 -51q-37 0 -64 6.5t-27 16.5q0 12 12 32l25 37q11 15 18 15q2 0 15 -3.5t25 -3.5
q47 0 105 54t112 172q38 82 65 168t27 113q0 21 -17 21q-23 0 -54.5 -43t-47.5 -85q-32 -84 -32 -108zM483 864q20 0 35 -14.5t15 -33.5q0 -21 -15 -36t-36 -15t-35.5 14t-14.5 35t15 35.5t36 14.5zM314 864q20 0 35 -14.5t15 -33.5q0 -21 -15 -36t-36 -15t-35.5 14
t-14.5 35t15 35.5t36 14.5z" />
    <glyph glyph-name="Eth" unicode="&#xd0;" horiz-adv-x="796" 
d="M270 258h106q36 68 65.5 137.5t29.5 83.5q0 22 -91.5 76.5t-122.5 54.5q-12 0 -20.5 -7t-8.5 -18q0 -18 21.5 -47.5t50.5 -55.5q13 -12 29.5 -23.5t24 -17.5t7.5 -9q0 -15 -13.5 -42t-28.5 -27q-10 0 -40 21t-63 52.5t-58.5 75.5t-25.5 83q0 103 108 103q111 0 282 -131
q5 5 14.5 17.5t16 20.5t10.5 8q5 0 34.5 -23.5t29.5 -27.5q0 -6 -16 -29t-16 -28q0 -4 22 -28t49 -56t49 -86.5t22 -112.5q0 -99 -58.5 -160.5t-170.5 -61.5h-132q-16 0 -55 6t-56 6q-3 0 -42 -7t-75 -7q-66 0 -104 15t-38 44q0 61 105 61q21 0 77 -9q59 -9 77 -9
q20 0 64 72h-89q-20 0 -20 4q0 10 35 71q7 11 15 11zM480 258h95q20 0 20 -4q0 -10 -35 -71q-7 -11 -15 -11h-106q-29 -49 -55 -82q56 -4 70 -4q187 0 187 135q0 34 -17 73t-30 57t-45 60q-12 -27 -35 -78.5t-34 -74.5z" />
    <glyph glyph-name="Ntilde" unicode="&#xd1;" horiz-adv-x="611" 
d="M60 -18h-108q48 50 125 197.5t126 257.5t76 177q32 84 80 84q36 0 49 -22.5t13 -78.5v-394h2q5 14 23 67.5t27.5 80t26 69.5t31.5 75t31 58q48 79 61 79q7 0 16.5 -49t9.5 -59q0 -4 -14 -26q-25 -43 -34 -59t-18.5 -37.5t-12.5 -31.5t-16 -49t-28 -81q-54 -152 -78 -196
t-60 -44q-30 0 -41 18.5t-11 69.5v454h-2q-3 -7 -49 -121t-69.5 -167.5t-66 -137t-76.5 -128.5q-5 -6 -13 -6zM426 760h-40q9 45 34.5 74.5t68.5 29.5q20 0 64 -14t55 -14q17 0 32.5 10.5t17.5 29.5h39q-7 -45 -32 -75.5t-68 -30.5q-11 0 -61 16q-48 16 -64 16
q-12 0 -21.5 -7.5t-13.5 -14t-11 -20.5z" />
    <glyph glyph-name="Ograve" unicode="&#xd2;" horiz-adv-x="593" 
d="M198 -6q-92 0 -140.5 53t-48.5 145q0 111 62.5 234t170 209.5t220.5 86.5q45 0 45 -43q0 -39 -38 -45q-94 -12 -179.5 -82.5t-135 -168t-49.5 -188.5q0 -109 98 -109q68 0 137 68.5t109.5 156.5t40.5 153q0 13 -8 24.5t-25 11.5q-67 0 -100 -129q-5 -19 -44 -37t-53 -18
q-10 0 -10 32q0 50 28 105t82.5 95t117.5 40q51 0 79.5 -35.5t28.5 -93.5q0 -97 -51.5 -204t-143.5 -184t-193 -77zM334 908h102l10 -19q41 -74 77 -132l12 -20h-48q-9 0 -24 15.5t-31.5 39t-20.5 27.5z" />
    <glyph glyph-name="Oacute" unicode="&#xd3;" horiz-adv-x="593" 
d="M198 -6q-92 0 -140.5 53t-48.5 145q0 111 62.5 234t170 209.5t220.5 86.5q45 0 45 -43q0 -39 -38 -45q-94 -12 -179.5 -82.5t-135 -168t-49.5 -188.5q0 -109 98 -109q68 0 137 68.5t109.5 156.5t40.5 153q0 13 -8 24.5t-25 11.5q-67 0 -100 -129q-5 -19 -44 -37t-53 -18
q-10 0 -10 32q0 50 28 105t82.5 95t117.5 40q51 0 79.5 -35.5t28.5 -93.5q0 -97 -51.5 -204t-143.5 -184t-193 -77zM491 908h102l-77 -89q-4 -4 -20.5 -27.5t-31.5 -39t-24 -15.5h-48l12 20q36 58 77 132z" />
    <glyph glyph-name="Ocircumflex" unicode="&#xd4;" horiz-adv-x="593" 
d="M198 -6q-92 0 -140.5 53t-48.5 145q0 111 62.5 234t170 209.5t220.5 86.5q45 0 45 -43q0 -39 -38 -45q-94 -12 -179.5 -82.5t-135 -168t-49.5 -188.5q0 -109 98 -109q68 0 137 68.5t109.5 156.5t40.5 153q0 13 -8 24.5t-25 11.5q-67 0 -100 -129q-5 -19 -44 -37t-53 -18
q-10 0 -10 32q0 50 28 105t82.5 95t117.5 40q51 0 79.5 -35.5t28.5 -93.5q0 -97 -51.5 -204t-143.5 -184t-193 -77zM530 908l66 -171h-55l-55 118l-118 -118h-63l141 171h84z" />
    <glyph glyph-name="Otilde" unicode="&#xd5;" horiz-adv-x="593" 
d="M198 -6q-92 0 -140.5 53t-48.5 145q0 111 62.5 234t170 209.5t220.5 86.5q45 0 45 -43q0 -39 -38 -45q-94 -12 -179.5 -82.5t-135 -168t-49.5 -188.5q0 -109 98 -109q68 0 137 68.5t109.5 156.5t40.5 153q0 13 -8 24.5t-25 11.5q-67 0 -100 -129q-5 -19 -44 -37t-53 -18
q-10 0 -10 32q0 50 28 105t82.5 95t117.5 40q51 0 79.5 -35.5t28.5 -93.5q0 -97 -51.5 -204t-143.5 -184t-193 -77zM347 760h-40q9 45 34.5 74.5t68.5 29.5q20 0 64 -14t55 -14q17 0 32.5 10.5t17.5 29.5h39q-7 -45 -32 -75.5t-68 -30.5q-11 0 -61 16q-48 16 -64 16
q-12 0 -21.5 -7.5t-13.5 -14t-11 -20.5z" />
    <glyph glyph-name="Odieresis" unicode="&#xd6;" horiz-adv-x="593" 
d="M198 -6q-92 0 -140.5 53t-48.5 145q0 111 62.5 234t170 209.5t220.5 86.5q45 0 45 -43q0 -39 -38 -45q-94 -12 -179.5 -82.5t-135 -168t-49.5 -188.5q0 -109 98 -109q68 0 137 68.5t109.5 156.5t40.5 153q0 13 -8 24.5t-25 11.5q-67 0 -100 -129q-5 -19 -44 -37t-53 -18
q-10 0 -10 32q0 50 28 105t82.5 95t117.5 40q51 0 79.5 -35.5t28.5 -93.5q0 -97 -51.5 -204t-143.5 -184t-193 -77zM546 864q20 0 35 -14.5t15 -33.5q0 -21 -15 -36t-36 -15t-35.5 14t-14.5 35t15 35.5t36 14.5zM377 864q20 0 35 -14.5t15 -33.5q0 -21 -15 -36t-36 -15
t-35.5 14t-14.5 35t15 35.5t36 14.5z" />
    <glyph glyph-name="multiply" unicode="&#xd7;" horiz-adv-x="600" 
d="M259 178l-137 138l41 40l137 -139l138 139l40 -42l-137 -136l137 -136l-40 -42l-138 137l-137 -137l-41 41z" />
    <glyph glyph-name="Oslash" unicode="&#xd8;" horiz-adv-x="593" 
d="M388 440l-180 -354q69 2 137 73.5t106.5 156.5t38.5 139q0 45 -33 45q-38 0 -69 -60zM144 102l261 514q-82 -26 -152 -96.5t-109 -159t-39 -170.5q0 -63 39 -88zM598 852l-68 -134q23 -6 31 -15t8 -30q0 -23 -13 -36t-36 -11l-35 3l-21 -42q5 1 14 1q51 0 79.5 -35.5
t28.5 -93.5q0 -66 -30.5 -146.5t-80.5 -151.5t-124.5 -119t-152.5 -48q-20 0 -36 3l-58 -114h-72l68 133q-91 44 -91 176q0 68 23 140.5t65.5 138.5t97.5 120.5t124 89.5t140 41l66 130h73z" />
    <glyph glyph-name="Ugrave" unicode="&#xd9;" horiz-adv-x="685" 
d="M217 97l315 321q99 102 128 161q8 17 37.5 25.5t53.5 8.5q15 0 15 -12q0 -3 -49.5 -99.5t-104.5 -220.5t-66 -188q-6 -36 -6 -74q0 -8 -43 -15.5t-54 -7.5q-5 0 -5 34q0 27 21.5 101.5t63.5 151.5l-2 2q-265 -291 -345 -291q-67 0 -67 60q0 31 22.5 86t90.5 199
q19 39 29 61t25 52.5t23.5 47.5t17 36t12 30.5t3.5 19.5q0 20 -28 20q-21 0 -40.5 -10t-35.5 -31.5t-27 -39t-23.5 -49t-16.5 -43.5l-13 -39q-7 -22 -46.5 -42.5t-51.5 -20.5q-11 0 -11 18q0 15 9.5 52t32 88.5t52.5 97.5t78 78.5t102 32.5q52 0 86.5 -23.5t34.5 -72.5
q0 -64 -101 -268l-118 -237h2zM461 908h102l10 -19q41 -74 77 -132l12 -20h-48q-9 0 -24 15.5t-31.5 39t-20.5 27.5z" />
    <glyph glyph-name="Uacute" unicode="&#xda;" horiz-adv-x="685" 
d="M217 97l315 321q99 102 128 161q8 17 37.5 25.5t53.5 8.5q15 0 15 -12q0 -3 -49.5 -99.5t-104.5 -220.5t-66 -188q-6 -36 -6 -74q0 -8 -43 -15.5t-54 -7.5q-5 0 -5 34q0 27 21.5 101.5t63.5 151.5l-2 2q-265 -291 -345 -291q-67 0 -67 60q0 31 22.5 86t90.5 199
q19 39 29 61t25 52.5t23.5 47.5t17 36t12 30.5t3.5 19.5q0 20 -28 20q-21 0 -40.5 -10t-35.5 -31.5t-27 -39t-23.5 -49t-16.5 -43.5l-13 -39q-7 -22 -46.5 -42.5t-51.5 -20.5q-11 0 -11 18q0 15 9.5 52t32 88.5t52.5 97.5t78 78.5t102 32.5q52 0 86.5 -23.5t34.5 -72.5
q0 -64 -101 -268l-118 -237h2zM618 908h102l-77 -89q-4 -4 -20.5 -27.5t-31.5 -39t-24 -15.5h-48l12 20q36 58 77 132z" />
    <glyph glyph-name="Ucircumflex" unicode="&#xdb;" horiz-adv-x="685" 
d="M217 97l315 321q99 102 128 161q8 17 37.5 25.5t53.5 8.5q15 0 15 -12q0 -3 -49.5 -99.5t-104.5 -220.5t-66 -188q-6 -36 -6 -74q0 -8 -43 -15.5t-54 -7.5q-5 0 -5 34q0 27 21.5 101.5t63.5 151.5l-2 2q-265 -291 -345 -291q-67 0 -67 60q0 31 22.5 86t90.5 199
q19 39 29 61t25 52.5t23.5 47.5t17 36t12 30.5t3.5 19.5q0 20 -28 20q-21 0 -40.5 -10t-35.5 -31.5t-27 -39t-23.5 -49t-16.5 -43.5l-13 -39q-7 -22 -46.5 -42.5t-51.5 -20.5q-11 0 -11 18q0 15 9.5 52t32 88.5t52.5 97.5t78 78.5t102 32.5q52 0 86.5 -23.5t34.5 -72.5
q0 -64 -101 -268l-118 -237h2zM657 908l66 -171h-55l-55 118l-118 -118h-63l141 171h84z" />
    <glyph glyph-name="Udieresis" unicode="&#xdc;" horiz-adv-x="685" 
d="M217 97l315 321q99 102 128 161q8 17 37.5 25.5t53.5 8.5q15 0 15 -12q0 -3 -49.5 -99.5t-104.5 -220.5t-66 -188q-6 -36 -6 -74q0 -8 -43 -15.5t-54 -7.5q-5 0 -5 34q0 27 21.5 101.5t63.5 151.5l-2 2q-265 -291 -345 -291q-67 0 -67 60q0 31 22.5 86t90.5 199
q19 39 29 61t25 52.5t23.5 47.5t17 36t12 30.5t3.5 19.5q0 20 -28 20q-21 0 -40.5 -10t-35.5 -31.5t-27 -39t-23.5 -49t-16.5 -43.5l-13 -39q-7 -22 -46.5 -42.5t-51.5 -20.5q-11 0 -11 18q0 15 9.5 52t32 88.5t52.5 97.5t78 78.5t102 32.5q52 0 86.5 -23.5t34.5 -72.5
q0 -64 -101 -268l-118 -237h2zM673 864q20 0 35 -14.5t15 -33.5q0 -21 -15 -36t-36 -15t-35.5 14t-14.5 35t15 35.5t36 14.5zM504 864q20 0 35 -14.5t15 -33.5q0 -21 -15 -36t-36 -15t-35.5 14t-14.5 35t15 35.5t36 14.5z" />
    <glyph glyph-name="Yacute" unicode="&#xdd;" horiz-adv-x="667" 
d="M114 363l-56 -32q-11 -7 -23 -7q-10 0 -10 20q0 8 7.5 41.5t28 88t50.5 103.5t82 85t115 36q47 0 76 -24.5t29 -70.5q0 -10 -2 -21.5t-4.5 -22t-8.5 -27.5t-10.5 -28.5t-14.5 -33.5t-15.5 -35t-18.5 -41.5t-20 -43.5l-119 -262l2 -2l67 53q30 24 73 63t105 99
t108.5 122.5t55.5 105.5q3 14 14.5 23.5t26.5 9.5h34q23 0 23 -20q0 -12 -50 -136.5t-116.5 -273t-139.5 -269.5t-111 -121q-13 0 -26.5 11t-13.5 23q0 7 18 38.5t52 92t61 117.5l88 186h-2q-36 -41 -64 -69.5t-71.5 -67t-87 -59t-82.5 -20.5q-28 0 -48 16.5t-20 43.5
q0 10 2 21t8 26t10.5 25.5t15 34.5t17.5 39l144 329q20 46 20 57q0 8 -7.5 15t-19.5 7q-24 0 -45.5 -14t-35.5 -32.5t-27.5 -47t-19.5 -46.5t-14 -43l-7 -25q-10 -29 -23 -37zM598 908h102l-77 -89q-4 -4 -20.5 -27.5t-31.5 -39t-24 -15.5h-48l12 20q36 58 77 132z" />
    <glyph glyph-name="Thorn" unicode="&#xde;" horiz-adv-x="815" 
d="M214 169l-49 -3q-74 -4 -135 -22.5t-61 -44.5q0 -27 50 -27q100 0 195 97zM11 -8q-62 0 -97 21.5t-35 79.5q0 47 32 80.5t90 52.5t127.5 27.5t154.5 8.5q71 87 136 332q14 65 30.5 84.5t40.5 19.5q17 0 24 -15t7 -53q0 -55 -41 -170.5t-82 -191.5q4 -2 13 -2q68 0 143 15
t134.5 49.5t59.5 79.5q0 24 -27 43t-62.5 27t-68.5 8q-25 0 -41.5 10t-16.5 30q0 15 15 27.5t43 12.5q102 0 181 -45t79 -113q0 -73 -69.5 -126t-183.5 -80t-259 -30q-129 -182 -327 -182z" />
    <glyph glyph-name="germandbls" unicode="&#xdf;" horiz-adv-x="500" 
d="M216 358l-165 -470q-4 -11 -12.5 -63.5t-23 -85.5t-41.5 -33q-45 0 -45 55q0 26 18.5 82t57 156t55.5 147l-2 2q-74 -67 -77 -67q-6 0 -6 44q0 34 11 43q30 25 60 54t46.5 48t17.5 22q11 39 23.5 75.5t33.5 90t46 96.5t55.5 83t68 62.5t77.5 22.5q45 0 70 -31.5t25 -78.5
q0 -32 -14 -68t-33.5 -64.5t-39.5 -52.5t-34 -38.5t-14 -16.5q0 -1 6.5 -5t15.5 -12t18 -19.5t15.5 -31.5t6.5 -44q0 -82 -71 -170q13 0 43.5 21t57 42t27.5 21q15 0 15 -40q0 -32 -20 -48q-98 -82 -183 -82q-12 0 -29 3l-16 3l-8 -4q-7 -3 -20.5 -6.5t-28.5 -3.5
q-23 0 -39 17.5t-16 36.5q0 15 13.5 18.5t67.5 3.5q48 33 85.5 86t37.5 104q0 19 -9 33t-17 19t-11 5q-1 0 -5 -3t-11.5 -6t-16.5 -3q-15 0 -25.5 10.5t-10.5 25.5q0 39 50 48q49 44 90 107t41 101q0 37 -29 37q-28 0 -58 -32.5t-55.5 -84.5t-41 -89t-27.5 -72z" />
    <glyph glyph-name="agrave" unicode="&#xe0;" horiz-adv-x="426" 
d="M297 236h55q-64 -130 -64 -140q0 -8 10 -8q7 0 42 24.5t58 43.5q18 16 22 16q11 0 11 -48q0 -33 -54 -67q-2 -1 -24.5 -15t-31 -18.5t-26.5 -13.5t-31 -12.5t-24 -3.5q-26 0 -34.5 12.5t-6.5 39.5q-26 -27 -48 -39.5t-54 -12.5h-19q-41 0 -66.5 33t-25.5 91v23
q0 51 30 94.5t75.5 70t96 41.5t95.5 15q53 0 73 -8q6 -26 6 -68q0 -9 -6 -9l-4 2q-5 2 -12 4.5t-15.5 4.5t-20.5 4t-24 2q-65 0 -131.5 -46.5t-66.5 -105.5v-29q0 -14 7 -24.5t19 -10.5q35 0 81.5 53t76.5 111q18 -6 31 -6zM169 597h102l10 -19q41 -74 77 -132l12 -20h-48
q-9 0 -24 15.5t-31.5 39t-20.5 27.5z" />
    <glyph glyph-name="aacute" unicode="&#xe1;" horiz-adv-x="426" 
d="M297 236h55q-64 -130 -64 -140q0 -8 10 -8q7 0 42 24.5t58 43.5q18 16 22 16q11 0 11 -48q0 -33 -54 -67q-2 -1 -24.5 -15t-31 -18.5t-26.5 -13.5t-31 -12.5t-24 -3.5q-26 0 -34.5 12.5t-6.5 39.5q-26 -27 -48 -39.5t-54 -12.5h-19q-41 0 -66.5 33t-25.5 91v23
q0 51 30 94.5t75.5 70t96 41.5t95.5 15q53 0 73 -8q6 -26 6 -68q0 -9 -6 -9l-4 2q-5 2 -12 4.5t-15.5 4.5t-20.5 4t-24 2q-65 0 -131.5 -46.5t-66.5 -105.5v-29q0 -14 7 -24.5t19 -10.5q35 0 81.5 53t76.5 111q18 -6 31 -6zM326 597h102l-77 -89q-4 -4 -20.5 -27.5
t-31.5 -39t-24 -15.5h-48l12 20q36 58 77 132z" />
    <glyph glyph-name="acircumflex" unicode="&#xe2;" horiz-adv-x="426" 
d="M297 236h55q-64 -130 -64 -140q0 -8 10 -8q7 0 42 24.5t58 43.5q18 16 22 16q11 0 11 -48q0 -33 -54 -67q-2 -1 -24.5 -15t-31 -18.5t-26.5 -13.5t-31 -12.5t-24 -3.5q-26 0 -34.5 12.5t-6.5 39.5q-26 -27 -48 -39.5t-54 -12.5h-19q-41 0 -66.5 33t-25.5 91v23
q0 51 30 94.5t75.5 70t96 41.5t95.5 15q53 0 73 -8q6 -26 6 -68q0 -9 -6 -9l-4 2q-5 2 -12 4.5t-15.5 4.5t-20.5 4t-24 2q-65 0 -131.5 -46.5t-66.5 -105.5v-29q0 -14 7 -24.5t19 -10.5q35 0 81.5 53t76.5 111q18 -6 31 -6zM365 597l66 -171h-55l-55 118l-118 -118h-63
l141 171h84z" />
    <glyph glyph-name="atilde" unicode="&#xe3;" horiz-adv-x="426" 
d="M297 236h55q-64 -130 -64 -140q0 -8 10 -8q7 0 42 24.5t58 43.5q18 16 22 16q11 0 11 -48q0 -33 -54 -67q-2 -1 -24.5 -15t-31 -18.5t-26.5 -13.5t-31 -12.5t-24 -3.5q-26 0 -34.5 12.5t-6.5 39.5q-26 -27 -48 -39.5t-54 -12.5h-19q-41 0 -66.5 33t-25.5 91v23
q0 51 30 94.5t75.5 70t96 41.5t95.5 15q53 0 73 -8q6 -26 6 -68q0 -9 -6 -9l-4 2q-5 2 -12 4.5t-15.5 4.5t-20.5 4t-24 2q-65 0 -131.5 -46.5t-66.5 -105.5v-29q0 -14 7 -24.5t19 -10.5q35 0 81.5 53t76.5 111q18 -6 31 -6zM182 449h-40q9 45 34.5 74.5t68.5 29.5
q20 0 64 -14t55 -14q17 0 32.5 10.5t17.5 29.5h39q-7 -45 -32 -75.5t-68 -30.5q-11 0 -61 16q-48 16 -64 16q-12 0 -21.5 -7.5t-13.5 -14t-11 -20.5z" />
    <glyph glyph-name="adieresis" unicode="&#xe4;" horiz-adv-x="426" 
d="M297 236h55q-64 -130 -64 -140q0 -8 10 -8q7 0 42 24.5t58 43.5q18 16 22 16q11 0 11 -48q0 -33 -54 -67q-2 -1 -24.5 -15t-31 -18.5t-26.5 -13.5t-31 -12.5t-24 -3.5q-26 0 -34.5 12.5t-6.5 39.5q-26 -27 -48 -39.5t-54 -12.5h-19q-41 0 -66.5 33t-25.5 91v23
q0 51 30 94.5t75.5 70t96 41.5t95.5 15q53 0 73 -8q6 -26 6 -68q0 -9 -6 -9l-4 2q-5 2 -12 4.5t-15.5 4.5t-20.5 4t-24 2q-65 0 -131.5 -46.5t-66.5 -105.5v-29q0 -14 7 -24.5t19 -10.5q35 0 81.5 53t76.5 111q18 -6 31 -6zM381 553q20 0 35 -14.5t15 -33.5q0 -21 -15 -36
t-36 -15t-35.5 14t-14.5 35t15 35.5t36 14.5zM212 553q20 0 35 -14.5t15 -33.5q0 -21 -15 -36t-36 -15t-35.5 14t-14.5 35t15 35.5t36 14.5z" />
    <glyph glyph-name="aring" unicode="&#xe5;" horiz-adv-x="426" 
d="M297 236h55q-64 -130 -64 -140q0 -8 10 -8q7 0 42 24.5t58 43.5q18 16 22 16q11 0 11 -48q0 -33 -54 -67q-2 -1 -24.5 -15t-31 -18.5t-26.5 -13.5t-31 -12.5t-24 -3.5q-26 0 -34.5 12.5t-6.5 39.5q-26 -27 -48 -39.5t-54 -12.5h-19q-41 0 -66.5 33t-25.5 91v23
q0 51 30 94.5t75.5 70t96 41.5t95.5 15q53 0 73 -8q6 -26 6 -68q0 -9 -6 -9l-4 2q-5 2 -12 4.5t-15.5 4.5t-20.5 4t-24 2q-65 0 -131.5 -46.5t-66.5 -105.5v-29q0 -14 7 -24.5t19 -10.5q35 0 81.5 53t76.5 111q18 -6 31 -6zM242 517q0 -21 15 -36t37 -15t37 15t15 37t-15 37
t-37 15t-37 -15t-15 -38zM194 518q0 41 29.5 70.5t70.5 29.5t70.5 -29.5t29.5 -70.5t-29.5 -70.5t-70.5 -29.5t-70.5 29.5t-29.5 70.5z" />
    <glyph glyph-name="ae" unicode="&#xe6;" horiz-adv-x="593" 
d="M292 362l-17 -78h-37q-63 0 -109 -44.5t-46 -95.5v-27q0 -22 9 -30.5t32 -8.5q22 0 42.5 16t37.5 46.5t25 48t19 45.5h30q92 128 184 128q45 0 73.5 -22t28.5 -62q0 -37 -30.5 -71t-69.5 -53q-78 -38 -163 -38q0 -16 6.5 -26t19.5 -14t24 -5t28 -1q42 0 96 27t89 55
q4 4 8.5 9t7.5 7.5t6 2.5q10 0 10 -26q0 -47 -14 -59q-43 -36 -101.5 -64t-119.5 -28q-58 0 -73 35q-10 -17 -27.5 -30t-34.5 -13q-28 0 -28 32q0 4 10 41h-2q-27 -35 -52 -50t-64 -15q-96 0 -103 107v37q0 56 29.5 101t76 70.5t98 39t101.5 13.5zM470 261q0 29 -25 29
q-37 0 -74 -36.5t-49 -75.5q36 2 92 28t56 55z" />
    <glyph glyph-name="ccedilla" unicode="&#xe7;" horiz-adv-x="352" 
d="M299 212h-70q-15 0 -15 4q0 1 5 9t10.5 21.5t5.5 26.5q0 25 -21 25q-46 0 -87 -48t-41 -111q0 -69 58 -69q42 0 89 26t78 51.5t34 25.5q12 0 12 -50q0 -26 -31 -49q-54 -39 -98.5 -59.5t-94.5 -20.5q-10 0 -14 1l-23 -46q4 0 12 1t12 1q38 0 59 -20.5t21 -49.5
q0 -43 -37 -65t-85 -22q-74 0 -130 37l22 35q48 -34 96 -34q56 0 56 46q0 35 -44 35q-4 0 -14 -1.5t-12 -1.5q-5 0 -5 6q0 1 3 7l36 74q-48 6 -71 32t-23 83v38q0 51 25.5 93t63 67t77 38.5t71.5 13.5q51 0 77 -16.5t26 -43.5q0 -19 -13.5 -54.5t-19.5 -35.5z" />
    <glyph glyph-name="egrave" unicode="&#xe8;" horiz-adv-x="352" 
d="M-8 115v47q0 81 81 140.5t165 59.5q88 0 88 -88q0 -35 -27.5 -66.5t-65 -50.5t-70.5 -30t-48 -11q-25 0 -25 -11q0 -12 16.5 -23.5t34.5 -11.5q41 0 94 27t82 50q5 4 11 9.5t9 8.5t5.5 5t4.5 2q10 0 10 -33q0 -22 -4.5 -34t-19.5 -26q-104 -85 -212 -85q-129 0 -129 121z
M232 261q0 29 -25 29q-37 0 -74 -36.5t-49 -75.5q36 2 92 28t56 55zM109 597h102l10 -19q41 -74 77 -132l12 -20h-48q-9 0 -24 15.5t-31.5 39t-20.5 27.5z" />
    <glyph glyph-name="eacute" unicode="&#xe9;" horiz-adv-x="352" 
d="M-8 115v47q0 81 81 140.5t165 59.5q88 0 88 -88q0 -35 -27.5 -66.5t-65 -50.5t-70.5 -30t-48 -11q-25 0 -25 -11q0 -12 16.5 -23.5t34.5 -11.5q41 0 94 27t82 50q5 4 11 9.5t9 8.5t5.5 5t4.5 2q10 0 10 -33q0 -22 -4.5 -34t-19.5 -26q-104 -85 -212 -85q-129 0 -129 121z
M232 261q0 29 -25 29q-37 0 -74 -36.5t-49 -75.5q36 2 92 28t56 55zM266 597h102l-77 -89q-4 -4 -20.5 -27.5t-31.5 -39t-24 -15.5h-48l12 20q36 58 77 132z" />
    <glyph glyph-name="ecircumflex" unicode="&#xea;" horiz-adv-x="352" 
d="M-8 115v47q0 81 81 140.5t165 59.5q88 0 88 -88q0 -35 -27.5 -66.5t-65 -50.5t-70.5 -30t-48 -11q-25 0 -25 -11q0 -12 16.5 -23.5t34.5 -11.5q41 0 94 27t82 50q5 4 11 9.5t9 8.5t5.5 5t4.5 2q10 0 10 -33q0 -22 -4.5 -34t-19.5 -26q-104 -85 -212 -85q-129 0 -129 121z
M232 261q0 29 -25 29q-37 0 -74 -36.5t-49 -75.5q36 2 92 28t56 55zM305 597l66 -171h-55l-55 118l-118 -118h-63l141 171h84z" />
    <glyph glyph-name="edieresis" unicode="&#xeb;" horiz-adv-x="352" 
d="M-8 115v47q0 81 81 140.5t165 59.5q88 0 88 -88q0 -35 -27.5 -66.5t-65 -50.5t-70.5 -30t-48 -11q-25 0 -25 -11q0 -12 16.5 -23.5t34.5 -11.5q41 0 94 27t82 50q5 4 11 9.5t9 8.5t5.5 5t4.5 2q10 0 10 -33q0 -22 -4.5 -34t-19.5 -26q-104 -85 -212 -85q-129 0 -129 121z
M232 261q0 29 -25 29q-37 0 -74 -36.5t-49 -75.5q36 2 92 28t56 55zM321 553q20 0 35 -14.5t15 -33.5q0 -21 -15 -36t-36 -15t-35.5 14t-14.5 35t15 35.5t36 14.5zM152 553q20 0 35 -14.5t15 -33.5q0 -21 -15 -36t-36 -15t-35.5 14t-14.5 35t15 35.5t36 14.5z" />
    <glyph glyph-name="igrave" unicode="&#xec;" horiz-adv-x="259" 
d="M141 350h94l-95 -208q-16 -37 -16 -43q0 -9 6 -9q7 0 22.5 9t29.5 19t31 23t18 14q3 2 8 7t8.5 8t6.5 3q9 0 9 -34q0 -38 -13 -48q-119 -95 -192 -95q-26 0 -38 9t-12 31q0 17 13.5 49.5t13.5 34.5l-2 2q-8 -7 -20.5 -17.5t-20 -16.5t-9.5 -6q-7 0 -7 41q0 36 11 46
q120 107 136 136q5 9 18 45zM86 597h102l10 -19q41 -74 77 -132l12 -20h-48q-9 0 -24 15.5t-31.5 39t-20.5 27.5z" />
    <glyph glyph-name="iacute" unicode="&#xed;" horiz-adv-x="259" 
d="M141 350h94l-95 -208q-16 -37 -16 -43q0 -9 6 -9q7 0 22.5 9t29.5 19t31 23t18 14q3 2 8 7t8.5 8t6.5 3q9 0 9 -34q0 -38 -13 -48q-119 -95 -192 -95q-26 0 -38 9t-12 31q0 17 13.5 49.5t13.5 34.5l-2 2q-8 -7 -20.5 -17.5t-20 -16.5t-9.5 -6q-7 0 -7 41q0 36 11 46
q120 107 136 136q5 9 18 45zM243 597h102l-77 -89q-4 -4 -20.5 -27.5t-31.5 -39t-24 -15.5h-48l12 20q36 58 77 132z" />
    <glyph glyph-name="icircumflex" unicode="&#xee;" horiz-adv-x="259" 
d="M141 350h94l-95 -208q-16 -37 -16 -43q0 -9 6 -9q7 0 22.5 9t29.5 19t31 23t18 14q3 2 8 7t8.5 8t6.5 3q9 0 9 -34q0 -38 -13 -48q-119 -95 -192 -95q-26 0 -38 9t-12 31q0 17 13.5 49.5t13.5 34.5l-2 2q-8 -7 -20.5 -17.5t-20 -16.5t-9.5 -6q-7 0 -7 41q0 36 11 46
q120 107 136 136q5 9 18 45zM282 597l66 -171h-55l-55 118l-118 -118h-63l141 171h84z" />
    <glyph glyph-name="idieresis" unicode="&#xef;" horiz-adv-x="259" 
d="M141 350h94l-95 -208q-16 -37 -16 -43q0 -9 6 -9q7 0 22.5 9t29.5 19t31 23t18 14q3 2 8 7t8.5 8t6.5 3q9 0 9 -34q0 -38 -13 -48q-119 -95 -192 -95q-26 0 -38 9t-12 31q0 17 13.5 49.5t13.5 34.5l-2 2q-8 -7 -20.5 -17.5t-20 -16.5t-9.5 -6q-7 0 -7 41q0 36 11 46
q120 107 136 136q5 9 18 45zM298 553q20 0 35 -14.5t15 -33.5q0 -21 -15 -36t-36 -15t-35.5 14t-14.5 35t15 35.5t36 14.5zM129 553q20 0 35 -14.5t15 -33.5q0 -21 -15 -36t-36 -15t-35.5 14t-14.5 35t15 35.5t36 14.5z" />
    <glyph glyph-name="eth" unicode="&#xf0;" horiz-adv-x="370" 
d="M131 78q27 0 48 19.5t31.5 48t16 55.5t5.5 49q0 44 -44 44q-37 0 -74 -45.5t-37 -109.5q0 -61 54 -61zM355 615l147 35l-11 -45q-6 -25 -72 -43l-56 -13q2 -32 2 -47q0 -77 -15.5 -160t-28.5 -121q-10 -33 -10 -50q0 -18 13 -18q7 0 16.5 5.5t16 10.5t7.5 5q6 0 6 -43
q0 -39 -14 -47q-18 -12 -44 -12q-19 0 -35 20q-60 -98 -176 -98q-55 0 -87.5 33.5t-32.5 92.5q0 122 67.5 193t164.5 71q27 0 45 -12q14 28 14 128q0 18 -1 28l-147 -34l14 44q8 24 64 40l61 15q-3 21 -7 43.5t-6.5 35t-2.5 14.5q0 14 16.5 25t37.5 11q27 0 31 -12
q11 -28 23 -95z" />
    <glyph glyph-name="ntilde" unicode="&#xf1;" horiz-adv-x="500" 
d="M143 350h85q-8 -18 -26 -56t-30 -64t-12 -28q0 -3 5 -3q3 0 52.5 39.5t106.5 78.5t79 39q53 0 53 -37q0 -18 -48.5 -113t-48.5 -106q0 -10 5 -10q12 0 43.5 21t58.5 41l27 21q12 0 12 -41q0 -30 -12 -42q-25 -25 -90 -60.5t-99 -35.5q-58 0 -58 41q0 20 37.5 98.5
t37.5 81.5t-2 3q-5 0 -36 -24t-72 -58t-47 -39q-18 -15 -40.5 -34.5t-34 -30t-25 -20.5t-23 -14t-18.5 -4q-13 0 -21 8.5t-8 19.5q0 17 31 93h-2q-40 -33 -42 -33q-5 0 -5 57q0 23 33 48q22 17 67 64.5t53 78.5q6 20 14 20zM231 449h-40q9 45 34.5 74.5t68.5 29.5
q20 0 64 -14t55 -14q17 0 32.5 10.5t17.5 29.5h39q-7 -45 -32 -75.5t-68 -30.5q-11 0 -61 16q-48 16 -64 16q-12 0 -21.5 -7.5t-13.5 -14t-11 -20.5z" />
    <glyph glyph-name="ograve" unicode="&#xf2;" horiz-adv-x="370" 
d="M214 384q43 0 75.5 -29.5t32.5 -77.5q0 -13 -3 -22.5t-6 -13.5t-8 -9l-6 -6q9 -27 9 -37q0 -7 -5.5 -20.5t-6.5 -18.5q3 -2 16 -2q11 0 23 6.5t20 13t9 6.5q6 0 6 -43q0 -39 -15 -46q-40 -19 -60 -19q-15 0 -29 8q-37 -43 -74 -61.5t-91 -18.5q-55 0 -87.5 33.5
t-32.5 92.5q0 126 70.5 195t162.5 69zM131 78q16 0 36 11.5t26 25.5q-13 33 -13 44q0 28 13 47t26 30t13 19q0 15 -10.5 27t-33.5 12q-37 0 -74 -45.5t-37 -109.5q0 -61 54 -61zM118 597h102l10 -19q41 -74 77 -132l12 -20h-48q-9 0 -24 15.5t-31.5 39t-20.5 27.5z" />
    <glyph glyph-name="oacute" unicode="&#xf3;" horiz-adv-x="370" 
d="M214 384q43 0 75.5 -29.5t32.5 -77.5q0 -13 -3 -22.5t-6 -13.5t-8 -9l-6 -6q9 -27 9 -37q0 -7 -5.5 -20.5t-6.5 -18.5q3 -2 16 -2q11 0 23 6.5t20 13t9 6.5q6 0 6 -43q0 -39 -15 -46q-40 -19 -60 -19q-15 0 -29 8q-37 -43 -74 -61.5t-91 -18.5q-55 0 -87.5 33.5
t-32.5 92.5q0 126 70.5 195t162.5 69zM131 78q16 0 36 11.5t26 25.5q-13 33 -13 44q0 28 13 47t26 30t13 19q0 15 -10.5 27t-33.5 12q-37 0 -74 -45.5t-37 -109.5q0 -61 54 -61zM275 597h102l-77 -89q-4 -4 -20.5 -27.5t-31.5 -39t-24 -15.5h-48l12 20q36 58 77 132z" />
    <glyph glyph-name="ocircumflex" unicode="&#xf4;" horiz-adv-x="370" 
d="M214 384q43 0 75.5 -29.5t32.5 -77.5q0 -13 -3 -22.5t-6 -13.5t-8 -9l-6 -6q9 -27 9 -37q0 -7 -5.5 -20.5t-6.5 -18.5q3 -2 16 -2q11 0 23 6.5t20 13t9 6.5q6 0 6 -43q0 -39 -15 -46q-40 -19 -60 -19q-15 0 -29 8q-37 -43 -74 -61.5t-91 -18.5q-55 0 -87.5 33.5
t-32.5 92.5q0 126 70.5 195t162.5 69zM131 78q16 0 36 11.5t26 25.5q-13 33 -13 44q0 28 13 47t26 30t13 19q0 15 -10.5 27t-33.5 12q-37 0 -74 -45.5t-37 -109.5q0 -61 54 -61zM314 597l66 -171h-55l-55 118l-118 -118h-63l141 171h84z" />
    <glyph glyph-name="otilde" unicode="&#xf5;" horiz-adv-x="370" 
d="M214 384q43 0 75.5 -29.5t32.5 -77.5q0 -13 -3 -22.5t-6 -13.5t-8 -9l-6 -6q9 -27 9 -37q0 -7 -5.5 -20.5t-6.5 -18.5q3 -2 16 -2q11 0 23 6.5t20 13t9 6.5q6 0 6 -43q0 -39 -15 -46q-40 -19 -60 -19q-15 0 -29 8q-37 -43 -74 -61.5t-91 -18.5q-55 0 -87.5 33.5
t-32.5 92.5q0 126 70.5 195t162.5 69zM131 78q16 0 36 11.5t26 25.5q-13 33 -13 44q0 28 13 47t26 30t13 19q0 15 -10.5 27t-33.5 12q-37 0 -74 -45.5t-37 -109.5q0 -61 54 -61zM131 449h-40q9 45 34.5 74.5t68.5 29.5q20 0 64 -14t55 -14q17 0 32.5 10.5t17.5 29.5h39
q-7 -45 -32 -75.5t-68 -30.5q-11 0 -61 16q-48 16 -64 16q-12 0 -21.5 -7.5t-13.5 -14t-11 -20.5z" />
    <glyph glyph-name="odieresis" unicode="&#xf6;" horiz-adv-x="370" 
d="M214 384q43 0 75.5 -29.5t32.5 -77.5q0 -13 -3 -22.5t-6 -13.5t-8 -9l-6 -6q9 -27 9 -37q0 -7 -5.5 -20.5t-6.5 -18.5q3 -2 16 -2q11 0 23 6.5t20 13t9 6.5q6 0 6 -43q0 -39 -15 -46q-40 -19 -60 -19q-15 0 -29 8q-37 -43 -74 -61.5t-91 -18.5q-55 0 -87.5 33.5
t-32.5 92.5q0 126 70.5 195t162.5 69zM131 78q16 0 36 11.5t26 25.5q-13 33 -13 44q0 28 13 47t26 30t13 19q0 15 -10.5 27t-33.5 12q-37 0 -74 -45.5t-37 -109.5q0 -61 54 -61zM330 553q20 0 35 -14.5t15 -33.5q0 -21 -15 -36t-36 -15t-35.5 14t-14.5 35t15 35.5t36 14.5z
M161 553q20 0 35 -14.5t15 -33.5q0 -21 -15 -36t-36 -15t-35.5 14t-14.5 35t15 35.5t36 14.5z" />
    <glyph glyph-name="divide" unicode="&#xf7;" horiz-adv-x="600" 
d="M478 149h-356v58h356v-58zM300 272q-20 0 -35 15.5t-15 36.5q0 20 15 35.5t35 15.5q21 0 36 -15.5t15 -35.5q0 -21 -15 -36.5t-36 -15.5zM300 -19q-20 0 -35 15.5t-15 35.5q0 21 15 36.5t35 15.5q21 0 36 -15.5t15 -36.5q0 -20 -15 -35.5t-36 -15.5z" />
    <glyph glyph-name="oslash" unicode="&#xf8;" horiz-adv-x="370" 
d="M253 473h78l-54 -109q45 -28 45 -87q0 -13 -3 -22.5t-6 -13.5t-8 -9l-6 -6q9 -27 9 -37q0 -7 -5.5 -20.5t-6.5 -18.5q3 -2 16 -2q11 0 23 6.5t20 13t9 6.5q6 0 6 -43q0 -39 -15 -46q-40 -19 -60 -19q-15 0 -29 8q-37 -43 -74 -61.5t-91 -18.5q-6 0 -8 1l-50 -100h-71
l58 119q-49 30 -49 106q0 124 69 193t160 71zM131 78q16 0 36 11.5t26 25.5q-13 33 -13 44q0 28 13 47t26 30t13 19q0 15 -10.5 27t-33.5 12q-37 0 -74 -45.5t-37 -109.5q0 -61 54 -61z" />
    <glyph glyph-name="ugrave" unicode="&#xf9;" horiz-adv-x="500" 
d="M404 350h60q12 0 12 -11q0 -1 -22 -47l-83 -176q-2 -4 -3.5 -7.5t-2.5 -5t-1 -2.5q0 -9 8 -9q10 0 42.5 20.5t53.5 38.5q27 23 28 23q4 0 7 -13t3 -26q0 -22 -7.5 -35t-27.5 -27q-37 -27 -87 -53t-79 -26q-54 0 -54 40q0 12 7 32.5t17.5 45t13.5 32.5l-2 2
q-177 -152 -248 -152q-43 0 -43 33q0 39 30 89l-2 2q-5 -4 -15 -13.5t-17.5 -16t-10.5 -6.5q-5 0 -5 33q0 45 11 54q69 56 120 117q16 19 26 50q5 14 10 14h74q10 0 10 -9q0 -4 -10 -24l-89 -187q-1 -3 -3 -7t-4 -7.5t-2 -4.5q0 -5 3 -5q6 0 54.5 37.5t62.5 51.5
q36 33 150 147q11 8 15 8zM218 597h102l10 -19q41 -74 77 -132l12 -20h-48q-9 0 -24 15.5t-31.5 39t-20.5 27.5z" />
    <glyph glyph-name="uacute" unicode="&#xfa;" horiz-adv-x="500" 
d="M404 350h60q12 0 12 -11q0 -1 -22 -47l-83 -176q-2 -4 -3.5 -7.5t-2.5 -5t-1 -2.5q0 -9 8 -9q10 0 42.5 20.5t53.5 38.5q27 23 28 23q4 0 7 -13t3 -26q0 -22 -7.5 -35t-27.5 -27q-37 -27 -87 -53t-79 -26q-54 0 -54 40q0 12 7 32.5t17.5 45t13.5 32.5l-2 2
q-177 -152 -248 -152q-43 0 -43 33q0 39 30 89l-2 2q-5 -4 -15 -13.5t-17.5 -16t-10.5 -6.5q-5 0 -5 33q0 45 11 54q69 56 120 117q16 19 26 50q5 14 10 14h74q10 0 10 -9q0 -4 -10 -24l-89 -187q-1 -3 -3 -7t-4 -7.5t-2 -4.5q0 -5 3 -5q6 0 54.5 37.5t62.5 51.5
q36 33 150 147q11 8 15 8zM375 597h102l-77 -89q-4 -4 -20.5 -27.5t-31.5 -39t-24 -15.5h-48l12 20q36 58 77 132z" />
    <glyph glyph-name="ucircumflex" unicode="&#xfb;" horiz-adv-x="500" 
d="M404 350h60q12 0 12 -11q0 -1 -22 -47l-83 -176q-2 -4 -3.5 -7.5t-2.5 -5t-1 -2.5q0 -9 8 -9q10 0 42.5 20.5t53.5 38.5q27 23 28 23q4 0 7 -13t3 -26q0 -22 -7.5 -35t-27.5 -27q-37 -27 -87 -53t-79 -26q-54 0 -54 40q0 12 7 32.5t17.5 45t13.5 32.5l-2 2
q-177 -152 -248 -152q-43 0 -43 33q0 39 30 89l-2 2q-5 -4 -15 -13.5t-17.5 -16t-10.5 -6.5q-5 0 -5 33q0 45 11 54q69 56 120 117q16 19 26 50q5 14 10 14h74q10 0 10 -9q0 -4 -10 -24l-89 -187q-1 -3 -3 -7t-4 -7.5t-2 -4.5q0 -5 3 -5q6 0 54.5 37.5t62.5 51.5
q36 33 150 147q11 8 15 8zM414 597l66 -171h-55l-55 118l-118 -118h-63l141 171h84z" />
    <glyph glyph-name="udieresis" unicode="&#xfc;" horiz-adv-x="500" 
d="M404 350h60q12 0 12 -11q0 -1 -22 -47l-83 -176q-2 -4 -3.5 -7.5t-2.5 -5t-1 -2.5q0 -9 8 -9q10 0 42.5 20.5t53.5 38.5q27 23 28 23q4 0 7 -13t3 -26q0 -22 -7.5 -35t-27.5 -27q-37 -27 -87 -53t-79 -26q-54 0 -54 40q0 12 7 32.5t17.5 45t13.5 32.5l-2 2
q-177 -152 -248 -152q-43 0 -43 33q0 39 30 89l-2 2q-5 -4 -15 -13.5t-17.5 -16t-10.5 -6.5q-5 0 -5 33q0 45 11 54q69 56 120 117q16 19 26 50q5 14 10 14h74q10 0 10 -9q0 -4 -10 -24l-89 -187q-1 -3 -3 -7t-4 -7.5t-2 -4.5q0 -5 3 -5q6 0 54.5 37.5t62.5 51.5
q36 33 150 147q11 8 15 8zM430 553q20 0 35 -14.5t15 -33.5q0 -21 -15 -36t-36 -15t-35.5 14t-14.5 35t15 35.5t36 14.5zM261 553q20 0 35 -14.5t15 -33.5q0 -21 -15 -36t-36 -15t-35.5 14t-14.5 35t15 35.5t36 14.5z" />
    <glyph glyph-name="yacute" unicode="&#xfd;" horiz-adv-x="463" 
d="M373 350h73l-124 -279q23 11 118 90q16 13 17 13q11 0 11 -44q0 -32 -32 -56q-14 -11 -44 -34t-47.5 -37.5t-44 -38.5t-48.5 -49q-14 -16 -36 -71.5t-47 -96.5t-56 -41q-21 0 -33 13t-12 33q0 37 26 84.5t60.5 94.5t42.5 64q12 27 36 79.5t36 78.5l-2 2
q-25 -20 -68 -56.5t-65.5 -54.5t-51 -34t-47.5 -16q-17 0 -28.5 8.5t-11.5 24.5q0 11 5.5 27t14 36.5t10.5 25.5l-2 2q-5 -4 -14 -13t-16.5 -15.5t-11.5 -6.5q-6 0 -6 50q0 7 2.5 19.5t4.5 14.5q118 103 127 123l26 60h88l-105 -230l2 -2q53 39 124.5 106.5t98.5 97.5
q19 21 30 28zM322 597h102l-77 -89q-4 -4 -20.5 -27.5t-31.5 -39t-24 -15.5h-48l12 20q36 58 77 132z" />
    <glyph glyph-name="thorn" unicode="&#xfe;" horiz-adv-x="537" 
d="M132 293l26 75q96 271 109 303q7 16 11.5 25t14 17.5t22.5 8.5q34 0 34 -50q0 -57 -36.5 -152.5t-77.5 -175.5q-10 -20 -27 -84h2q75 96 163 96q39 0 62.5 -26.5t23.5 -69.5q0 -52 -23 -93.5t-67 -86.5v-2q44 9 71.5 25t66.5 51q20 18 22 18q13 0 13 -36
q0 -26 -9.5 -39.5t-32.5 -29.5q-90 -63 -167 -63q-29 0 -45 8q-36 -18 -70 -18q-18 0 -36 16t-18 35q0 26 26 26q6 0 20.5 -3.5t22.5 -3.5q16 0 48 34t58 80.5t26 77.5q0 16 -22 16q-41 0 -113.5 -78.5t-111.5 -181.5q-38 -101 -70 -248q-12 -58 -51 -58q-19 0 -30 14
t-11 35q0 35 33.5 134.5t63.5 173.5t55 132h-2l-33 -34q-81 -79 -90 -79q-5 0 -5 14v51q0 12 14 26q11 11 71.5 61.5t68.5 58.5z" />
    <glyph glyph-name="ydieresis" unicode="&#xff;" horiz-adv-x="463" 
d="M373 350h73l-124 -279q23 11 118 90q16 13 17 13q11 0 11 -44q0 -32 -32 -56q-14 -11 -44 -34t-47.5 -37.5t-44 -38.5t-48.5 -49q-14 -16 -36 -71.5t-47 -96.5t-56 -41q-21 0 -33 13t-12 33q0 37 26 84.5t60.5 94.5t42.5 64q12 27 36 79.5t36 78.5l-2 2
q-25 -20 -68 -56.5t-65.5 -54.5t-51 -34t-47.5 -16q-17 0 -28.5 8.5t-11.5 24.5q0 11 5.5 27t14 36.5t10.5 25.5l-2 2q-5 -4 -14 -13t-16.5 -15.5t-11.5 -6.5q-6 0 -6 50q0 7 2.5 19.5t4.5 14.5q118 103 127 123l26 60h88l-105 -230l2 -2q53 39 124.5 106.5t98.5 97.5
q19 21 30 28zM377 553q20 0 35 -14.5t15 -33.5q0 -21 -15 -36t-36 -15t-35.5 14t-14.5 35t15 35.5t36 14.5zM208 553q20 0 35 -14.5t15 -33.5q0 -21 -15 -36t-36 -15t-35.5 14t-14.5 35t15 35.5t36 14.5z" />
    <glyph glyph-name="dotlessi" unicode="&#x131;" horiz-adv-x="259" 
d="M141 350h94l-95 -208q-16 -37 -16 -43q0 -9 6 -9q7 0 22.5 9t29.5 19t31 23t18 14q3 2 8 7t8.5 8t6.5 3q9 0 9 -34q0 -38 -13 -48q-119 -95 -192 -95q-26 0 -38 9t-12 31q0 17 13.5 49.5t13.5 34.5l-2 2q-8 -7 -20.5 -17.5t-20 -16.5t-9.5 -6q-7 0 -7 41q0 36 11 46
q120 107 136 136q5 9 18 45z" />
    <glyph glyph-name="Lslash" unicode="&#x141;" horiz-adv-x="611" 
d="M556 111l-20 -80q-4 -15 -15 -20t-34 -7q-45 -4 -234 -4q-38 0 -107 16q-44 -20 -101 -20q-99 0 -99 60q0 29 35 44t73 15q16 0 47 -4.5t37 -5.5q23 23 45 61h-101l36 84h108q20 43 38 96q50 144 81 201q81 151 193 151q51 0 83 -30.5t32 -80.5q0 -45 -34 -124t-69 -134
q-5 -8 -26 -10q-31 -5 -51 -9.5t-27 -6.5t-11 -2q-9 0 -9 8q0 4 3 9t10 15t12 19q102 165 102 220q0 32 -23 32q-69 0 -140 -189q-52 -141 -62 -165h110l-36 -84h-113q-26 -46 -48 -76q31 -7 81 -7q109 0 234 28z" />
    <glyph glyph-name="lslash" unicode="&#x142;" horiz-adv-x="259" 
d="M42 376l24 67l95 14q47 137 79 217q9 23 19.5 35.5t28.5 12.5q34 0 34 -47q0 -68 -56 -202l92 14l-24 -67l-98 -15q-13 -30 -27 -55q-17 -32 -51.5 -127t-34.5 -118q0 -15 7 -15q12 0 66.5 41.5t55.5 41.5q4 0 7.5 -10t3.5 -22q0 -27 -8 -42.5t-30 -31.5
q-106 -73 -153 -73q-55 0 -55 47q0 4 5 22t11.5 38.5t7.5 23.5l-2 2q-13 -9 -27 -20.5t-21 -17.5t-10 -6q-6 0 -6 44q0 32 10 40q26 21 53 46.5t42.5 43t16.5 21.5q14 37 40 112z" />
    <glyph glyph-name="OE" unicode="&#x152;" horiz-adv-x="907" 
d="M777 226h61q14 0 14 -13q0 -14 -24 -48t-64.5 -73.5t-109.5 -69.5t-145 -30q-110 0 -147 57q-72 -57 -158 -57q-85 0 -139 51t-54 136q0 87 35 179.5t94 168t143.5 123.5t175.5 48q106 0 131 -74q92 74 196 74q48 0 83 -18.5t35 -59.5q0 -26 -23.5 -63t-58 -79.5
t-46.5 -64.5q-15 -26 -24 -26q-5 0 -32.5 23t-27.5 36q0 23 55 79t55 65q0 22 -26 22q-81 0 -152 -62.5t-71 -147.5q0 -28 8 -48.5t17 -29t17 -20t8 -24.5q0 -11 -25.5 -28t-56 -32.5t-56 -42.5t-25.5 -57q0 -19 20.5 -28.5t46.5 -9.5q139 0 248 136q6 8 22 8zM203 84
q15 0 28.5 2t26.5 8t22.5 10.5t21.5 15.5t18.5 16.5t18.5 20t15.5 19t16 21t14.5 19.5q25 34 52 54t40 26t13 9q0 6 -8 17.5t-16.5 34t-8.5 54.5q0 39 14 69.5t28 51.5t14 35q0 23 -19 34t-43 11q-88 0 -170.5 -69.5t-129 -166t-46.5 -182.5q0 -110 98 -110z" />
    <glyph glyph-name="oe" unicode="&#x153;" horiz-adv-x="574" 
d="M546 279q0 -47 -43.5 -86t-98 -58t-100.5 -19q1 -24 17 -35t36 -11q46 0 97 26t83 52l32 26q12 0 12 -44q0 -20 -6.5 -30.5t-25.5 -24.5q-108 -81 -196 -81q-43 0 -71 9.5t-49 38.5q-27 -26 -56 -37t-73 -11q-57 0 -87 32.5t-30 80.5v35q0 91 71 155.5t149 64.5
q59 0 99 -61q85 61 132 61q108 0 108 -83zM304 178q36 2 92 28t56 55t-25 29q-37 0 -74 -36.5t-49 -75.5zM79 131q0 -31 10.5 -45t41.5 -14q25 0 51 19t29 32v5.5t-0.5 8t-0.5 9.5q0 27 10.5 60t10.5 39q0 33 -44 33q-42 0 -75 -44.5t-33 -102.5z" />
    <glyph glyph-name="Scaron" unicode="&#x160;" horiz-adv-x="556" 
d="M499 186q0 -34 -16 -66t-49.5 -61.5t-95 -47t-142.5 -17.5q-118 0 -178.5 29.5t-60.5 98.5q0 41 33 71.5t77 44t87 13.5q54 0 72.5 -5.5t18.5 -22.5q0 -68 -27 -68q-16 0 -42 3t-37 3q-12 0 -25 -2t-27.5 -6t-24 -13t-9.5 -22q0 -17 43.5 -25.5t100.5 -8.5
q77 0 139.5 25.5t62.5 67.5q0 29 -26.5 51t-64 38.5t-75 36t-64 54t-26.5 82.5q0 106 94.5 182.5t234.5 76.5q49 0 83 -23.5t34 -69.5q0 -53 -48 -99t-100.5 -68t-83.5 -22q-13 0 -17.5 5.5t-4.5 24.5q0 18 5.5 40t16.5 24q30 5 85 33t55 49q0 16 -38 16q-42 0 -91.5 -17
t-89 -54t-39.5 -82q0 -30 27 -54t65 -42t76 -38.5t65 -55t27 -79.5zM449 737l-58 171h53l54 -120l120 120h60l-137 -171h-92z" />
    <glyph glyph-name="scaron" unicode="&#x161;" horiz-adv-x="333" 
d="M142 159q7 37 7 62q0 13 -3 13q-5 0 -80.5 -75.5t-81.5 -75.5t-6 37q0 41 4 45q47 38 97 93t81 103q-1 39 16 74t50 35q40 0 40 -49q0 -23 -11.5 -41t-11.5 -23v-118q-3 -102 -34 -144q20 1 68.5 39.5t50.5 38.5q12 0 12 -33q0 -23 -4.5 -34.5t-20.5 -24.5
q-91 -75 -168 -75q-28 0 -43 -5q-19 -7 -25 -7q-34 0 -55 15.5t-21 43.5q0 19 25 19q8 0 27.5 -3t32.5 -3q18 0 32.5 27.5t21.5 65.5zM174 486l-58 171h53l54 -120l120 120h60l-137 -171h-92z" />
    <glyph glyph-name="Ydieresis" unicode="&#x178;" horiz-adv-x="667" 
d="M114 363l-56 -32q-11 -7 -23 -7q-10 0 -10 20q0 8 7.5 41.5t28 88t50.5 103.5t82 85t115 36q47 0 76 -24.5t29 -70.5q0 -10 -2 -21.5t-4.5 -22t-8.5 -27.5t-10.5 -28.5t-14.5 -33.5t-15.5 -35t-18.5 -41.5t-20 -43.5l-119 -262l2 -2l67 53q30 24 73 63t105 99
t108.5 122.5t55.5 105.5q3 14 14.5 23.5t26.5 9.5h34q23 0 23 -20q0 -12 -50 -136.5t-116.5 -273t-139.5 -269.5t-111 -121q-13 0 -26.5 11t-13.5 23q0 7 18 38.5t52 92t61 117.5l88 186h-2q-36 -41 -64 -69.5t-71.5 -67t-87 -59t-82.5 -20.5q-28 0 -48 16.5t-20 43.5
q0 10 2 21t8 26t10.5 25.5t15 34.5t17.5 39l144 329q20 46 20 57q0 8 -7.5 15t-19.5 7q-24 0 -45.5 -14t-35.5 -32.5t-27.5 -47t-19.5 -46.5t-14 -43l-7 -25q-10 -29 -23 -37zM653 864q20 0 35 -14.5t15 -33.5q0 -21 -15 -36t-36 -15t-35.5 14t-14.5 35t15 35.5t36 14.5z
M484 864q20 0 35 -14.5t15 -33.5q0 -21 -15 -36t-36 -15t-35.5 14t-14.5 35t15 35.5t36 14.5z" />
    <glyph glyph-name="Zcaron" unicode="&#x17d;" horiz-adv-x="463" 
d="M266 292v-2q58 0 87 -38.5t29 -95.5q0 -63 -30.5 -135.5t-78 -131.5t-111.5 -98.5t-125 -39.5q-53 0 -87.5 30.5t-34.5 82.5t38.5 111.5t88 97.5t82.5 38q13 0 22.5 -11t9.5 -24q0 -16 -22 -39.5t-48.5 -45.5t-48.5 -54.5t-22 -63.5q0 -32 35 -32q48 0 103.5 54.5
t92 128.5t36.5 129q0 28 -13.5 42.5t-32.5 18.5t-38 8.5t-32.5 19t-13.5 42.5q0 18 25.5 44.5t62 55t73.5 58.5t62.5 64t25.5 64q0 15 -13 24.5t-38 9.5q-36 0 -91.5 -25t-104.5 -83q-9 -11 -18 -11q-10 0 -10 13q0 21 12 70.5t24 58.5q92 71 187 71q66 0 109 -32.5
t43 -96.5q0 -44 -21.5 -85.5t-64 -79.5t-72 -59.5t-77.5 -52.5zM403 737l-58 171h53l54 -120l120 120h60l-137 -171h-92z" />
    <glyph glyph-name="zcaron" unicode="&#x17e;" horiz-adv-x="444" 
d="M429 83l-177 -138q-30 -95 -89.5 -171t-131.5 -76q-81 0 -81 81q0 29 18.5 57t56.5 55.5t62 42t70 39.5q11 6 11 33q0 31 -13 31q-1 0 -8.5 -2.5t-19 -4.5t-22.5 -2q-17 0 -29 8t-12 24q0 25 29.5 44.5t54.5 19.5q8 0 19 -1t12 -1q18 0 54.5 41t36.5 71q0 48 -35 48
q-7 0 -13.5 -1.5t-14.5 -6t-15 -8t-17.5 -12t-17.5 -14.5t-20 -18.5t-21 -20t-24.5 -23t-25.5 -24.5q-75 -72 -85 -72q-7 0 -7 44q0 34 18 47q20 15 54 49.5t61 62t68 49.5t81 22q47 0 76.5 -29.5t29.5 -75.5q0 -37 -18 -70t-39 -51t-39 -32t-18 -19q0 -7 7 -25.5t11 -18.5
q2 0 25.5 18t56.5 45t58 49q6 5 12.5 11t9 8t5 4.5t4 3t3.5 0.5q9 0 9 -41q0 -23 -3.5 -31.5t-16.5 -18.5zM14 -225q0 -15 16 -15q32 0 66.5 47t40.5 83q-5 -3 -33 -20.5t-43.5 -28.5t-31 -30t-15.5 -36zM219 426l-58 171h53l54 -120l120 120h60l-137 -171h-92z" />
    <glyph glyph-name="florin" unicode="&#x192;" 
d="M-22 -92l54 5q-14 -72 -14 -94q0 -16 0.5 -23.5t5 -14t12.5 -6.5q13 0 22 13.5t20 44.5q33 89 71.5 236t64.5 283h-77l13 72h83q15 59 25.5 96.5t30 88.5t39 80.5t49 51t63.5 21.5q29 0 47 -25t18 -73q0 -19 -8 -59t-18 -40h-58q22 81 22 103q0 32 -19 32q-10 0 -19 -9
t-18 -28t-16 -38t-15 -49.5t-13.5 -50.5t-13.5 -53.5t-11 -47.5h96l-16 -72h-95q-82 -346 -118 -452q-60 -172 -130 -191q-10 -2 -20 -2q-39 0 -57 27.5t-18 68.5q0 44 18 105z" />
    <glyph glyph-name="circumflex" unicode="&#x2c6;" horiz-adv-x="222" 
d="M240 597l66 -171h-55l-55 118l-118 -118h-63l141 171h84z" />
    <glyph glyph-name="caron" unicode="&#x2c7;" horiz-adv-x="222" 
d="M108 426l-58 171h53l54 -120l120 120h60l-137 -171h-92z" />
    <glyph glyph-name="uni02C9" unicode="&#x2c9;" horiz-adv-x="222" 
d="M309 475h-273l11 62h274z" />
    <glyph glyph-name="breve" unicode="&#x2d8;" horiz-adv-x="222" 
d="M54 558h30q6 -37 25.5 -50t59.5 -13q71 0 123 49l15 14h40q-35 -50 -85 -86.5t-103 -36.5t-79 34t-26 89z" />
    <glyph glyph-name="dotaccent" unicode="&#x2d9;" horiz-adv-x="222" 
d="M171 553q20 0 35 -14.5t15 -33.5q0 -21 -15 -36t-36 -15t-35.5 14t-14.5 35t15 35.5t36 14.5z" />
    <glyph glyph-name="ring" unicode="&#x2da;" horiz-adv-x="222" 
d="M117 517q0 -21 15 -36t37 -15t37 15t15 37t-15 37t-37 15t-37 -15t-15 -38zM69 518q0 41 29.5 70.5t70.5 29.5t70.5 -29.5t29.5 -70.5t-29.5 -70.5t-70.5 -29.5t-70.5 29.5t-29.5 70.5z" />
    <glyph glyph-name="ogonek" unicode="&#x2db;" horiz-adv-x="222" 
d="M138 -138l9 -21q-8 -5 -27 -16.5t-29 -17t-27 -13t-35 -10.5t-40 -3q-36 0 -63.5 19.5t-27.5 54.5q0 25 9.5 47t22.5 36.5t37.5 28t41 20.5t48.5 15t45.5 10.5t43.5 8.5v-13q-170 -54 -170 -131q0 -58 54 -58q10 0 20.5 2.5t23 8t20 9t23.5 12t21 11.5z" />
    <glyph glyph-name="tilde" unicode="&#x2dc;" horiz-adv-x="222" 
d="M57 449h-40q9 45 34.5 74.5t68.5 29.5q20 0 64 -14t55 -14q17 0 32.5 10.5t17.5 29.5h39q-7 -45 -32 -75.5t-68 -30.5q-11 0 -61 16q-48 16 -64 16q-12 0 -21.5 -7.5t-13.5 -14t-11 -20.5z" />
    <glyph glyph-name="hungarumlaut" unicode="&#x2dd;" horiz-adv-x="222" 
d="M106 605h101l-69 -87q-4 -5 -18 -29.5t-27.5 -42t-22.5 -20.5h-48l10 21q32 63 65 138zM273 605h101l-69 -87q-4 -5 -18 -29.5t-27.5 -42t-22.5 -20.5h-48l10 21q32 63 65 138z" />
    <glyph glyph-name="uni03A9" unicode="&#x3a9;" horiz-adv-x="618" 
d="M73 72l1 3q-20 24 -31 55t-9 76.5t22 95.5q45 110 149 184.5t218 74.5q59 0 100 -22t58 -58.5t16.5 -81.5t-19.5 -93q-30 -75 -86.5 -135t-118.5 -96l-1 -3h123l-29 -72h-222l22 54q145 70 211 234q19 52 20.5 96t-26 73.5t-78.5 29.5q-75 0 -144.5 -57.5t-105.5 -144.5
q-32 -87 -23.5 -145.5t47.5 -85.5l-22 -54h-222l29 72h121z" />
    <glyph glyph-name="uni03BC" unicode="&#x3bc;" horiz-adv-x="500" 
d="M143 350h74q10 0 10 -9q0 -4 -10 -24l-89 -187q-1 -3 -3 -7t-4 -7.5t-2 -4.5q0 -5 3 -5q6 0 54.5 37.5t62.5 51.5q36 33 150 147q11 8 15 8h60q12 0 12 -11q0 -1 -22 -47l-83 -176q-2 -4 -3.5 -7.5t-2.5 -5t-1 -2.5q0 -9 8 -9q10 0 42.5 20.5t53.5 38.5q27 23 28 23
q4 0 7 -13t3 -26q0 -22 -7.5 -35t-27.5 -27q-37 -27 -87 -53t-79 -26q-54 0 -54 40q0 12 7 32.5t17.5 45t13.5 32.5l-2 2q-139 -119 -214 -144l-35 -114q-4 -13 -13.5 -64t-17.5 -75q-14 -43 -45 -43q-45 0 -45 55q0 59 71 247q1 4 3 8l3.5 7t1.5 5q0 12 9.5 41t20.5 47
l-2 2q-5 -4 -15 -13.5t-17.5 -16t-10.5 -6.5q-5 0 -5 33q0 45 11 54q69 56 120 117q16 19 26 50q5 14 10 14z" />
    <glyph glyph-name="pi" unicode="&#x3c0;" horiz-adv-x="505" 
d="M507 338h-63l-88 -216q-30 -77 -38 -122h-90q-5 24 33 116l89 222h-131q-36 -79 -93.5 -183t-99.5 -155h-90q47 64 103.5 164.5t87.5 173.5q-62 0 -93 -10l13 60q47 25 144 25h354z" />
    <glyph glyph-name="uni2010" unicode="&#x2010;" horiz-adv-x="333" 
d="M57 220h198q10 0 10 -10q0 -19 -18 -57q-7 -16 -10 -16h-214q-5 0 -5 8q0 21 19 54q12 21 20 21z" />
    <glyph glyph-name="endash" unicode="&#x2013;" horiz-adv-x="500" 
d="M491 148h-500l18 60h500z" />
    <glyph glyph-name="emdash" unicode="&#x2014;" horiz-adv-x="1000" 
d="M991 148h-1000l18 60h1000z" />
    <glyph glyph-name="quoteleft" unicode="&#x2018;" horiz-adv-x="204" 
d="M235 698h41q6 0 6 -5q0 -1 -7 -20l-88 -228q-7 -13 -8 -13h-107q-9 0 -9 7q0 2 11 21z" />
    <glyph glyph-name="quoteright" unicode="&#x2019;" horiz-adv-x="204" 
d="M155 432h-41q-6 0 -6 5q0 1 7 20l88 228q7 13 8 13h107q9 0 9 -7q0 -2 -11 -21z" />
    <glyph glyph-name="quotesinglbase" unicode="&#x201a;" horiz-adv-x="204" 
d="M-24 -140h-41q-6 0 -6 5q0 1 7 20l88 228q6 13 8 13h107q9 0 9 -7q0 -2 -11 -21z" />
    <glyph glyph-name="quotedblleft" unicode="&#x201c;" horiz-adv-x="407" 
d="M439 698h41q6 0 6 -5q0 -1 -7 -20l-88 -228q-7 -13 -8 -13h-107q-9 0 -9 7q0 2 11 21zM235 698h41q6 0 6 -5q0 -1 -7 -20l-88 -228q-7 -13 -8 -13h-107q-9 0 -9 7q0 2 11 21z" />
    <glyph glyph-name="quotedblright" unicode="&#x201d;" horiz-adv-x="407" 
d="M155 432h-41q-6 0 -6 5q0 1 7 20l88 228q7 13 8 13h107q9 0 9 -7q0 -2 -11 -21zM359 432h-41q-6 0 -6 5q0 1 7 20l88 228q7 13 8 13h107q9 0 9 -7q0 -2 -11 -21z" />
    <glyph glyph-name="quotedblbase" unicode="&#x201e;" horiz-adv-x="407" 
d="M-25 -140h-41q-6 0 -6 5q0 1 7 20l88 228q7 13 8 13h107q9 0 9 -7q0 -2 -11 -21zM179 -140h-41q-6 0 -6 5q0 1 7 20l88 228q7 13 8 13h107q9 0 9 -7q0 -2 -11 -21z" />
    <glyph glyph-name="dagger" unicode="&#x2020;" horiz-adv-x="556" 
d="M377 519h172q9 0 9 -13t-8 -35t-14 -22h-180l-152 -525q-3 -13 -7 -13h-62q-5 0 -5 10q0 4 3 13t4 11l136 504h-163q-17 0 -17 11q0 9 8 34t12 25h181l50 166q3 13 12 13h47q11 0 14 -2.5t3 -9.5q0 -10 -6 -26z" />
    <glyph glyph-name="daggerdbl" unicode="&#x2021;" horiz-adv-x="556" 
d="M294 526l54 172h57q6 0 10.5 -3.5t4.5 -8.5q0 -3 -3 -18l-38 -142h154q12 0 12 -9q0 -16 -7 -39q-7 -22 -21 -22h-159l-88 -301h154q12 0 12 -9q0 -16 -7 -39q-7 -22 -21 -22h-157l-48 -173h-57q-6 0 -10.5 3.5t-4.5 7.5q0 3 3 18l41 144h-154q-12 0 -12 9q0 16 7 39
q7 22 21 22h157l81 301h-154q-12 0 -12 9q0 16 7 39q7 22 21 22h157z" />
    <glyph glyph-name="bullet" unicode="&#x2022;" horiz-adv-x="500" 
d="M423 348q0 -72 -50.5 -122.5t-122.5 -50.5t-123 50.5t-51 122.5q0 73 50.5 123.5t123.5 50.5q72 0 122.5 -50.5t50.5 -123.5z" />
    <glyph glyph-name="ellipsis" unicode="&#x2026;" horiz-adv-x="1000" 
d="M81 53q0 32 23 57.5t54 25.5q24 0 39.5 -19t15.5 -43q0 -32 -24 -56t-55 -24q-26 0 -39.5 16t-13.5 43zM414 53q0 32 23 57.5t54 25.5q24 0 39.5 -19t15.5 -43q0 -32 -24 -56t-55 -24q-26 0 -39.5 16t-13.5 43zM747 53q0 32 23 57.5t54 25.5q24 0 39.5 -19t15.5 -43
q0 -32 -24 -56t-55 -24q-26 0 -39.5 16t-13.5 43z" />
    <glyph glyph-name="perthousand" unicode="&#x2030;" horiz-adv-x="1000" 
d="M887 350q54 0 80 -31t26 -84q0 -79 -56 -153t-135 -74q-53 0 -79 31t-26 84q0 79 56 153t134 74zM881 290q-47 0 -81.5 -55t-34.5 -106q0 -61 44 -61q47 0 81.5 55t34.5 106q0 61 -44 61zM187 556q84 0 102 -77q50 5 103.5 32t86.5 51t36 24q9 0 28.5 -23.5t19.5 -35.5
q0 -5 -10.5 -21t-29 -40t-33.5 -42.5t-34.5 -42t-21.5 -25.5q-182 -230 -266 -372q-1 -1 -6.5 -12t-10 -18t-11 -16.5t-12.5 -14.5t-11 -5q-11 0 -23.5 19t-12.5 32q0 25 180 274q46 63 146 183l58 67l-2 2l-41 -22q-78 -43 -130 -44q-4 -77 -59 -146t-131 -69q-53 0 -79 31
t-26 84q0 79 56 153t134 74zM181 496q-47 0 -81.5 -55t-34.5 -106q0 -61 44 -61q49 0 82.5 56.5t32.5 108.5q-16 9 -16 29q0 10 8 11q-11 17 -35 17zM565 350q54 0 80 -31t26 -84q0 -79 -56 -153t-135 -74q-53 0 -79 31t-26 84q0 79 56 153t134 74zM559 290q-47 0 -81.5 -55
t-34.5 -106q0 -61 44 -61q47 0 81.5 55t34.5 106q0 61 -44 61z" />
    <glyph glyph-name="guilsinglleft" unicode="&#x2039;" horiz-adv-x="333" 
d="M299 332l-166 -154l101 -154h-74l-101 142q-10 14 -10 17t16 18l146 131h88z" />
    <glyph glyph-name="guilsinglright" unicode="&#x203a;" horiz-adv-x="333" 
d="M21 24l166 154l-101 154h74l101 -142q10 -14 10 -17t-16 -18l-146 -131h-88z" />
    <glyph glyph-name="fraction" unicode="&#x2044;" horiz-adv-x="167" 
d="M-167 -6l425 573h76l-425 -573h-76z" />
    <glyph glyph-name="Euro" unicode="&#x20ac;" 
d="M304 205h-144q-16 -124 67 -124q25 0 45.5 11.5t27 19t20.5 25.5l12 -4t13 -4.5t12 -4t12 -5t8.5 -5.5t6.5 -6.5t2 -7.5q0 -25 -49 -65.5t-114 -40.5q-93 0 -131 60.5t-30 150.5h-35q-23 0 -30 7.5t-7 20.5q0 28 37 28h44q8 32 14 47h-29q-22 0 -29.5 7t-7.5 21
q0 28 37 28h52q50 94 116 148.5t161 54.5q59 0 96.5 -32.5t34.5 -81.5q-3 -35 -19 -55q-12 -11 -32 -10.5t-37 12.5t-11 24q6 16 2 29q-3 11 -17.5 18.5t-34.5 7.5q-87 0 -154 -115h174q37 0 37 -28t-37 -28h-199q-7 -16 -16 -47h132q37 0 37 -28t-37 -28z" />
    <glyph glyph-name="afii61289" unicode="&#x2113;" horiz-adv-x="432" 
d="M320 146l24 -38q-104 -111 -219 -111q-68 0 -89 37t-5 96l3 9q-43 -26 -57 -34l-6 49q12 7 43 25.5t47 28.5l81 201q42 103 102.5 152.5t123.5 49.5q58 0 72.5 -41t-10.5 -97q-28 -69 -99.5 -137.5t-187.5 -144.5l-10 -26q-17 -48 -4 -71.5t47 -23.5q66 0 144 76z
M235 418l-59 -144q156 113 192 200q30 73 -22 73q-24 0 -54 -30.5t-57 -98.5z" />
    <glyph glyph-name="trademark" unicode="&#x2122;" horiz-adv-x="990" 
d="M390 698v-64h-125v-348h-82v348h-125v64h332zM591 698l113 -292l112 292h116v-412h-76v324h-2l-123 -324h-56l-123 324h-2v-324h-76v412h117z" />
    <glyph glyph-name="Omega" unicode="&#x2126;" horiz-adv-x="618" 
d="M73 72l1 3q-20 24 -31 55t-9 76.5t22 95.5q45 110 149 184.5t218 74.5q59 0 100 -22t58 -58.5t16.5 -81.5t-19.5 -93q-30 -75 -86.5 -135t-118.5 -96l-1 -3h123l-29 -72h-222l22 54q145 70 211 234q19 52 20.5 96t-26 73.5t-78.5 29.5q-75 0 -144.5 -57.5t-105.5 -144.5
q-32 -87 -23.5 -145.5t47.5 -85.5l-22 -54h-222l29 72h121z" />
    <glyph glyph-name="estimated" unicode="&#x212e;" horiz-adv-x="806" 
d="M779 272h-516q-4 0 -4 -3v-156q0 -9 7 -18q83 -85 195 -85q122 0 205 95h46q-43 -51 -109.5 -80.5t-142.5 -29.5q-132 0 -225 83.5t-93 201.5q0 119 93 203t225 84t225.5 -84t93.5 -203v-8zM662 293v157q0 10 -8 18q-84 82 -193 82q-110 0 -194 -84q-8 -8 -8 -20v-153
q0 -5 4 -5h395q4 0 4 5z" />
    <glyph glyph-name="partialdiff" unicode="&#x2202;" 
d="M180 514l-2 64q80 47 172 47q97 0 129.5 -77.5t-22.5 -224.5q-58 -143 -157.5 -234.5t-209.5 -91.5q-42 0 -69 17.5t-36 45t-7 60t15 64.5q36 90 111.5 147t152.5 57q50 0 75.5 -24t29.5 -49h1q7 14 13 30q36 87 17 146.5t-84 59.5q-64 0 -129 -37zM129 71h1
q49 0 103.5 50.5t89.5 117.5q2 27 -17 52.5t-59 25.5q-46 0 -93.5 -39.5t-69.5 -94.5q-20 -47 -7.5 -79.5t52.5 -32.5z" />
    <glyph glyph-name="uni2206" unicode="&#x2206;" horiz-adv-x="560" 
d="M-90 0l22 54l409 511h110l-6 -510l-22 -55h-513zM35 73h315v259q1 17 3 70t4 72h-3q-10 -14 -46.5 -61.5t-51.5 -67.5z" />
    <glyph glyph-name="product" unicode="&#x220f;" horiz-adv-x="715" 
d="M696 471h-91v-547h-91v547h-204v-547h-91v547h-91v80h568v-80z" />
    <glyph glyph-name="summation" unicode="&#x2211;" horiz-adv-x="584" 
d="M568 -76h-441v56l214 257l-205 253v61h418v-76h-291v-3l183 -222l-200 -242v-2h322v-82z" />
    <glyph glyph-name="minus" unicode="&#x2212;" horiz-adv-x="600" 
d="M478 149h-356v58h356v-58z" />
    <glyph glyph-name="uni2215" unicode="&#x2215;" horiz-adv-x="167" 
d="M-167 -6l425 573h76l-425 -573h-76z" />
    <glyph glyph-name="uni2219" unicode="&#x2219;" horiz-adv-x="240" 
d="M95 108q-28 0 -49 21.5t-21 48.5t21 48.5t49 21.5t49 -21.5t21 -48.5t-21 -48.5t-49 -21.5z" />
    <glyph glyph-name="radical" unicode="&#x221a;" horiz-adv-x="611" 
d="M619 659l-192 -774h-75l-131 353l-63 -24l-16 50l133 53l98 -273q3 -11 8.5 -32t7.5 -29h1l13 65l150 611h66z" />
    <glyph glyph-name="infinity" unicode="&#x221e;" horiz-adv-x="674" 
d="M634 229v-1q0 -62 -38.5 -100.5t-91.5 -38.5q-72 0 -150 96q-39 -47 -73.5 -71.5t-79.5 -24.5q-52 0 -90 38.5t-38 96.5q0 60 38 98.5t96 38.5q76 0 151 -93q22 25 30.5 34t30 27t43 25t47.5 7q55 0 90 -36.5t35 -95.5zM207 140h1q23 0 47.5 16t34.5 26.5t36 39.5
q-23 31 -35.5 45.5t-36.5 29.5t-50 15q-36 0 -57 -25t-21 -64q0 -34 23 -58.5t58 -24.5zM504 312h-1q-12 0 -25 -4.5t-22.5 -10t-22 -17t-18 -17.5t-17.5 -19.5t-14 -16.5q42 -49 67 -68t55 -19q34 0 54.5 26t20.5 58q0 39 -21.5 63.5t-55.5 24.5z" />
    <glyph glyph-name="integral" unicode="&#x222b;" horiz-adv-x="430" 
d="M417 669l-11 -60q-14 7 -31 7q-29 0 -42 -20q-25 -28 -25 -135q0 -62 6 -188t6 -196q0 -105 -32 -158t-99 -53q-38 0 -62 14l12 63q20 -10 38 -10q24 0 38 17q26 32 26 127q0 71 -6.5 200t-6.5 193q0 127 49 175q34 35 90 35q30 0 50 -11z" />
    <glyph glyph-name="approxequal" unicode="&#x2248;" horiz-adv-x="500" 
d="M432 357l33 -32q-46 -81 -113 -81q-36 0 -96 34q-48 27 -75 27q-26 0 -44 -15.5t-39 -44.5l-33 32q19 36 51.5 58.5t69.5 22.5q36 0 90 -32q3 -2 10.5 -6t10.5 -5.5t9.5 -5t9.5 -4.5t8.5 -3t9.5 -3t9 -1.5t10 -0.5q41 0 79 60zM432 207l33 -31q-47 -81 -113 -81
q-37 0 -96 34q-50 27 -75 27q-26 0 -44 -15t-39 -45l-33 32q19 36 51.5 58.5t69.5 22.5q10 0 19.5 -1.5t16.5 -3.5t16.5 -6t13 -6t13 -7.5t11.5 -6.5q4 -2 15 -8.5t15.5 -9t13.5 -6t16.5 -5t16.5 -1.5q23 0 41 14t38 45z" />
    <glyph glyph-name="notequal" unicode="&#x2260;" horiz-adv-x="529" 
d="M400 410l-34 -75h122v-54h-144l-52 -114h196v-53h-218l-43 -97l-43 19l36 78h-119v53h140l52 114h-192v54h214l43 94z" />
    <glyph glyph-name="lessequal" unicode="&#x2264;" horiz-adv-x="557" 
d="M514 78l-381 182v57l381 182v-61l-325 -148v-2l325 -149v-61zM517 -8h-388v54h388v-54z" />
    <glyph glyph-name="greaterequal" unicode="&#x2265;" horiz-adv-x="557" 
d="M134 499l381 -182v-57l-381 -182v61l325 149v2l-325 148v61zM515 -8h-385v54h385v-54z" />
    <glyph glyph-name="lozenge" unicode="&#x25ca;" horiz-adv-x="610" 
d="M568 275l-170 -315h-73l-167 315l170 316h72zM487 273l-108 204q-13 33 -15 42h-2q-5 -17 -16 -42l-107 -200l108 -206q10 -25 15 -40h3q7 23 14 39z" />
    <glyph glyph-name="fi" unicode="&#xfb01;" horiz-adv-x="537" 
d="M433 350h61q16 0 16 -8q0 -3 -13 -28t-42.5 -88.5t-60.5 -139.5l2 -2q38 17 69.5 38.5t46 34.5t16.5 13q13 0 13 -36q0 -20 -5 -32t-22 -25q-43 -32 -94 -57.5t-86 -25.5q-53 0 -53 49q0 5 5 19.5t12 32.5t8 22h-2q-17 -15 -52 -40.5t-46 -33.5q-4 -30 -4 -31
q0 -62 -26.5 -133t-72.5 -122t-95 -51q-33 0 -49.5 23.5t-16.5 59.5q0 48 109 344l-2 2q-14 -11 -31 -25t-25.5 -20.5t-10.5 -6.5q-7 0 -7 45q0 30 10 38q1 1 13.5 12.5t24 22t27.5 26t28 29t22 27.5t14 23q17 46 35 100t30 90.5t25.5 76t24.5 64t23 45.5t25.5 30.5
t28.5 9.5q28 0 28 -36q0 -47 -22 -112.5t-65.5 -160.5t-49.5 -110q-1 -2 -20.5 -56.5t-44 -123t-49.5 -140t-42 -121.5t-17 -54q0 -14 8 -14q11 0 32 30t47 101t37 160q71 48 161 126t105 121q7 18 19 18zM523 521q20 0 33 -15t13 -35q0 -25 -19 -44.5t-45 -19.5
q-20 0 -33 15t-13 35q0 25 19 44.5t45 19.5z" />
    <glyph glyph-name="fl" unicode="&#xfb02;" horiz-adv-x="537" 
d="M397 331l124 330q1 2 5 15t6.5 18t7.5 13t12 11.5t16 3.5q18 0 26 -13.5t8 -28.5q0 -59 -37 -157.5t-76 -172.5q-16 -32 -53.5 -132t-37.5 -123q0 -7 8 -7q20 0 73 44l53 43q4 0 9 -11.5t5 -22.5q0 -26 -7.5 -40.5t-32.5 -31.5q-111 -75 -154 -75q-58 0 -58 39
q0 8 4 24.5t10 37t7 25.5q-83 -58 -113 -83q0 -109 -43 -201q-22 -44 -62.5 -87t-77.5 -43q-74 0 -74 84q0 28 15 79t45.5 138t44.5 129l-2 2q-14 -11 -30.5 -26t-25 -22.5t-10.5 -7.5q-6 0 -6 44q0 32 10 42t32 30t35.5 33t28.5 31t22 32q24 50 62 166.5t70.5 189
t64.5 72.5q30 0 30 -39q0 -36 -15 -87.5t-31 -89.5t-45 -101.5t-40 -89.5q-59 -143 -101.5 -262.5t-58 -174t-15.5 -68.5q0 -16 9 -16q21 0 58.5 83t47.5 172q4 34 14 40q53 33 142 110q52 45 67.5 64.5t33.5 67.5z" />
    <glyph glyph-name="one.superior" horiz-adv-x="288" 
d="M106 227h-45q-13 0 -13 4t7 11q21 26 40.5 59t41 75.5t32.5 61.5l-2 1q-40 -30 -60 -30q-7 0 -8.5 3t-1.5 12q0 32 7 35l21 10q66 30 88 63q2 3 5.5 9.5t5.5 9.5t6 8t8 7t9.5 4t12.5 2q13 0 21.5 -7.5t8.5 -21.5q0 -15 -28 -46q-6 -8 -16 -27t-19.5 -39.5t-11.5 -23.5
q-4 -8 -16.5 -31.5t-34 -63t-40.5 -75.5q-5 -10 -18 -10z" />
    <glyph glyph-name="two.superior" horiz-adv-x="288" 
d="M230 344l-52 -52q30 -15 78 -15q14 0 30 4t17 4q8 0 8 -6q0 -3 -13 -42q-5 -14 -49 -14q-49 0 -120 33q-6 -3 -21.5 -12t-21 -12t-18.5 -6t-28 -3q-26 0 -44.5 15.5t-18.5 38.5q0 28 20.5 45t52.5 17q18 0 36 -6t28.5 -12t11.5 -6q13 0 69.5 70.5t56.5 104.5
q0 14 -11 20.5t-23 6.5q-24 0 -45.5 -16.5t-36 -33t-20.5 -16.5q-9 0 -21 7.5t-12 14.5q0 22 41 58t98 36q93 0 93 -77q0 -30 -28 -73.5t-57 -72.5zM47 259q6 0 13.5 3t12 6t12.5 9t10 7l-11 5.5t-18 7.5t-19 3q-13 0 -21 -5.5t-8 -12.5q0 -23 29 -23z" />
    <glyph glyph-name="three.superior" horiz-adv-x="288" 
d="M43 341h20q9 0 11.5 -6t2.5 -25q0 -35 48 -35q30 0 60 20.5t30 52.5q0 9 -4 17t-8 11.5t-6 3.5l-13 -4q-13 -4 -24 -4q-16 0 -30 7t-14 21q0 37 53 37q5 0 16 -2t13 -2q12 0 33 21t21 41q0 21 -30 21q-22 0 -51.5 -23.5t-32.5 -23.5q-9 0 -19.5 7t-10.5 14q0 21 42 49
t88 28q36 0 59 -19.5t23 -52.5q0 -45 -69 -89q26 -25 26 -58q0 -53 -46.5 -89t-101.5 -36q-54 0 -81.5 22.5t-27.5 60.5q0 35 23 35z" />
    <glyph glyph-name="a.superior" horiz-adv-x="256" 
d="M232 491h36q-37 -68 -37 -82q0 -7 10 -7q8 0 24 13q1 1 3 2.5t3.5 3l2.5 2.5t2 1q6 0 6 -30q0 -14 -6 -19.5t-26 -16.5q-22 -12 -35 -12q-30 0 -32 44q-28 -25 -44 -34.5t-37 -9.5h-12q-27 0 -43.5 19.5t-16.5 54.5v14q0 59 64 96t129 37q36 0 47 -5q4 -16 4 -41
q0 -5 -4 -5l-2 1q-3 1 -8 3t-10.5 3.5t-13 2.5t-15.5 1q-42 0 -85.5 -28.5t-43.5 -63.5v-18q0 -8 5 -14.5t12 -6.5q22 0 52.5 32t50.5 67q16 -4 20 -4z" />
    <glyph glyph-name="o.superior" horiz-adv-x="222" 
d="M179 580q28 0 49.5 -17.5t21.5 -46.5q0 -8 -2 -13.5t-4 -8t-5 -5.5l-4 -4q6 -15 6 -22q0 -48 -40.5 -82.5t-94.5 -34.5q-36 0 -57 20t-21 56q0 75 45.5 116.5t105.5 41.5zM90 433q0 -37 36 -37q37 2 53 46l5.5 16.5t6.5 18t5 10.5q-5 3 -5 16q0 23 -28 23
q-24 0 -48.5 -27.5t-24.5 -65.5z" />
    </font>
</defs>
</svg>
